<mxfile host="app.diagrams.net" modified="2021-07-01T12:04:35.520Z" agent="5.0 (Windows NT 10.0; WOW64) AppleWebKit/537.36 (KHTML, like Gecko) Chrome/91.0.4472.124 Safari/537.36" etag="7fcWxtgwgqXYAYwgM-Zl" version="14.8.2" type="github">
  <diagram id="f1tJoWFrneNOxPhsFDgU" name="Page-1">
    <mxGraphModel dx="1108" dy="482" grid="1" gridSize="10" guides="1" tooltips="1" connect="1" arrows="1" fold="1" page="1" pageScale="1" pageWidth="850" pageHeight="1100" math="0" shadow="0">
      <root>
        <mxCell id="0" />
        <mxCell id="1" parent="0" />
        <mxCell id="ay5lLBW4vIb20nYPWjvQ-1" value="" style="shape=image;verticalLabelPosition=bottom;labelBackgroundColor=#ffffff;verticalAlign=top;aspect=fixed;imageAspect=0;image=data:image/png,iVBORw0KGgoAAAANSUhEUgAAA1wAAAFyCAYAAADh3NurAAAgAElEQVR4AexdBXgVx/dNCQQIQYpLIE4US5DgFIdCobhDKE5wd3d3d9cASXB3aSltgeIF+q9R51eKtT3/78zLfWweLwIkIQkz37dv9+2O7dmxM/fOHRtopxHQCGgENAIaAY2ARkAjoBHQCGgENALxgoBNvMSqI9UIaAQ0AhoBjYBGQCOgEdAIaAQ0AhoBaMKlC4FGQCOgEdAIaAQ0AhoBjYBGQCOgEYgnBDThiidgdbQaAY2ARkAjoBHQCGgENAIaAY2ARkATLl0GNAIaAY2ARkAjoBHQCGgENAIaAY1APCGgCVc8Aauj1QhoBDQCGgGNgEZAI6AR0AhoBDQCmnDpMqAR0AhoBDQCGgGNgEZAI6AR0AhoBOIJAU244glYHa1GQCOgEdAIaAQ0AhoBjYBGQCOgEdCES5cBjYBGQCOgEdAIaAQ0AhoBjYBGQCMQTwhowhVPwOpoNQIaAY2ARkAjoBHQCGgENAIaAY2AJly6DGgENAIaAY2ARkAjoBHQCGgENAIagXhCQBOueAJWR6sR0AhoBDQCGgGNgEZAI6AR0AhoBDTh0mVAI6AR0AhoBDQCGgGNgEZAI6AR0AjEEwKacMUTsDpajYBGQCOgEdAIaAQ0AhoBjYBGQCOgCZcuAxoBjYBGQCOgEdAIaAQ0AhoBjYBGIJ4Q0IQrnoDV0WoENAIaAY2ARkAjoBHQCGgENAIagURPuB4/foxt27ZZPXbv3o0vvvgCv//+e6L6kufPn1f5PXDgQKLKl85M8kTg+fPnuHXrFtauXYuhQ4eiV69eGDJkCJYsWYIrV67gn3/+ifTiv/zyC5YtW6aO48ePm5/9+++/yi/9//fff+b71i7u3r1rtU6yru7atQsnT57Et99++1La1uJKrPf279+vMFq/fr05i8SF+PAgXtppBCwRYNlg2ZF+66+//rL0Eqf/Dx06hPDwcPAcXZlknWW9X758Ob777rs4zYOOTCOgEUgYBP7880/Vx0r7YjyHhITg4MGDajzw7NmzeM/Q//73P6xYsUK1KxyDvKp7lTHHq8adGP0nesL1xx9/oF27dlEe7du3R79+/fDZZ5/FOEhMqA+wePFild/hw4cnVJI6nXcUATZYJFqdO3e2Wkc6deqE2bNngxMX4u7fv2/2y8GXuC1btmDEiBGYOnUqYhokklBFVy/5LDg4GJwUSaqOuPE9SGDFff311woj4nTx4kW5rc8aATMCHOgMGzbMXD8ePHhgfhYfF3369FFpsR/k5EtUjuWV5Zl95tWrV6Pypu9rBDQCiRiB77//Ht27dze3L9b6YY4H5s+fj/gmXZy87dixo8rL2bNnXxk1CifYl/K4c+fOK4dPagGSFOHq2rUrZsyYgZkzZ2L69OkgoZHCxkHR//3f/yUK/DXhShSfIdlngmRrzZo15jrQt29fUBqzZ88ebNq0Cf379zc/27x5sxkPDgBJJngYpbBSbhnPw4cPzf6tXRgJF6VqrJM8WD/Hjh2LDh06qLRZZ5PqbDoldcSIkkJxn3/+uRlTYqCdRsASgcRKuG7fvq3K85w5c8BJF+00AhqBpIeAkXD16NHD3Pey/500aRI4ycpxMfvgCxcuxOsLcpwwd+5c1a5cu3btldM6cuSIuT99nfCvnOBbDpCkCBcJluUMHtUohHRx4GfNkYWTjMUV22c8jO/nn3+2KlWTgWtUEi5KD1i4bty4gadPn1rL8kv3mCalfdGpenEAzsE0KyTVWmJyjItx/v3335G8Mk/37t0DRdfRpRcpkP6T4Ajw+0jjyhkty5l0fseBAweq+sFZbYr/o3NSbl+VcFF9ytKR9Em9pMqBpWN5psoh1YFjU8ZYtn/99deX6r9lvJTksW5dv34dT548sXwc6T/rCPPw22+/xSoPDBwbwsV0WbcpDXv06FGkNKP6QzzYTsUGi6ji0PcTBwL8ljFJuDhQYRtr2fZG9Qbs91j+rZWP2Eq4oorb8j7bDdaJ6Bzr4w8//KAOa3mKLqx+phHQCLw+AkbCRcGDpaOkiP09+9/x48dbPlZqx4zjp59+inGcyPGhUTvmpchiuME+lmPlqNquVyFcbDMtx/8xJJ/oHid5wkXyQqIlgzsWJDp+GM7yU/IlzzgopbqUDExZCDgg5SwBZ+aN7vTp0+p+z549zZIzhqM/ztpLnHzOAaVxYCUDVyPhYqfEwdro0aPNYRkHB8xTpkxRgy1Jn4NF5onHvn37VKURiQHfh3q6xk6O70pJB/1Lvrp06aJmHYwd544dO5Qfqp6cOHFCrfOhf6qaMD7eM0oN+ax3795YtWpVpPeTfOrz20WA6oD8Rmxcv/zyS6uZ4RrHDRs2qEMkwDxL+Vq3bp0KN2bMGLDMMD6WNUrHjFIxy8iNEi5rhIuEQ8rsggULzMFJcCZPnmxWQ2B6HDBu377d7Id1iXWaeWTdYvmjeiL9sg6zk+Fgz+g4Yz9u3DhzmoLLhAkTcPPmTaNXXL58OZIUjn6posF8GusL6zHzIBM5zIuxPWHdHzBggLlDYkfH9ETFgvESA0r8jPrt7MQEf669ocSB7zVx4kQsWrRIPWO9I2ETx3aOaTMcO9HYTtRIeH1OOASiI1zsV1ieZEDEMkJyxrZX2nQOUviteYSFhanyLhMrPFPqapRAWxIukiFKZzlxwmeUerOPYBvB8sN42cfQsbzzP8vbsWPHVPmVvLGfY3k0Drg4ycMZbZZX5p0H/bPsGstrwqGtU9IIvFsIxES4iIZotxjHoKzr8+bNM/elrLvs96h6yHotju0QJ0zZfkgdZxvFZTscO7INEWkU42TbwXuffvqpioLh2ceyL5QxAOPp1q2bSl/aLkrjGE7SYDzsTxlexqocG1P9me/D8Qn7crZpDLdw4ULJsjrLmJ3xcPyRGF2SJ1z8OOyA5KOxU2GHY1S14gcisZJOix+EBYyDFg5eJKwUBH4oimd5n7qldOx0Ro0ape4xHsZnLJCrV682f19rhOvHH380Fy4WQhYsFl7p3FgYpdCzgEme2LHxYKdoHMhxoMZ3Z+fMSkT/jIt5YtxS0FnhZD0OB9D0x2fGgk7CRUkD88DnfDcOEgcPHmzOHyugdokHAX53IUgszzFJr4w5t7aGi99bJhJYPtjAcU1XVC46wsW8cQApZfjo0aMqGk5wsBzzvtQh5l38sZFlmWZ5lfssp8wPyY3kj/7ZWDMdOs7USXmXvEuHQ7+s/2JYh2EGDRqk0uR9vjc7E6lbRmmctCvMM93KlSvN+WK8zBPrCtsGth00VML7rIdMn/VQ4uWZbQAd80J/PIz55Duxo5JnHGyLYwcn96P7LuJfn98eAlERLuMkBAc6LIcykcBvK5MmLKPyrVnHWe5ZlqR95jO2+awrdCzHvCdruNieS31gnyX9irU1XJSqSlrsZ5gG0zLWNamXJG0jR45U/vmckzT8L/0qwxknHt/eF9ApawSSLwLRES6OfdkfytiA67vp2FbMmjVL1V32T6yr7HukneBko/Sn586dM7cJ7LfYFzM+1nPxT2NcdGw/pI+TNVzU8Iiuj2VazA8nXtmHSvsj43Q+k7Eq70n8zAP7UBmbs61imyTvx/aIcXEMbJw4VR4SyU+SJ1zE0Uiu+NHZwciiQn4c/qfqhnGQKIQlNDTU/MEpgaLj4FU+8tatW9U9+peCsXfvXhUfB1kcoPE+C4N0NtYIF9eB0B8LLQkV/TIdKVh8JgYGjISLAzpKJDhI4wJDyRcLKmfKOasu9zgbyTwx7sOHD6v0WLlYgeiMabGjpzUb6vUzH6ICxgGuqEoyHkoNmDd25tolHgT47fldeHDG3DgLze9JwmN5iITLGuFieDaEjI+NHKW50UlRjHWJjStnoniwEeUkhTT4nOWSRpEEgvGz0WYZZ51kwygTGQzDzsJIuFh+OfNOf3zGmXR5b9YHuo0bN5rvkdwxPDHgjJf4pVSYTggN6yFn5Nm4M3+ctadf1iUOmOksCRfxMHZGVIfgOzAODkoZnvmVPLD+GFUmpPMzEi6G4UwdOzB+H3aY/J68b1QHYZvDe8SO3167xIuANcLFQYiUc35HSnpZ5ziAEMI0bdo09VJGwsV2nmsgWZYolRLJEsNInZfwbKO/+uorM4njAEQm2xhxTISLEwas90zLqDrLOsdyaWw3qD3Ce8yrqPWz7iTV9ZqJtzTpnGkEIiNgJFwc5xr7XmpQycQM2w7R5uJkD/smtj0cZ7Jd4EENF97jQW0YOsYn99gOsL/55ptvIpGj6AgXraEyPNOj2jT7R7aJ1EyR+4yT7Re1YyQtpi/9qXGsyr6afSrHuuyDjWMPkaoZ+1RK7Ng2JUaXLAiXsdBwEMaBlHxEdjLsKOQQIsYBFh3JhRAWIVfGgRpnlvnxpLAwXhZeie/MmTPm8KdOnVJxWhIuFiJJgwNSo2MBkll/qjvSGQkXVQrFseBKPtjxMg/GwscZUskXz/KuVMmiMxZimY2QuKXT5Ptxpp0DPA5OOYPB90+sBVjy/66dKS2SMk4JjXG9kjR48lzOovrHsiH3jFYKpdxyhsgo7bWGrbHcSVyWZ5Y/NpLihCxR6mosp+wAGJYNNBtydgQi4eLZSPxk0Ej/lDjR8f35n50N64jRiYosB6Usw6y7kk8+44QL6w0HvlLOJQ5LwsV4jQNRYkDHQafM1DEvHLCKY5ySP57pjJ2DkVRJGEqwmEeSK/qlo9oh71mqPksYfU48CFgjXCxfUkZIrIzlX+odJxxI/o2ES9puvh3LkrTprBdCpoRwUeok16xLbAeMTuoOn7GPoTNKuKR94H32WVJPKAVmvkim5B4n5jjRwUX5HFSxjjJ/UneM6eprjYBGIO4QMBIuqY+WZ44POcaT+rh06VJVd0nG2IdJ+0M/EpaTKPQvhI0T+EbH8a34jY5wGdsJTh7u3LkTly5dUn0s2zZjO2GckBQ1RaZpHKsa7/MZ31/ywXE882wcMydm1eYkT7gItohK+RFYEIzkQT6M5dk40JGBFYkG4yNDpn8SIf5nZyOSHst4jP9ZYOmkA+WAjs44wDVaPFMPDTMKFPPSGQuPzDqIX+6bxDQ5GOO6EM7cG/Ng7VpmTqUQk/yxkzQ6zjbIINcyDuJhHNAbw+nrt4MAB/XynShh4gBJXEITLg7ISNx4UFojEwjMH+uNOBkMSr6tnSlBMhIu1k2j49otCSflWmb9jeqAEoYERfxT6kVnlDTIM57ZJhiJprQLolLIsNYIF8NIPJw0YXthdNLZUapMZyRcxgG1hGEbJvFxEMw2SFS8hOSJX31+uwiw3vF7CjFmbqwRLra3IvWVb2vtzIkUI+HiWiyjkzbaGuGyjE8GRRI+JsLFNRri+A4SnxAulkOZ8JNncuYkjSXBk7j0WSOgEYg7BIyEi/VO+l6OLaldInWSkyJsT+hk4lGeWTtz3GocV3AcbXScnOG4k2GlbbGmUsi2w5gPY1qUuhvHKjERLk4wWXOivk+1SGqwiQYal8EkZpfkCRcHO6Ivyg/LAiDqdCQWJEHGjeHkmn7EUSrGWT8O3BifzEiLH3aAQrg48JE4LM9k8XSWhMvI+C1nDeifalfMuxQWI+ESvX7JK8140y8LPqUHosrEd7XMj/ynShadEC6KaEW9TOJlZ0rxM9UMOWi0HBzw/VmRtEscCPB7yXoKUcWTnHEGiTPOPFi2pcGTGWzjBEBcSLgkXkmf5YRliOmyXgmJYefAe5z1krJpeebA1Ei4KNkxOpZbeR95JmTE2mQGSZn4l4aeDTQnLhheZvPED9sSIWaxJVzMr4SnBNuScImqpnQeRsJl3FRZ3pOTH5IvqndwICzxs7PVLvEgIKqebFPFsfxLH8LvxnaV5VrKKcukZbmX/yx7b0K4ONCJSpsiJsLF5+L4DlLmhHDxGcs2Jx04uSH1WfxxQoGqktppBDQC8YeAkXBxAsTo2PfTnoDUSaoY0wkBYh1lnyPtjfFMaRfHDBJWlrhI/MZxbHSEi/7Z53NykBIokcpLvFR9ljVWMREuTtJac3wvxscxO8fBFJbwf2Jf35ykCRcLh3R4BJug0xkJi5FYsDCSkPGQQRX9s0PkbADjIFPmR2TBlLUSDGdtppxhmQeJk9d0loSLnZcQGBIXDpbFcbAmgytK6uiM+TcOZtkRc0DHfLLzZsUzGicQfV3GYXxXpkFnJFysPEbHtVyUmHEwzrAc9FFdUmYSmKbuTI2Ivf1rfh9+Fx4kB0IoJGf8hkbpr5Sl+CZcTJ8NueRNpKmiUsgBHMuYOM6qSR1iXTESLs7k8544I4EUFWBZLEsiZ/TL+iKTMTKZwXdnOadOOgeP9M+JEuZJ8iuTHLElXKzPYvzCSNiYZ7YJlFwzbuaTLibCRT+02sgw7JykzjNuY9uhItM/bxUBqtRJuZFBBOshy5vcJ8E3qhTKonHJOAcnLP8yG/26hIv9CPsArhWUtDnokTLzpoSL/SHrDg9pazjY4UQHJ1aYprQx8m76rBHQCMQtAtERLqYkZIT1kROLdKyj/M9xrnHSzjh+FVV40VChxof0p+yvjX16dISL8Usfy7aM/Sz7VKOFbvbjdK9LuBiWfSPfifmSSSYug0nMLkkRLhYWGshgh8L1G1QNkoaez7gei44dmBQaDna42J4FhtIbsm0eRlUNPhNCJepJHBzJTDU7LIblx+VBqQDDUM2OKlSMj+mzY6WzJFy8JwMoSqaoRsRBJTtYGYQyXpFEGQkX9f7ZqTNurjeR92VhY/ocQEpho8SDgzkWcr6fvCvXpNFFR7hEWmKskHxv5lXe21hRVYT6560iwMZQvhu/EWexOMAieWZZslSdk8FQTISLZU4Gf1G9INORciHxGv2KgQz6YX7ojNJZ1gfmn+WaZIdlleSKZcxIuFjeKaXmYI9GA4S8MF6ZADCmRettnEyhfyPZlI6HEmaGZT0XiTTzJioJfCadSUyEi4ZmZDBrxIPpMn12YNIWMF4x3BEbwsXwnFTh+0udp2RBu8SFACcTKN3i9+WEH+sWNSOkH2FdYnvMsi6knn2AfEv6p2Ekln9Zw/u6hIt9Avssqt1K+qxTMhH3poTLuN6DfQnzScc6LOmJVkji+ko6NxqB5IMA+0i2F2xzLCVcfEv2t3zGg4SGjhPs0o9Qs0MmTCgNk3GiGKAQq9cSP8ePlGjLOJP3pY/kRJHcZ/tAZxxnCgFiP2k0UCfqy0bCJekb44hKwkU/oqov7S/boMS+9CVJES4pRJZnFhgOqGTwQzJEVTspCOzgSCQkHGeKScKMzmh2mf4szaDzQwop43NKrKST4X9ZwM84ZZAla7h4jwMoo7RICr/kicRLZhiMhEsqlvjjmdI3KbDs9EhA5V155nPxT+LItOmMFcFSwsWKIVI4xkGVGOZX8slKSly1S1wIsHE1liv57nImIRN1WCFGUREuLm6VcCwDxq0OLN/aSDAkXqMfY0MqqkqUAMigk+mwnEq5ZR2lqgPLmJFwcdZeGlTJG8/G+sZ4LXXUpdzSL9NknHSs92K8gM8oiWBYps//rC8iqbZGuDhzR39ysM6w86I0UdQo+cyYPv+zPokEJDaEiwNn42QM1bekfTPirK/fLgLsF4yTHlIueGa5FQuxzCXLjnEdI9t2KSesB8Y2XeIxTgwyDhIoPuNZyrTEKYSL5cRouZPtPt2bEi6WW+OEB9Pju0sdZr2SSU+VoP7RCGgE4hyBmAgXJ0uttR9iUVvaJhnv8T8nCUXAQKk167bEIWf2o9JeRUe4mH50fSz7WxnrGtdEM27mie2XjFWjI1xGi8HMo3EvzzgHPY4iTNKEi4WCgzTpeCwxobUSY6HiR+GgSMSklv5l4MrBFwdQlo4FkjqiMjhjfOxsOFA1DoasES7GxThlDwEpxDxbLpw3Ei6qDIp+qqTH55aOswOWA1NL1RUpxPRnSbiYf3bIot5ozB8rqgxCLdPV/98+AixXsk5IvhsbL5JkPpOZJSFGUREulgHjIN+4vsvyLWMiXCTw0jizXhnrnFHHXPLLci7OSLio1iD5F78cTErnIGF4FtPu4o9nqlLITLz4pTqh5foT+uWEirEtsUa4GIdxMofhZLaQeVq2bJn5vSUfjMc48xYbwsV0jASYbYp2iRMB1jFZhyvfnGXfWKYl5yQklpJnlkXjRt5vKuGStGR7AeaJBi3elHAxXpZj48SCvC/ruNaAEOT1WSMQfwjERLiYskzUc6xnXD5DQxiWY2KOP439M8OzTWPfybEu/VM7g22X1Hda+6WzJuHifZHci385c02ysS/kmMOyz+Q9GatGR7gYj0z28D2tjQlUJhPRT6InXG+KFQsS13FREsACw4/5po4qixy0sRPj9avEyRl8qngwP5xJEDVEY56MhItEimE4M0+SFB3xYQFkQWe8rAivki9Jn/ETL9HBFemYPNfnxIsAvxW/PcvW635/lhlRyWOjGx+OaZB0MK9UyRLCImkZCRcHsnSsJyzb0ZVHxkspktQtzrRFVQc4qOUgl+Wc+YhJhVLyxjPjJDbME7EypiF5kO8QXR6McVq7Nq4PEnUNa/70vbePAMsT12nxu7OcWpZpYw5ZRties5yyTbcc7Bj9JsZr9kfsS/murD+sR0lhsJMYsdR50ggkJAJse9i/cuzKMay1/pTjU5I6tlGs69K/cSxK4sTJJFFTji7v0sdKfxzVmITxs71kXozkMLq4+YzhxBiIjBNiCvO2nyd7wvW2AX6d9C0J1+vEocNoBJIqAtYIV1J9l9fJNzsddoYibeRspXFW8HXi1GE0AhoBjYBGQCMQEwKyBIHEitsSkVxxyY1oP3HN6asQo5jSe9XnJIFcv831oiI5s7So+KpxJpR/TbgSCulXSEcTrlcAS3tNdgi864SLBk+kI+FZGyJIdkVcv5BGQCOgEUiUCBiXC1ClkPYPjMtoaPyKpOdtOUrDZLkC+0dOSL5NAvgqOGjC9SpoJZBfqqRwESOPmzdvJlCqOhmNQOJAQPTHWf5lwX/iyFnC5IILiakiwbUyNHkbX6qdCfM2OhWNgEZAI6ARSEoIUA2Qa/fZB9FYBrcmoVVAMZbxNt+F2h7U/uBBi4qUviUVpwlXUvlSOp8aAY2ARkAjoBHQCGgENAIaAY1AkkNAE64k98l0hjUCGgGNgEZAI6AR0AhoBDQCGoGkgoAmXEnlS+l8agQ0AhoBjUCyQ4DWtmjRi9YKedDi39tcI5EYAF69dQfmrVqPeavWvXTMX7kOd7/9v8SQTZ0HjUCyR4BtE62SUnVv7959WLlyFRYtWqT2vqVF66RmZfVtfjBNuN4m+jptjYBGQCOgEXjnEPj5wQMcOngQ8+fMRf8+fdGmeUs0adAQjerVR9NGjdGpXXtMHDceIdu2K9Px7xoBq9VrKLyXHoTPon3wWbwfvov2wmfxAfgs3IPirbrgxLkL71yZ0S+sEUhoBM6dO4uWLdugUuXaCChaHv4B5VCqdFU0atwG3j4F4e7ujtq1a2PlypWgsTcSM71FRNRf6a0QLnYely5dwoL5CzB92nTMmDHTcMwAN0fjIj3jMW3qNIMfk3/eM/rh9ZQpUzFjujG+mSoNoz9unHr//rdRo6KfaAQ0AlEiwBl5bpbIOrVwwQLsDg8HNxmPbu+hKCN7Cw9k34+rV66oTZUXzJ+PKZMngxs9P3r06C3kSCeZnBFgf8eZ4P379mHsqFGoXqkyfNzzw93JGS5588HTxRWerh7w88wPHw8P9T+/iwuc8+SFm5MTvN3cUefDWlg4bz6++vLLd2JAU7XPSHgvOoCCUzbCb1YICo1ZDr+5oSg4eQOKte2Bo6fPJucio99NIxCvCFBqRYNsNIzRs2dPBAUFgZsHBwcHY8yYMRg2bDjq1GkAj/yFULhIeZSvUBM9evTD7NnzMWToSLRv3xWly1RTh5d3YWTOnAMZM2aGY14nlClbHp06d8WsWXNx8OAhtcUJ+1ztgAQnXNxYl2Ym09mnQzp7B6SzTw+HdBnUkSaNPWxsbCId7733HtKkto/kzz5tOqRIkTKSP4azS5Xa5C8iTsadKmWql/ylSmUHZycXfPrpZ7oMaAQ0Aq+IADd49fH2hrOTkzpcXVzgmT8/qlWtirVr1yZqq3q0cLRu3TpUqVxZ5Zl5l/fw9fFJFFaYXvFzaO+JGIH/+/ZbdOvcBQW9feDp4ga3fE6KaOXNlRueLu4Y0bMTjocsx50Le3Dv4n7c/Wwfrp4Iwe61czGgcxA+KF0cubNng0vevPB0dYWvhyd6dA3Gw4cPE/Fbv2HW/vsPH/QYBt9F+02EayYJ1zL4zg1F4QjCdejk6TdMRAfXCLybCHACqHfv3nBwcECmTFmQK7czHPN6wCN/QRQoEIi2n3TDoiXrMHnKAkyfsRhtgjrizp1vzJsgMzwt544dOw5+BUqicJFy6ggo+gEKFCqFgKJlUbpMFdT+qBk+rNUEZcpWRc+evfH777+/m4Ab3jpBCRc/1ODBQ5Au3QuiRVKUOnVapEhhG4kYpUiRAqnt0ihSJoQsbZp0SGkbmWi9Z/MeSKBIwoS8pUvrgFQp7UCyZiRwKVOmRNo0L8hb7lyOOHLkiAEOfakR0AhEhwBnqqZOmWImKUJWjOcypUtjQP/++PLLLxPFWhS2O59++in69+uHwBIlos37vLlzo3t9/UwjECMClJJu37oNzZs0hbuzCwr5FYBr3nxwy+cMt3z5UK9GVYStmYNfrhzF83sX8O/9T/EPj3um49/7vHcBz+9/ike3TuPWmVBsWzoVnVo1gm9+d7jnc0LxwkWwYN68JCNVjhE0Cw/luw95Qbgo4Rq7PBLh2n/spEUI/VcjoBGICQHucdm6dWvkcXRV6oGly9RUxKhFqy74pH0vVKxUF7VqN0P/AWMQ3H0Q2rXvhmrVqiFz5sxo3LhxpP2uqNFSuHBRFCtRCaVKV8PIkeNw6tRp3LlzBzdu3MDevXvRrVtP9BswEp269McHH9RUmjGUrr2rLnNTBXYAACAASURBVEEJF3etFvJEckQCRWJlJEUkSXZ2qSP5s7d3QEorkqqUtqlekCz79OqaYY3x8Zpkjmkx7XTpTP7SpEmrCFnp0qUTxaDwXS2A+r2TFgJsZD/44INoSYuQL3c3N4wePVrNbJH0xNaR1NG/0ZCAGBPgvVdRT6A0btTIkWBeJF/RnT+qXfuV4o/tO2l/yR8BltHz586jRtWq8HBxRa3q1bFy2VIcO3QQlSqUR2FfT6yfNz6CZJlIlSJX987jHznunsM/35zBP3dO4Z/bJ/A84uD/53fP4LvP96J72ybwdHWGh5ML2jRvgT/++CPZgRuJcM0MQcExJsJVaPIGFG3bA3uPHE9276xfSCMQ3wiEhOyAk7MnAopWQNlyH6JK1QaoUbMpWrYKRpWqDVGx0seo8EEdlCvPNVsVUaVKDdjZ2akxdcaMGV/SAGnSpCkKFCyF5s1bKyLHvTONfT3766C27XDoyDl06ToAHh4FlMENtlmv0o/HNy4JFX+CES6CO3LEKEWKqCJoKdGipMok0SIhMqkY2qd1AEmVjU1kSRWlV5EkWvbpYZfqZYmWbQpKtF5IvhzsMyCNkqa9IHkkeF999VVC4a3T0QgkaQS++eYbeHl5xYq8kNi4ODujZGAgFi9ebHXtCduFX3/9FefPn8f69esxedIk9OndG22DgtCsaVM0atgQDerXR4MGDdQMW4vmzdGpY0cMGjgQc+fOVWuwuH6MqspGR9VBWlIqUbx4rPPK/FJV8qeffjJGpa81AjEi8M2dO2jdoiV8vLzQIzgYB/bswWfnzmHuzJko4O2Dod3b4f6FPYps/aOkWhfw793zilQ9u34Qz67uw9Mru/HsSjieXQ4znS2un14OV/cffRWGK3tXoEGNCvDI54SqH1TCrZu3YsxjUvJQvttg+CzchwKTuYZru1rD5Tt3F0i4irXtjj1HjiWl19F51Qi8dQQ4IVSuXDnYpU6LVHapQY0vCjMyZsoCdw8/VK5cD9WqN8aHtZqj5odNUa7CR2jWrDnSp0+vCBcNZPzyyy/m9+Dkq4urB4oWLY2qVasqP4xz//79Zj+8WLhwEWbNWYZRo6ehafMOyJwlB7y9vdGlSxecPHnypb47UuBk9ifBCBdZb+vWbWBrqRL4XgqkUmuvHMxSrbRp0yk1QaOkioSM5EskVZRWkZBRomWpOmibwlYRK4d0pvVhlKaRaPG+Mc4U76WAnV0aZd4ymX1X/ToagXhB4PSpU7GWFllKkpo0bqyI1dGjR7FgwQJ07tQJ5cqWhYe7uyJmlv5j+5/rsLj+itKpIUOGYNOmTWBasQ1v6e/sWb0gP14KTzKMlER/25atKBMYiDq1ayFk61Z8fuE81q9ejYYf10Mhb09sXjQFzyi5oqrgvQtKgvX8xhE8vboHT66E4cnlMNOZ11aOp4Z75uvLYfj53Bb0DqoPDycn1KpWHbdvJS7Sde3WbZw8dwHHT5/F0ZOncfD4Cew7cgy7Dx1G2IFDCOWx70CkI2zfAWwP34NSrbvAZ+4O+M7eBp852+E3ayt85oTAd9ZWFG/RMU4J1+MnTyLNyifDYqpfSSOg1OpTpkqFrNkc4eCQA6nsMsLW1h62KdPA1jYVUqdOA2dnTwSWrIwaNZugVu2WqF+/mVp2Q0MaVBUUx/E8DdS5uhVEq1afoGLFimpsTY218PBw8abOM2fOxJq12zBj1hK0a98L9eq3hq9fMWTIkAXUNMuTJw9atGgB+jt8+HCylNgLIAlKuJo1axaJ8FAqRTJkXnsVheogSRrJ1Qt/6ZU0zFLyReL1Yo2WiWyRvFmqLZJ0sXBJ2sePnxA89FkjoBGIBoHQ0FAYDU1YkpWY/pNcubm6vjYZiin+uHi+devWaBDQjzQCLxCYPmUq8uVxRP8+fXDt8lc4fugQBg8YiI9q1ERJ/0K4fiIEZokW12XdPIKnl8PUERPRska+jPcYz+8XtqFRjQpwz5cPFUqVUWaZX+Tu7V4NGjcJRTv0gV/P0fDl0Ws0fHuMhk/PUSjcrg9KtOqCgP6T4D9gEvx5lut+E1GsYSt4d+4J70494N25B7x4dOoO7449UKxeM+w5HDcSrmfPn6Pf6AmYNG+R3k/o7RYXnXo8I3D69Gkl3Hg/syPs7bMhTdossE2ZASlsHWCb0gGp7DLANqUdbFOmgoNDRpQpUwPVqjdElarV8O23L6x6U8ulTp06KFO2CmbNXor27TuDk5QuLi7o1q1bpMkLErOyZctj8ZL1WLJsI5o174SWrbqiabMOKFqsIgoWKoP8nkWQPYcj0mfIhFR2qZA3b15lfCs5rvVKcMJFSRWtCZJAyXouXlNN0FJSZZJo2Zv9kSBRoiUEiuJL6peKRMtIyJREyzayRIvxG9Pmei4SsmPH4qbxjuf6oqPXCLx1BKj2RzXBuCA2iTUOqiJqpxGIDgEOBkaPHIlCfn5YunABrnzxBTasWYM+PXujVfMWqFq+DD7fvzHCIMYF/HP3LJ5d26+I1rMrVBmMm4MSrwdnN6N2xdLwcHJGh7afJBpDGr1HjIXjuBXIPW0r8k1ch2yzd6lzzpkhcB69BEX6T4HPkoPwXn4MPvPC4L36NHzmhMJrw0X4deqPnLN2Iu/Etcg1dROcxyxHzulb4TRhDQq36hpnEi4St2K9J6DowBkYNWMuKO16246qX+fOnVOS+s2bN6vxCY0dJAVH65kXLlwA1+vHZj8mqpIfOnTIfFD74cqVK7EKG1s8zpw5o7SYLNXOYxs+ufgjaXJwSI+MmXIhY6Y8SJmKBCtDxDk9UtiaDkW8bFMrLTMv70KoVLkeSpWqjJat2qNX74Fo0rQN+vQdjlVrtmP/wdMYP2EG1qxZoywXGtdvcf10k6ZNUat2IwwZNgnB3QZjyLCJ6Bo8ENWqN0Cz5h1RvUZDFCpcFkX8y6NQ4XLw9imGfE6eyJo1J+rUqZuoJpDiohwkKOFq1ap1JCmVECijmh+vjUYulKELpRJoj/fee7H2iv6WL1uOL7/4Cq4ubiaDGBGGOGwtiBb9ktAZCZkiealMiwG1pcK4KEo6jncBgdWrVydrskUSOGf27HfhU+p3fAMEzp4+A3dXNyyaNw83v76K9avXoGvnLgju1AXVKlbEpQObFdlSFgi/OYtnV/dErM16QbQooTKt13px75WImFrrtRvPbhzBFwc2wM/TAx7Ozpg5dVqiWJDefehI5B2zFC7jVsFj+ELkmbYJ+UcshOOkdXAZsRBF+k1CgZkh8JsbjgIT18Jv0QEUmrAGPqtPoUCn/nCcvAEeIxYosuUzcAbyjV8F7+HzUSSOCBelW3XbdoTn2s/hHvod/HuNw8I169+gVLx5UBKWUaNGoV27dmjfvj06dOigrmnGm3u5xZej9GPkyJH4/PPPXzuJe/fuoXPnzmo/J+ab7xETyaFRJb6r5cG8xNWeiNxnivH/+eefr/1uySEg10vT4qBD+mxI55AdqdNkhm3K9Ip08ZqEy/Q/fQQJc0CaNOmQN68ran/UAnU/bo2Onfthy7Y9mDJ1Idas24FdYUewYVMYevToj+EjRuLUqVP47LPPMH36DAQGlkL5CrXQqXN/fFy/NerVb4M6dVugR6+hqFqtPmrXaY6gtt3RuUs/ZcRDzMv7B1RQe3+5uvpiwoQJyQF68zskKOEKCvrETIxoyt1SokWiFMnIRbqXjVwoQvZeCnjm98TDh3/hhx9+QgG/QipcVHtzGaVp3PuLFg+NaWvCZS4P+kIjEC0CG7SEK1p89MPkjwCNvJQsWhxjRo5UaoRLFy5EkwaN0KxxUwQWK47l00fh2d3zJsJ17xyeXd0bWaJFlUIayLi2H8++3vsGUq/d+OfuGTy5dwEPLh/GzpUz4eXqqkzGGxe3v60v0nXQMOQbsxSu41bAY/gCE+EavhB5SbhGmghXQUW4wlBwQgThGr/aTLjyknANXwAXWigcOANOcUy4rt26gxJB3eAR+h3c9jyAe+j3KN13Ir68eu1tQYYlS5YocjB8+HAl6bl165Yy/kPCQBISX2pWNHTANGjE4HUdJ+O4eS4H3Lt371bxcWuQ6JwQLpoQv3btmgrLd2deLNcCRRdPdM804XqBDiWK2bLlUmTLLnUmM8Ei0aLEK2WqjLBL/b66byZgtvbInTsfqlZriBo1GiPok+4YOmwSJk6ap4jXkKGTMHHyPCX1at2mKzp06In6DdqgSdMOqFO3NT6u10aRtVq1W6Bs+VqoWr2hWiNWqnR1JeXq1Lmf2q+LhIuSrgoVP0LJUlVRrHglVKlSM1FMHr1A8M2uEpZwtWmr1l4ZyY5ItKgCKEYunPK5oHmzFti2dRsCAwPN677EyEWmjJkRHrYH/zz/D2Ghu5E2rT2yZ8+hNjTt1asXaE2FqodGosVru1RpXrJ4SJKnVQrfrBDp0O8OAm+6hiuxqhEa86XXcL075fl13nTZ4iVwzuOI4E6dUKl8Bbg45lX7bXm6uaOgd3789vXxiD21zuPp1/tMa7aukGTxCMezG4fx9M4Z3DkXjgu71+D64XV4ejk04rn4i/n8/OZRfH1sO+pVr4xCPp7w9/OGa14nuDk5Y8jAgZHWUrzOe75pGBIuJeEauzIS4aKEy3nEAiXhKjhzO/zmknCtMUm4xq+G1+qTSqVQSbhIuEYvh1nCNSzuJFwHjx1H4RFL4LrnAdz2/gz3PQ/gtfoz1GvXBb+/BWkIJTqUEHXt2hVcJyPuf//7H0hChg4dqtbS0HjBpEmTlDU4buI+fvx4pUb6ww8/KHLWo0cP9O3bV42HhHhTvY8GCUjaSECGDRuGPXv2KAkU19+MGDFCkRwSoJ07d6qkb968iSlTpqB79+4YNGiQsggbndSJ6uaUbFGlMCQkRMV39epVeQ2rZyFcly9fNj8nKSDhWr58uVItpIXbeYY9537++Wf1/hs3blRhaC0vLCwMgwcPVtgxTqPhIyFcVF3kewwYMAAbNmxQKnDmRN+RC5YDGpZKZedgkGhlUAY0SLaEZKVOYyJdJGI0rpEmbSZkypQNAQHlULJUNWVCnoY16tVvq6waflCxDkqXqQ7/gDLK4qGjo6uyRkiLhCR4Ts60ZlhemZ2vVLm+ClOhQh0UK1EZlavWQ/UajVCu/IdqXRclXBUr1kVw98Ho3LU3aIU4ubgEJVyWRjNItsxGLuzTI/P7WdG//0A8ePAA//xj2reHlYj+XpiMT4+yZcrjr//9jWfPnsPX11c9L1q0qKpADPfwz7+wds16uLq4K4karSAyDuPBdWBiWj4pGc3gDt+cDaLVGB5sNI16s8mlYOr3SJwIUB8+tntaGUlMUro+f+5c4gRf5+qtIxC6cyf8PL3gls8J+XLlRskSJTBx/DhlBn7/7nA453PGpQMb1UbGyhKhkmaZVAZJuJ7fOYm/b59Bn44t4eGcDx7OTvDzcMeRNZNfIlw0kGEiadbPjKtFvVrw9/FEySIF4eyYC66OeVXePF3dcNcwaH8bwL2QcK2Ex7D5SsLlOXwB8k5aC1chXDO2w5eEa/xq+C3cj0LjVsFn1UmTSuGk9SYJ1+hl8B0wHU7jVsJ76Lw4Uylcv207CswOh/uenxXhEtJVdPA8ZUUxoTEjSSDR6N+//0trmLiuiwf7epIT+qOBAp5JIkg6SLz4f9q0aRg3bpz5mu9BVS8+IxlbuXIl+vTpo/4fOHBArRcTNcaxY8cq8sI1YxI/91YiSWF4ho3KcY0Q/XTs2FGpQ06fPj1GiZw1wsUxDeNZsWKFIoQcA5JAknjSfffdd+o535OOkjD65zYhJF58RxI/IZtCuPg+tI4r73Xw4EEV/l37oZSUBN7WNjVsI9ZtUbpFtUKSLpIskyGNFyqGqewoDSNJs0dqu7TIkOF95M7thOzZcyN9+kxI55ABqVLZI4VtOuXP5JfhGYZHGtBCIq0SFixYQu39Va16E1SuQvLVFCUCKyOwpEmqFVD0AyXpojriwMHjULJkSTx5/DhZfKa3Qri4RksIFNdo+foUwNgx43D9+g389x9UJT1x4oSqRJkyvm+x9iodZsyYqcSM27ZtM5MoSrRq1qiFjRs349Ffj5X069dffsPSpUvV3gNCtijRojTNuJ7r+PHEv4ki9bfZiGTJksX8zmIEhMRywIBByW6BYbKoYcnsJe7fvw/vV9iHKykRLebVz9fX3FEns0+nX+cNEdi3Zy8KeHrB3ckZH5Qrj6ULFuDi+XM4evAg1q5ahSkTJ4FEZ8OCiXj+zZmIvbQM67NuHsHNkzvR4MMqcHXMg0qlAtCh8YfqWDymp5JyvcoarsdX9+L4+hn47cJWPLwYgmt7l2JsrzaKwDGP69asecM3jjn4nXv3cf3ON6bj9je4evM2vrp2A59f+RrNu/REvlGLkHPmDuSevhXZ5oapc/Y5u+BMlcI+E+C18iS8aCxj2RF4rj0L76WH4bXuPAq1743sc0KV/9wzQ+A4ZRNyztoBx2mbUbhFJ8xdsQZfXL2GKzdu4trtO5Hy8OvvsdsIetm69fBbcAjuew2Ea+/P8NrwFToPG5PgqkycSCVx4ERqdE4IF6VhVNnj2iSeGXbGjBlq/MR9CAcOHKjGDL///rsyCU6pDkkRJ2337dun/C9btkwlZalSSGkV46NUiGt/fvvtN0UESQatOfqhZIxjFIYjoSNp4x6nTJdSKWtOCBfJ4pw5czB16lRF2BgHSSLXgMVEuKiGyfVuHA/y/YgPseQ1nRAuSt7oBGdKzt5VR0kXv1eBAoVhUi00GdCgEQ1Zx2U8m9QMXzyjJIwkzcEhG1IpkvbimSlcBqWamCFjTmTImAtp02aBnR0laGmQwjalknoFBlZWGy+XLlNDbbZcIrAKipeorMhWlar11Jn3yleoiREjRiYLiWSCEq4WzVsgtYHsZMzwPmZMn4Xnz54rosWGgHq81apWi9LIRebMmc2LH2vXqg1ubmxUHSSRohGNHTt2KHv+bAh4cCbH28snksVDStco6Ursa7hu374NR0dHM9EieUxlxQiIq6sbbty48a62Ifq9EwABdoAf162bbA1nVK9WTc0Ws83QTiMgCPz266/wL1BQka0GH3+srBIe2rcPo4aPRHDnrujWJVid/bw8sWzqcKVKSIMYIqF6dmU3ntw5jaZ1ayoJ1MJRvfC/SyERa7vCzf5e+H8RVu7F9hy6aAw8nZ3Ru3sPyX68nT9q2wmBTduiRLOIo2lbFG8ahKKNWqNEnUYo/nEDFK9TF8V41H1xFK/bCMU/qoeAOrXhX6c2Aj6Scy0E1PkYJeo0RLE6H78IFxGecQXWroeiDVqiWJM2KN4kCMUN6Zds1BqL15pUzWJ66RXrN6LA9B1q/RalW+rgWq6w75TJ+tD9B3Hu4iVcvn4Dd//ve/zw4Gc8+OVX/Pb7H/j777ifcefSBhINSqwstVZIoDg+Mkq4Jk6caH7F7du3q7AMT/LBg9c8Ll26BIan5Ijkhc+otshnQjqMhIttHyVdEt4YH6VXlo7+KVmif0rK5s+fr64pgVq4cKFKi+qO1pwQLkqdSIy4JIR5pLVCxhsbwkW/JJ+SX6pAcrwn692EcJF40nGNGf0yn++6++mnn+Dh4Yms2ZyVIQ2RcAnZMlkyNFkvlHskWzyoaiiHqCKKH4nn/cx5kClTLmR6P7fZSIeSeKWwUxsvu7n54IOKdVG2XC21ZotqiWXK1lRGNCpV/hj+AeVRxL8ccuVyRsGCBdUaw+jUWhP790xQwhUU1NZMeGgco2hAUXOlIFA0LUmJVmQCRZPxL4xcsBJzLEQSQhVEo6SKmxiLJUMSqaCgIDx98lRJu54/+xfz5y1U/km0jJsgvwnhopifOsecneHGbdQ1pllTqexvWgAo2eK+BCKhM5q1FwuORiMgfn5+cWbd503zrsMnPwRYrtkhJjXJ1avkt1/fvi+p9CS/L6nf6FUQWLpoMdzyOqHKBx/g/OnTWLNiJXp374luXbuhe9duZsLlRQnXvLHKKEYkgvT1HuxaNRP5nZ0RvngcHn+5y7ThccSeXGpvrmhUCGNSLzQ+//vLXejdthFqVqn6Kq/4Wn6rdeqFbHNDkXvaZmSbGw7HqZuQa2YI8k1cC58OveA9MwReq0/Be+kReG74VJ3zrzsH35nb4BM8HLlnbFfm32n6PdecMOSashE5FuxF4c4D4bn+vCncyhPwWbgPnoxnySEUbd0OOadvRq7ZO5Fn+hbkmh2K3FM3I+ecULiPWoyFK1fF6l3CDxyCf//pcNv9k1mlkMYz3MJ/QNE2PeDfpgc8Bs1GnombkGdGOPJN3wnvCWtRvt94NO3WB8s3bsHTZ89ilVZsPFEKRCJAwkCT2uJItGQNFw22iISLqn7iaD6eYVetWqXGHxyDyPHHH3+ABi34nGp6nNS+ePGi+h8V4RIVQ45tJB45S5py5hhI1PhoZZEkifEyPZI1qjdSomLNCeFiOpTUUW2Q8ZFs0QnhosRMVAo59mPcolLIPomaFySNJKGUsjFdTrrTCeESK4VCuDhW0w5K+pkrtwty5HRD9hyuSJ8hJzJnyYus2ZzMqoUmlUKxXiiqhiIVM/0XciakyyQtM/khMUuZMmMklUWqJ9ra2ikbDFRPLFykjCJfpcvWRPHAKihbjmu6qF5YDjSo4eZeAA4OGVAiMFCpwSbFb5fghItEiwRBCAQbDZoT5dorGsG4eeM22n3SQa2/otoh9+0Svzlz5lRE6/Hjp6hbp57Z4iGlZrI3V7p06dSu1zt37MSzp89VnL/8/JsyrlGoUBGktE1pjo/xUi2PMySv6iguX7FiJXx9/SKRN8ZJC4xly5RDaGiYeS3aq8Yv/tnQEANiZiSiygiIXepI+DBtqkyyEZMGS+LRZ43AmyLAMrV3z55kv4aLGzNv2bLlpVnmN8VPh0+aCFCq0LVjJ3i5e2DL+vUI27FDSbNItOSghKtLx85wzpsPp7bMU8YxSLiECD25HI5e7ZuizycN8fSqaePjSIQsgmyJf2PYWPsT8nYlDPeOrEFgkcJ4Gs/7SlXt1Bt5Jq2H+7B5yDNlIzyGzIbrmBXw7jcZfu27wXfGNvjOCUWhyRvgu+QQCk7ZCJ8Fe+E3bRO8uw6Fx6ilcB2/Gu5D5sCZ8QyejTyzdqBwl0HwWbQPBSdvgN+s7Sg8Zhl85+xC4UnrUbRVK+SZtBbOE9Yg//CFcJq4Fu5D58Fp4jq4jVoSa8J19eYtlGzaFh477kWScrnu/glZl59Fqg1fw3bzDfORYvMN8LDddA1ZZu9F6Y8aKvXJuCzVkydPVmSCewFyXMQJ102bNql7VLujs0a4eI8kg5IpEixKcxiOk9iUCDDe4OBgtf6JhEYImiXhomSIJEfS5JljHUqoaKSCkjRLx/rBSTiSIBI5EhvuIybqhSRCUY1HhHAx/9YciRoNfVAiR6JIUsp1WEbCRaxI6u7evavabKpBGp9rwmUN2Rf3iKmTsxty5nI3HyRfufN4gJskU1plny4bSLrSpM2sVAV55sbJadJkUf9pZIN+uA6Mz9JnyKHCprXPCh5p7LOaN1mOvD6M67vSKuLFMW7WrLmUhcIqVRuiWvXGKF2mJmiQg5sk05hGwUKlkSVLTqROnVoJN+JKsPECjfi9SlDC1bx580hkhwSBa69yZM+Fnj16g8SIpOv5839AFQ7qIJNAKCKRwhadO3cFJVVnz5xX0i2uxTISsgoVKoBmVJ8+eYbnz//F47+fYsniZXBzdVfiS8ZjPJg2JWSvajSDizELFSxsJnkSJ0mfGAFhvFSZrFa1+mtLnNhIUQ2S5EokeZRq2UXsHybp8sy0xV/JwNLgTJN2GoG4ROCbO3fUGqdXkRYlVb8kXVxDoJ1GgIO+pg0boai/Pz47fw7DBg8xEy0j4Wrfth0K++THj2c2KaJF8iTH48uhWD6xH77eu8xMwoRUiR8hW8b/ck/8ylnuR/IbQbieXA5T0rOPKpUB62x8OhPh2gC3YfORc8omeAydC9exJFxT4Nu+G3xmbFVWCAtN2QjfpYdRcOpGeC/cpwiXT9dh8Bi9zES4hs6Fy+QNcB8yG44RhMtv8QFF0PxmhqAQTcPPNRG3gFatkJuWDiesgceIRXCZuA4ew+bBadI6uI5aggUrYifh4mCtSZce8Fl42Ey4aLHw/ZC7SLX5OlJvuo5Um28g5abrSLnphrq2i7h2HLUC7fsOilJy87qYU1JDtT0SBp5pZp3XJEt8RmeNcHGsQIkN/Xbp0kUdvOY9PqPFP4mHBii4rxf/UzOHjpPO/M/0aHyCKohCokh2RGWPRM2aY95IsHjQP/POa+aF/0kerbmYCBfzznX4zBvjZD64joz/RcJFy7n8z2eUDvLMtDkWpNOEyxryL+6RnLu6uirplpF08Tp7Tldkej+PUjnkmURM3c/hipy53JAtuykcJWNUS+Q9Ps+dJz8c83ohbz4v5Mrtocgb/WTMlPulNWIv1pA5IEWK1Eq4kDlzdiXtoil5mpavWKlexAbJJmmXi4sPUqdOo9Y7JiXSlaCEy2il0CSxSWcmEvb2DsiT21FVeFpCY0Xj0b9ff6RJbY/cufLg3r1vFSHr1asPbC0kVf7+/vjrr0eKkH1z5x4mTZyCAP9iSh3RxiAlI0GjBIoWCkleeLwK4eJsUY0aNSIRN0sjICRHzLPkkY3O6xSK77//ARnSZ1J5JD5UJ6RpfCPRomqkpRGQ7NlymBvnF9VKX2kEXh8BznK2aN48WasSWpLDJo0bq9ne10dNh0wOCHDGv17tjxBYrBhCQ0IQ3Dn4JcJF4tWyWXPUrlgGj78Ktbq3FokQzb9bNYyhSFI4jqydBqoEWvVz5YW1Q8vnVEn869Iu7F02Xq0He341HG3q1cSpEyfi7RP899+/qNShJ3JP2gDXYfOQc/ImuA95Qbh8IgiX75wwkHD5REi4vBeKhGsY3EcvhQslXEPnwnnyekW4KOEq1HkQfBftjxXhcrYgbCcU4gAAIABJREFUXPOWrYj1Ox87cx4l2/dB/i3XFenKtvNb2JJobaIky0SySLZ48L7txq+Re/x6NOjeH7/+ZloTFOvEYumR62po0IBkiYSI0nbjpsfy3Gj6nFHTUiGlOzSEQakPDWOIGh6lTpRO8T4JCtUUeaapeEq82L7TmAQNXMgSC0rKmA8apWCcNGQWlWog0ycRXLt2rVq3xTxTcsL1Y4yDEi9rjkSPz/lOUTnmjft60UIi14oxX7t27QI3a6YjOaThMz7nuiyqT37xxRfm6Lh2jWnQH93333+v/lONUTuoyXlvb29kyepolnCRNJFcObv6Ir9nYWTL7oJs2Z3VPd43ES8SLmdF1PjfydkHTs7eyr+rmx/yOXkrsuWY1xO5cptIGAkY41JGNFJnUiqLVDc0qiHyf9q0mZDWPj0KFCyBD2u1wMf1gtCn70iIBUPu1+Xk7IWMGTOpMpFUvmOCEi5KuEhCjKpxJCdUCTSSCF5XrFgJYaHhKFWyjCIcXbt0U2TrwU8PYG9vb/ZPlUCqHjrmyYdtW0PQr+8ApHfIiJS2L9QWJW6SPG58LGufeE0p19EjsVMppOicsyUSn0rbYASE70IiJ1I58UfCt3TpsijF6lEVlmNHjylCmib1y/uHMW2SOiGNTFuMgDD9N9kxPqr86PvvLgJUNaHUx5KUJPf/VLnhxI927y4CHKh9WL0Gypcpi1nTZ6j1WiLZMp4/rv0RhnZpjmdXw5WESaRRPMt1JIlUxP1nV8Lxz80jeH7vHMYN6KLUAZ8Y9uWSMH9d2oENMwbh0Rc7I8d3OQzPvt6Hv2+dQtvGH+HHMxtBwtWnbSOEh+6Ktw/HbVkqtuuGPBOpUjgfuZSEa46ScHn1N0q4QhVxUiqFUzep9VhUKbQu4ZpjlnD5KgnXJvjNMkq4NoISLqoUukxYqyRcJFxUaaRKISVcsxYtjfGdWaf/fPgQKzZtRdn6zVBgwlo47vpWSbFItEiuTESL5Os6Um24BvsVn8J94Gw06NQdt++apE0xJqQ9aAQSOQKcUCpXrhzSZ8hilmCRcPGgdMojf2E4u/giew43RZxcXH0Vmcrj6Kn8k0zRX648HnB28VGEy9OriCJrJGEe+QvB3aMQ8jjmVwdJF6Vd2bO7mDdZJuHiGjCT2mIWZM6SDzlzuSJ16gxwdfNBteqNUKduK7QJ6q6sF5Jw8cjj6Apvbx812ZDIYVbZS1DC1aZNkFmipYiWXZqXJDZUjTNKbBzsMygisWjhIrUeitZshMiIAQnGReJBIkeiZVQzpF9LaRr9MyxJC5/LjE5MH4wbDmbKlEmFozhTyBvT5to0kWhJ/nim+h/z5V8kwGxdMaZ05PnFzy6+jM97kfFJZ58BaWgExCDxS5MmjdJ3lnj0WSPwJghwhrF8uXLvHNkimQwsUSJKk8ZvgqkOm3QQIOGqXqUqKpavgFHDR1iVbnXvGoxqlSph+fjeav2WkCQ5R0W4+Pz5zSP49/6nau+u3WvnYs2UAWZVRAnP8++fbUe5YgXx9b7lkZ9fDsM/35zB83vnMapPJywc1UNJ0sb3aYstEZvDxgfatNRXrk0XZJm/G7lnbEPmBfuUEQsar8gzeT18OvWG95ydysy718oT8Nx8Cd4rTyL/xs/gO2cHvLqPRO7Zu5B9bhjyTN+K7Av2INe0Lci2+CAKdxkM940XocKtOQufxYfgue4cfJYfQ0CbdsgxczuyzwtH7pnbkWXebuScsQ1Z5++Gy5ilmDZvodXXJcl6/PgJvrjyNWYuXoZmwb1QtPsYeC87Dcdd/4fUm28gzfrLSL/8LNKvOK/OmRccRZ7xG+DVbTRqdDIZyoit2XmrmdA3NQKJDAHWC67xS5Mm3UuEK0dOE/Fy9ygISq0orSKZIgnz9glQUi0XVz/wef78hdQ9Xnt5F1FGLigdo7ELEjaP/AVBvyZJmI9SPyTxMhnbMO0D5pA+h3m9GK9Na8IyonCR0qhRszFatuqCqtUaKCMaJFy+fiWUxtrJk0lD/T9BCVdQ0CcREpu0ZmuCQk5ItEhijBIbo1oeLfVRLzdDBm6wZheJuFGqlCqlnZmISZyRpWmUPjkoaZg8l/ORWEq4QkJ2RCKDJqlSZCMgjJNEzkTyTNI0vlOWzNmUyP1V6hrVAESaZyKiJHkmcmlK296qERBHx7zRiuhfJQ/ar0Zg+7Zt7yTZIuFydXHB/n37dCF4hxEg4apWqTLKBJbEiKHDFeHq1pVqhS8OGs2oXL48whaPUeqEItWK8Xw5DM9vHcO/9y/g33sX8OMXB9GkdhV8vXfpS6biH3+1C73bNMCMwZ1Mz6iiSCnZ5XD8c/ccnn9zFlcPrkPVMkXx6/mtmD6oE9bHwV5cfz78H/YdPYGtu/dj9fadWLR2I6YtWo6B46cg8ONmKNChPwp0GBBx5nV/FOg4AEUbtUHRoB7wDx4G/+ChhmMYirbtiaKN26Jgxwj/DG++7ofiDVsjIHgYiqiwwxDQLSJ81yEoUb8lCrft+cJ/RDi/Dv3h37wT6n3SBRPmLsLEeYswYd4ijJu9AIMmzUCrPkNQ8ZPuKN6hH4oMnQ/vNReVGqFj2PeKbFGSlWfUSlRp3AItuvdFu36D0H3QUEycPVe9/6O//36Ha4F+9eSMANU/s2bLhixZ876kVpgzV37kdSoIZ7cAuHqWQB6XosjlHgjXQlXg7F8TbiU+hnuZRsj/QXN4VmkDT57LNUD+krXgHlAVjp6l4OpdGq6egXByKQIXV384OReEq3sR5MzliWzZ3ZAxkyPSZ8iNtPYm4xyUdFG1kIQrrX0W5MzphJofNsagweNRr0Eb+Ad8oEhXwYKllIYc1ygmBZeghKt1q9YvES1LtTwlLaJaXgqTsQwhRTwriZb9CwMSJB00GW/0w2taIiQJM5ITZfEwQqIl/kUtj/q/sXGDBg42x6mkaSkjWzxkvMwPn0nafB+Rpm3dujU2yZj9cOahdOnSkUieCR8Hq/iY1qY5oGaND/XaEzOK+uJNEeAi5OSuOhjd+33yySdvCqEOn4QRUISrYiWUCAjAhDFj0bxxU9Sq8SGaNmyMzh07K+JFwlW14gfYu3zCKxOup1d249nNo3h++ySe3jyKWcOCUb54YTy8uMOsmijE7fj66Sjk5YH/O7E+EiF7eGkXHpzbiq/CFqGMfwHMHtpFHXFBuC5dvgL/rsORbfYeZJ+9By4Lj8B7KU29mw6vpSdh9VhyEt5L+OxExGF5HUW4pQx3yiJOieOEStdqeircSXO+VP6WReRx5Xl4br4Kjx3fwCPsB7jv/klteJwv/Aek2WIyjPHepuso0r4fTl+4iL8ePcLjJ0/UmiX2w9ppBJIzAizj/fr1U9pSlDqZVAS9YOdeB7ZFWiNt/vrIULglctfoDrc2E1Bo5FqUWXEaFUNvo9qRB6hx6iFqnH6Emmceo8bJR6h27CGqHfkDVQ/+gir7f0CV3d+i4q47KLv2EkovOYVi03aj8PAN8O29BPnbT4dzo5HIU60HspcKQgbPD5EuR2nYpvVCyrT51PouB4f31f5cH9VpiWrVG6Bc+Q9NhKtQGaRNmw4zDVskJObvlKCEy2g0Q0m07F5Wy6NkSAiR6fyykQsSGiExRr8kWlzHRFLCgyp/JFo0amH0p4xcKJVAk7QotkYzugV3V0TOKslLmUp9eCFaPHN9mNHIBc2qvqpbt3ad+X0sTerLO1G6J0ZA3s+UBYcOHdbrTl4VaO3fKgJcJE21uugISXJ/5uXpiQcPHljFR99M/gjQwEClcuWR39UNAQULwTmPI/LlzgXnPHng6+GB6pWromunLqhd80OsmNgXXJMlBInGLXgtRi7kvvl8OQxfhi7E3qXj8VnIPNzYvxx7lo5HfmcnzBvR7SXyRoMatT8oiYbVy+O3T7ep59f2LkXZooWR39kVro654evuhrVTB2DeyG7YvGH9G3+g0+cvwHvQXKTYdAMpNl1Hjp3fKrLCjYLdIw7La8v/Rn+v+0zi4Dm2cRjDuO99AB4MyyNP6HdIu/mmskhIS4TZZ4Sj06ARgOZXb1xmdARJDwEaZvn4449h75ARufK4wj1/EdiW6wWbxddNx/zLsJn5GWzGHIbNwFDYdFmD99oshF3bBUjXcQne77YKOXutQr6+a+Daby08B62D3/DNKDgqBAFT9iBwwQmUXfslKmy/hcCFJ1FodAi8B6yFe69VcOywCDk+WYz3my+CQ6P5SFVzJt6rNhMpnOtFGNRIBxcXb1Su/DHKVail9uji/lyFCpcGDcqtW//m7VxCfLEEJVytWrVS66tIgrj2yESK0ivALPfHIpngeiySK/EnJEaIhpxJaoRwiF8SL1mjJf6UNM0urVn6xPgYf2wlXF06d4lE3BgvJXGWebRmBIRpR2VSNaYPHdy1m1VT8Ea1RSF6AwcOiik6/VwjEGsEzp87p9Tqkjupiun9QnfFn/GBWH8M7fGtIPDTDz+ggIcn3Jyc4JzXET3aNcOGhZMxtGcH+Hi4wTVvPlSrVAWftA7CgA5NTYRL1P0iCJeZYBn+c10WydnUAR3g4ZQXeXPmQM6sWZA3Vw54u7niwKpJLxEuxrN51nC4OubFumkD1fMnX4VidI/WqFm+OPq1a4Sre5aq+4tG98AOK/smRQciZ7otJToHj5+A99CFaj8qEpNsO++bzKhzk+A9P8GDZ0Vi5GwiNEJsXj4zHI+f4UFJU9j3cCMRMscTVXjGbzoYhlIq+W86RxXOeN+UjqMiW2Ly/Trs1l9BoaBe2HvkWHTwxPszWjO2PCy/x5tmgvHRAFhcx2vMF9+Bk3XxmYYxPX0dNwiwXHDLgIwZMyJfPnekKBEMm4VX8d6ir2M8bOhHyNmSGyaStuAKbGZfgs3EU7AZtg82fbfDxr8dbFruhE3vS7AZcgs2I+6Zzv0vw2bUd7Bpvh02Tdare+/5tFGGNRzSZ0PWrLmVoYwyZWuqPbm4GXLpMtVgb58Ox4693XobW/QTjHCx4nHDOpITIQe8JmmwJEapIiQ24o9nk0TLwiS6bUplqU/8kWyZNkGOLNF67z2uD3tBtOhPjFxwo2TuQxAbx/0ghLyRDDIOSVvlMRojIDTvfvbM2dgk85IfmnsdNGiQed8va/hkyJBRLXwUM7AvRaJvaAReA4HRo0a909ItIWIjR4zQg4fXKD/JIciiBQvg7uSEOlUr4Oqx7Xj8zVk8uXsOT++ex2d716OQtycKeHqjY/sOqFGhDGhNkMRIpFrRnenvh1MbsHhMT3RqWhst61ZB52Z1EbZoDLhmyzIe/n/4eQj6d2gCL1dnhC8eqwxkUPL15+ch5jA0P79kTE/s37v3lT7B/mMnsHlXOJ48fWoOt2vfAXgPnK2kW5RwZQ65q4iOe/iP8Jl3AIWGLoDHrv8zkDBrxEtIFqVMPyui5rX2Eor0HIeAjoPgueZzuCsSJsQrchwvnv0Er+WnUfSTPijSdyo8N1w2ky76Uf4iJFiRSJj52QPk3nITHv2mI9uMUKTc+LV6rywzw9GgS29lVMP84hEXVC3ctf8Qzn72ueWjOP8/e/ZsTJw40XzQmAHNsnNT37hyV69exZQpU3Dy5Mm4ivKleGjSfsyYMfjtt99eeqZvJG4ESLq40fWRI8eRNrAz3osl4YotKbMp1Q02fb+ATetdsAkKhc2Aq7AJPgWbtntgM+4n2PS4AJtup2Ez5AZsPRqCmypzD7CMGTOjdNkaKFmqOooVr6RIV7Fi5ZEmTVrcuHEjcYMakbsEI1xMj8SmSOGACLW8yEYuaFnQJNEy7Y9FAkNCptZeGfbREqkSDWoYyQ4tG1qu+yLRIlEz+jOq5ZHocXPl2LrPL34Oh3Qm8+skbSJNI5ljWkLGeDYZAUlrVgd0d/N4Y0MW3HeiceMmCPAvCjdXD7i5eSjrhy1btoTeUyK2X1H7iy0C//37L2pUr/7ahMspXz44O+WDj6cHihcugHLF/VGhRAAqlSyGD0oEqOuyxYqoZwEFfeHn5Qnv/B7wMJifZxxyCPlxdXaGl4e7ireInzeKF/JDmYDCKF88QMVbpXRx8GBaZYoWQUABH7i7uqh4JI5XPX/Stq2aFY4tdtpf8kCAk11cu+Xv64vrJ3fgxy8OYFBwEBrVropl00bg98uHMLpvF6VmWL/Ox/DzzK/UAkmMojso3ZLncs2zXMszq+fLYWpz5Q/LB6JMQAFc37fcqiRszvCuOBXLQTVNvG/YEYoK9Zuh1EcNENRrAMIOHMblazcwa8kKFOg8DOkXHUeG+YeRe9ZuFBy3BkXb90dgrfoo+WFdFG3XF36Tt8B7xVl4bryC/NtuIX/IN6Zj+23k33wNnus+h9eSYygwcRMCuo1CYN0mCKxVDyVr1UNg3cYo0n8avOfvh9e6L5B/6w3kD7ljOrbegNe6z+Ezdy+K9J6MwI8amtJluI+bwr/HOBSYsgXeXCu27pLaUyv/9tvw2HHXFH7bLZUn7+Vn4T1+HYq0ClbhA2s3QIF2/eA8fCkKtemJcbPn45fffsdvf/yJ7378SVkz3LgzDG169kOpjxqierMghB86gkd/P463ws1tZ9q3b68mWIcMGQJuUsz/3MvzypUrcZIu98TiRsE7duyIk/isRTJjxgwMGzZMEy5r4CSRe7/+9gfsi3XAewuuxCjdig3Zoh9KwWwKdzARruCTsGm7Gzb9v4LNgCuw6XQYNuMewKbHWdi03w+bYXeQxqkmsmZzUmbkHRwyonTp6kql0D+gAgKKVkD58jXw/vuZ1V5iSQHWBCVcBITEIFOm9yORE+4bZZR8kSBZN3JBk+gmoiUkigSK5MZIdnhtp9QW05vJFuM3mk6nn2LFisVausW8c/F0qVKlzUSLJM+SaCm1RbM07YW5+jat27zWgI17JBgdRfXc+O+nnx6odSW85owE3b///vdaGywb409M19FtspiY8plc88K1KwH+/q9FuEiSqpcNxJz+nRA6fQj2zR6BIwvG4NjicTi+eByOLhyLw/NH48DcUdg7azj2zBqO8JnDlN/tkwZi4/i+WDe2D1aM7IGlw7ph+fDuWD26FzaM64vNE/ph59TBCJ8xFHtmDcPe2cNxYO5IFd/RBWNU/CeXjMexxeNxaP5oFffWSf3Rr3VDuLm8HvFq2KBBtJt+Jtcy8K6/17Wvv4a3uzvGD+ymJFpzx/RHcIu6yJsrF1wcHdEzqCEu71kGLxdneDo5IXf2XDixfmZks+0RREoIVZRnbn4cS7+PL4fh0q4F8HRxRmEvb9w9usYibDimDeqIK5cvx+oT3rp7H+tCdmH11h2mY0sIVmzcgskLluCj1h0Q+FEj+DdsCf/6LRDQoDUCGrVFQMM28G/YRp0DGgbBX91rjoAmQfBv1R3+Qb3h37Y3/Nv0gH+z9gho1BIBjVqZwjYyhm2DgEaMJwgBjRh3S/i37GIKH9QLAS07I6BRC5OfRkGGNI3hghDQsBX8G7dEQLMO8G/TE/5t+6BIUC/4twpWeQqo3xwB9VsjoH6riHNrBNRrhRJ1mqBB+2As2xqCXQcOI/TAEezYdxAbd4VhjeARcV63fRfOXLwUb9JuEq4ePXqojY4fPXqkBpLcRJgEacSIEZG+JaVHXA7Bw5qWDvtPbkbMPTlp8VicJeGi9tHDhw/VIX0uxxkMe+bMGfz6668SVLWBtGjH+OiXJJDbhlg6bi58//595YfjE+aPafCa8XKLHabLOK5du4bbt29bRqHI2qeffoovv/wSxMLSffvtt7h48aLa3JmaPcyXcbzE8dqFCxeUH15r92oIPPzfI2QM7BS3hIsqhgU7wqb3Rdj0+Rw27ahm+IVJytXpCGzGUsJ1FjZtwhThcshbWVlN5MbKXKvVsFEQuvUYjFZtgpV64cDBo5E7dx69D1d0n/arr75Sszbu7h7IkiUbsmXNoY6sWbMjU6bMcHBwUObQaRKdh4NDeryfKbPZH/1nzpwV6dNniKSOSLJjkmiJOXbTRsRUwbOzs1NxUTc1MDAQ06ZNs9pQRJdvPrt16xa8vXxekqZxHRlJnn1aE8kyqS3aK5VJWhpkYxAbx0aIDUyvXr1QoEBB5MieC8WKFsfMmbNUw8SG0OikUZ08eQoC/IshT+68KFumHAYNHASqDiQ19+OPP6qd6rt37646Ge67NmvWLKsN8tt8N34fdo5syNnIsxP77LPPzOT3beYtrtImmffz9X1lwlWrQiksG9EDV7fOw/29q/DzsU344/Q2/O/cDvPx8GwI/jyzHb+f2oZfjm/GT0c24LsDa3B/3yp8s3s5bocuxc2dS3BjxyLDsRi3di3BnfBluLdnJf5v/2r8cGgdfj62Eb+d3Io/Tm/HQ0MaTI/p/H5qK344vE7FeWr5JPRt1UBJ0UwSOKdYvV/tWrUideZxhXF08XCAMmDAgCgPqgVZcxxksGy+7ppRa3G+6b1nz55h+vTpL73LyJEjsW7dukgDwpjS4uw5348DLg78JkyYgJkzZ4JpWHO7du1SEoPXaQ8vnD2rDGPsXDULz++ew+8Xd2H6kM7o07YxtswZgcBCvrh1cBWm9OuAyf3bY9/y8fj7S9PGxFalUwbJ1ps+Jznbs3Qc/Nxd0KxWRdw5tMps1ZBqjKN7tIkTYy8379xFxaZBcBi1Eakmhqkj5dzDSLnwGGytHKkWHrN4dhy8Z81vVHHwfsqFx2G70BQ2Kn+M0/KZMS0+SzHnEFJOCVf5tpsYBuORYeQGVGzdGddv3bFWdBL8Hss1DyPJIVkh4eLB/pGOdVvu8UwpmNEKMss6+yjxQ0uzDMM6YiRcnFRbtGiR8sdN3vmf6otsdyRsx44dQYNf7OdoWIH3WefGjh2rru/du/cSToMHD1bPaGyI+e/atavSJurTp4+6z/xu2LDBHAfjHD9+vCJWHOOQZHbq1En55TNK+PZGqMdyzMPlHZI/xjlp0iT1n2MnuqNHj4LvLH44njhx4sRL+dQ3okbg0aPHyFQijiVc876ETYm+sOl5HjYDr8GGJIvEa+BV2LQ/AJuR92HT47xJ3XDILaTLXtJspj5NWnv06j0Uc+auwIFDZ1Gpcl2MGDkJXE7DviApuASXcMU1KMuWLVObEVvuzUUJWKpUqc2SL1bQuHJU7UudWuJ+D6ntIqstkomLtUWSx0uXLsUqac7+hIaGImPGTGp9mFFtkZI8EsqAgAC0aNECwcHBaNKkCQoWKGRWW+Q7U5InBkjef/997Nu3L8mQADboVKNgI8kGmg06Z/uk0bRWqUhQ34ZjI88OjYSLxKR///7g4DGqQd/byOObpskZVG8vr1gREqrokcB8EFgUp1dMxq8ntuCv8zsT5XEnbJmSmnm6u8VazfDDmjUTnHCRTHDCgQfrg9QDuTd69Girn5iEi2WTg5bE4li3hw8frt6B+ecAiGcZVK1evTrWWeUEDN+P7QEHczRnHF3dW79+vUo3tu2wMSOXv/wKvvnzI2zNbPxz7xyeX92DSf0+we0jq/DsajimDeiIc1tm4XmEZUKSoKfRGMwgEbJGtKK6T79PlOQrPFK84p/PVk3qD/d8eVG+aCH8emErnlwOVXnr0rJhnLRHT589Q/PO3ZFt8FLYTNljOmYdgs3ik7BZcipxHotPIsWiU0gx58iLPEveI84kj4VbBmPDjsRjEMca4WJ5lPrPyWpKjtgWcAxA6RClTKxP3KeUE7skLFzzTT9sA/ic/RX9k7AJ4QoJCUFYWJjyxwkLOo5BWJcYdv/+/WoZBCVrJF3Xr1//f/auAy6Ko48eGktiEtM/G/U4ekexYMPeFTv2ghUsYO+9a+zG3mMXBbFgx4pi7zX2kmIXu3nf780yx91xIBpQ0Rt+y+7tzs7Mzu7Ozpv3/7/RAi4eZ56TJk0yOphsDHARAFHcgH0cns9l6tSpgvHi+8zyMw+yY6wHpsHrIftFgMbjBFv8zXMp7sC+GIGbTI+Ai2bArC/GZ/1wH6+d5pkfqr+g26akl2222T8XCIRqyonUMymceAQq315QtdsLVe+LMGu1BaqOBxSTQvpw9TwHVcgBqBqFCxCW7QcPLeDKnOUr9B8wEjNmLkFE5Fb4laiC1m0647vvf0w3YDrdAy42ECdPnkLt2nUF8CDgIKNFcKJrZkhglpqBDV91/xp6ppBUSlSAlpI3G6kbN26kOFs6mmbP/r3WDJKAi2aLhrL2QgQk3mRSgjICsowZ9OcFo19c9m+/w4zpM1Jchg8VkQ2h7BgRdElnW464sTPGBpUj4TLwo8PfU6ZMEefp1jPNFTZv3iw+FmyQFyxYIEwjmMfRo0dFfB6XZgZ//vmniH/+/HnwvjL+pk2bxIeL+5YuXQqOkuuaZfA4P0gsH9MiMCToonmHMfMHWe70tL539y6cHB1TBLgsLS1RvXQxxC74VTBXicEW2a1VeLxvtbKkNRgT+axKyFMnPzJfNzf/jnFdWsHG2ipF1/chABefV3aeuHDUme8AQYrcx7Zvy5Yt4lnlc8iODE1s2GHhs6nL6BCccJSao+AcdabDPOPId4CdlPXr12PevHmCqeU7xOMc0WZgXjRN4rvI90OXzWUnjnH5rjBPvseG74AEXOz4ydF7psn3jdfFzhADz2NaNGWSgdfEfXxPGdhh5G++j8YAF/PiQBPLyrhsJ5jHuwAupu/q4IBJQ7oLwPXi5DpM7BuMuwfDBAC6vmMRru1YmCKBDIKkd1pObcCrSzF4cW5bovMJyJ4eXyOk4p3UNri1Z4kCuE6uRdvGtVOng/kvMPP3xbBuOygBvIzZANW0ne8EtrJO34VM03fhi7QEa7/tgOrXjQnlNQBbZqPWw7LdcLTvM1DMuSWftQ+9TgpwEdzwGSZ4Ikjhtq668tq1a8W+OXPmCAEBHidwYlvBdoSiAnTnoOmdBFz0XycoYdry28Z2gudyEIPxeA77TtxH8CYZLgIkDjQmFYwBLg6gEjBxYXpc5HeewiAEVWwP2CaRNaPpIctLBUwuAAAgAElEQVTAdovHGJ/lpPgat/mOyzZSDuYQXJHJ4nEKjrD8TEMO5F66dCmpIpv2G9QA2+dcRdpANeV46gGusQeg8hsMFf23+l6Gqu0OqDrGKoCreZQCtkIOCobLrMN+ZP/BVQu4vv7mRxQsVBTz5q/Eho27EdgyFEOGjUf16rUF8Dco/kf5M90DLlmrz549x/BhI5EjR049oEX/LkrEz5s7T0ZNtTUfyD179iIoqB2KFSsOHx8fFC5cWIzOsHOS0sBGY+fOXfjpx1+0/mEsc2IREGVOMum/RrD1zdfZBSijH5xcyHCRdeOx7N9+jx9/+Bm7d+1OnY9vSi/qLeORGRowYIBoKA07RmyU2UHkx4Z1xYaYI+P8WLDhZ2NMkwN2+HhcjqCxged+Nr6My9E8jnTJUXUJ4Ggnzjg0k5AjY/zNhp0fQJnGxIkTtXUoPwD//POPiMPfsjzs8H4KgR83VxeXNwISMlvuTg7YPmOYMBlMBLZi1+Dp+X148fdVvLx3C8+vnULc4ai0Yb8ItGIj8fTCAby8cx0v797Es6snEHdoQyKgRxPGrk1rw0KIeyRvWlip4oedTFyOarNzpBv4vHJghx0WPrMctSZY4TaBEQPfC/nM81lmZ4rAh3F4jwlQaM7D34zHhZ0V/pZmOLJDJ9k1HmNeDPL94fvC8jAPw86YBFx8X9n5I+iTQI1p8d1i4H7+1mXvOPrOfbJNlWUlCDUEXMxn9OjR2mvhO8mBEJ5v2K6IDN/wj+1Jo4B6aFijEp5d3C1A1sa5I3D3QBienVyjxzoZY67+6z5Kvj8+EYXXV/bhxbkt+uwYmbQTkXh4aBVKFfRGrfJFEXc0XOx7cGgV2jZr9IarS/lhikj4NAtBhlHrEkAM2aO3ZLm+mbUHNVcdQPsNR+C0+AAypiboYlmm7UKGiVthNmpDQjkNwJZq5Dr81H06agWFflRgi3fDGODiO8rnlwsHHSQDpQse+Gzz+JAhQ7TvPwcjjQUJuBhftgsciGQgYOF+slF8b3QXMkkScFGBMLlgDHDxvZUAkHlwkQM+s2fP1gIuDrrQzJHvLgdimJcsJ9sVef0sqwy8VqbHfRxU4jbbSt3yc1tepzzPtE66Biikk7NgIFRkpaadiV/eLA+fnICGavQ+qEqNUIAW5eAJuNrvg6r7aaiaREDVaitUnY9A1XAlzNrsRPbvnbSA64cf8+CLTJkxdfpChK3aiJ69hqKafyMMGz5BDHgnfSUfz5FPBnDJKuUITbly5QQrRNZHgpPUAFyvXr3GlctXsHz5Cu0oLfPlR5mjNgQNXBsG0uRkSdhYEaQZhls3b+GXn3MIsJWUCIgyd1mCCMjPP/2CpUuXiU4IR4D1l8M4fPgIDh8+Gr8cARtnlvNjDRxhlyNuxpxwZbk5ki8bYDae9HPhx4aNM+V02eGSgIsSuwRr7BiyAeZHhJ1PAjc24Bz1YpAdRpoosBNIkwWmx/iMy9E2nk9QxQ4egwRcLDfvKzuxHGVjfvyofAqB1+bp4fFGwEUFwKXDugk/LWNg6+X92/j334Tnns/h6+dPEXdie+qDrtg1ePngbyP5PUHc8W16+ZHpOhs+A14uTm80LaxapUqqmGe963ORHODis0kgwxFvyvkaAi6a/TDOypUrxfPJEWP+5sLOHAcw+Dzz+SXgOX36tPY4ARc7QByo4PvB9LkQsPEd4vny/WF67DhxlNrQtFYCLsYhKGN6XJgv33sOXDD8V8BFkyXmIa+F9cZ8uO9dABfLtGvnTiELv33FdAFmKPsedywC78RWvSXLRQZt4sBOeHZyvQBbwpQwHmg9Ob4Gu5eMRYWiBeBqp8GmucMVAHgiEscjpyG4dat3fdwSncd3tsfwMfih9zw9IGM2JTrFLFeWGbtRf/0xVG/bBf2nzsH8I+fx06w9yJAaoGv6bqgmb4dqTBRUI+PNHg2BVvzv7/vOh2+tRjh+5myi6/zQO4wBLjLPfH4Jpngf6GvF32S3ZaDiIPeRoeY3i9sEJgw8h3HJVBGwScDFQZWYmBjxDnKwkYHfR57LwU9+h3UXgiMJuFiW5MJ/AVx8T9kucBCJjBzbDl3AJa9fqiyyzyUHkAi4yHzxGjjgpFt+bhvrnyV3HZ/TMZIWJ09ewG/TlqBl6ChU7DAG7n0WQdPrd3xXezAyVh4Is1azoRq6AyqKX0w/+9bMl2pUDFSVJkPVZrvirxW8B6o2O6DqeRaq5huhqr8Sqs7HFJPCpuuQ/QdHLeD63/+skSlzFrRpG4pNm/dg7LiZqF6jMSLXRaNjx9B0cas+OcDFWmfDMHrUGCGdTsBFszx2BN41sFMxfvwEFCroK1gjmi3+9ONP4kPOxpAmMmzUZOA2GzaOCgcHtxM+ZjRvpJkjlRFnzJipB9hmzpyFrFkVgQ1dM0jGp28a85OmgzRb5L7y5coL8EagxQ4WG9F9+0ifK0tMzD6xn8d0F+6Xcbg+d/bjmL+AnTp2vDhaz+2kAgEPR9kJuuToGDt3vXv3Fh1C3isJuLZt2yaSkR8JgiLeG4IiOfrFCLLDyBF6Gdi5ZHw2+DxHNvgEZAwScBEAfqo+XPw4FSpY8I2Ay790MdzcskgPzAjgtW+1YLNknb54Eod/zp/B478U07DXcQ/w+ODaRMxTItCmYw6Y7DHmd+OMuF/PHj7AP2dP48kdpSPPMrx6dDdRXhTuWDK8m1AvTE4q/kOrFL4JcOmO9hoCLnbi2AGRzy47MJK15fsiTXnJAMsgzZYIuMgsyU4YzWe5SDaaIE++PwQ5SQ02SMDFfNmRYmeIJn+SraKIEZ+3/wq4pPkxTR5lkOzfuwIuDjwU9/VFtbLFcYfMlq6aoNyW6xSqDKZUjfBI+FT4ernixq7FwlSQDNblbfOxclI/1K9SSky83DqgCo6tmaawXyci8fTEGozu3gqDBxj38ZP18rbr7btj4F4/CJmHR2hBlxnN9qbtgoqAJzngNH0XvpqxG22jjqJEnWYoUN4f3af/jpwzd7874GKeZLUI+sZuUsqUFNji/pHr8X3vuSjRrB32xCY8H29bD2kZn+8qB/rYX6EFBr9J/M3vD30zGTh4yn00Y+f7yXeQ2xzIoHUFv59kc/jOhoeHi74Bv2X8prGvIgEXAQvjynd569atAtxI8zu2Bxw8odgNv7nsa8hvaVoBLg7+8N1l2XntbPd4DfzNhd9aCpfx+vkN5yAS2TD5PWY7SL8vDrIwDl0KeL2sD9YB2yFTUED4tWu3sH7bfoxdsgmBE1bCb9hK5J8SjRKRV1Fx/wtUPghUio1fDvyLCrvjUCL8D+SfHA2XASth02Mxfum6BNm7rUCWnhFQ9VgD1bCdWjDGCZMNJ01WjdoLVZVpULXZBlXv81AF7VRYLTJbLbfAjL5dnJOr+2mYVZ2N739MYLhy5rLFt99+D1c3L+yLPYVFiyNQzb8hYg+eRqfOXdLFbf0kAZesebJdXl5eQjb+XUUzOFpknsdSMGUEb2SadEERtzNnziIUAgObt0DzZoFwdXFHtmzfJJaMV5khS5asAjzly5tfjOqyM1+rZq1EaWb6IrOWnWO+XLhP5k1VHnYEOAeBBGQyXpbMX2rjyfgEbzRTVICbkh7ZNDZKH0NgQ0jnXDaqhhKxHP2m6hAbf26TfeLonBxFZ0eNAIwfHIIpCbikjTtH5JkuQRkDQZv0ueJv2WHkyJkMNGVgI81RMQbZQZWdVtnAf8qAi9dd3d8/WcBFc7yZ/UMSmxIK0741+PflcwGAHt68gbXtmmNF/apY2bA6zm+MxL+vX+H5zXOJQFCyoCoZ8PXkxHaR1/2rlxHRuiFW1K+GsMY1cSl6CzinGP79F88uHUmU352dy1C2SIFkr7NhgwZJggn5zKTl+k2Ai8+9DLqAi4y6fFbJBjOwzWHni+8EAZc0x9GdCFWqoLFDJ0fY2emTJoVyTeUw+f6w45NUkIBL14eLcfnucpCFZWFHUhdwsZwMVCXk8ZSYFLKTxuvlSL0MtC7g+e8KuFiOEUOHwdbCCp2a1sSDg/Ggi+DmWAT2r5yItbOG4QWFM95CMEMyZDQ7FMyVFNQ4oZgqct/f+5bDw1GDSn6+6NG6HhpUKQW1RW7k+iUHmtcsh4Orpog8nx6PxN3YFYicPkgIZ5Qt4oOlixfLKkiV9cuXr9CwfRf8r8skLeCiiEaGXzfCjP5cAgDthtn03TCbwbVi4vcF/bWmRiPb+ChYzY/B9N1HMTE8Cs2jjiNzciAtmWNMO8PUnQlAKwk2SyvyMXIdvhmwBIUDmoPAUT5bqVIxqZgIvzt8z+TC7zNBGJko3TLTaoNx+Kxz4bY08WVxCDz4PZTHmQ7ZXwb6NTE+v5MMtMDhce4jWOFgMcEJ30uZNgdg+K7SV5rx2P9ILnDwRaYnv7f8ZkuTQh7jIgdNycyxDOxv8RvPby+/81yYF02MGV/KybNN4jeZ+5iXbMPkwBPbQB7n+bwGpk2/a1NQauD58xcwV1eAfffZKLrsKMrtuI8Ku5+gwt4XqLj/dQLQ2q8DuiT4kmseOwBUOsQ4z1Ay/Dzc+i1Brqq98GW5nvgiaD4yjNkvRDdUk08I8KUauReqqtOUiY3ps0Wlwt4Xoep5XghpmFWdAZVrW6g0jWCmbogffk4AXDly2iKPuRoaO0esCIvCshXrUKFiXezYdQghISaG66N4ttkp56jnu0gkHzt2HE6OLgLsUG7eUIiD83qRmSLQIZDhOmuWrInmBaNkvDQJlEwVwY6dnb0AFxyxoZqhSqXI2gsA9ZUysTIVDzMZEQFZtmy5aPxkesybsvSGc5IxbzJ8soycuJllpr8XwRgb0o8h8GOycOFC0THiCBs7ggxs5Ckmwg4TGUPuZ6eNbBjZJwaCHnYg5T4T4BLVkir/aJaSHPOjUdvgQuQs4+zWzXMC5Dx//Aix0yYgdvpEAYBWNvBHWONauHFwP17F3cfjA5GJz08GWCUFyF7cvogn9+5ifceW2DVqoAB2zGtVszq4c0Fhcl+/eGY0vx4t6iV7na1btTJqDpwqlZyCRN4EuKSpK5PSBVz8zYEGXcBB5S52QriP75MEVGwLCND4PklZaAIuDnQwLoEPO0yMQz8sAhieLwGX7oCF4SUlBbjohyXLwtFzgkLmJdkytt80l+S+lAAuydbRrEgG6QP2roCL6cQ9foyOwe2gNrdEtdJFsHx8b0TNGYG+QQ1gb2OFQd2C8eL8NsFC6bJXuj5cQsEwngHjfu3vE2sUOffjkbgSvQBPj4UL8CbNBzfPHY6erQPQN6ghpg7oiC3zRuDStvlCfp4g7++YZZjQJwiFPF2xbsZgXNg8Fzbm5imeg0vWU0rW12/dRvlWofihzzx8PWgpvhq8Al8NXYWvRkQIQPXV+A349tdI/DJyBXL3nw2L0FHQNOkE99rN4F4vEFknbcaPs/Yg19wYZE0GUCXJlk3bBbNJ25Dh102g8IUWUCWzzXg5Ok9C8XrNse8wfZUSrFFScs3vMw4H9MhSyYXghwOrhoHvIONQpIYLBxW5TwZ+T6V5MI8zHRmYHs+VAzDcL/Plu89A5ovghgCIA9cybb6PPJfALLnAvBmP32+2GSwfgRTLxYXHuMh02X7xtwRgLBuBIPtG3McBJR7nN58sF4EfTf25j9cj2zi2JwzMg2mynaKJNMvLfaag1ADvi6t7dajGxEI1JBoZ+23El52X4bvWM5C75WQ4dZmPglN3ovSm26h86F8FWCUHviQI45ps2N7nKL3xLxRbcRYFfj8Gl4mbYTE0Al+2mA5VkQFQVZwCld9QqEqNhqrqLKjqLRcMl1AspCx8nz+gKjESP/6SYFJIwOXo5AUraxvs3HUYY8fPRLnytRB78BSC2+n7Nn+s9/mTZrj+S6Wzg2NtpRaMlCHQIqjRBTEEM2SPDMEOz1PmBUsAZMIkUIepcnZ2xl9//iXmmPjh+x8TTAe/+loAKCoNSpaKa0UEJJug9rdt3RYP8pi3AqBkXCoZ+vjkR/16DZEzR24R70uqKGZMUDJk+cgcfSyBnTcpZ8v13LlzxWz17GxxxI3mEGy85RwcHDHjqBXNGxiHgI0NeEoBFzuVDMY6jEkxXPLDJTuJkuFiWuwYsj6TM4n8WOo6peVgXSYHuEoWymdclTA2Aq+fKuzgzYP7cevIQbx8+hRr2weCIIjs045h/fDvq5d4nBoCGjGr8OrhP7i0Yyuih/XF61evsHfcCJEP89ozdoSW5SITZgja5gzunOx18oP+IT/Y/wVwEXzweaUJDv0aOWLOkV++M3zn2DGR+/hOkWnm6DiPE3DxnaNPBkeTw8LCRFvF0WM+73zWjb0/hs+XBFwcNWf6HLEmmJfMMc2WWL9cyD4zL/qaceSao9MsS0oAF8Ekr4350NyIbYhk0P4L4OL1PHzwAB2Cg+Hp7II8OXIgx485YJk7N+pVK49/Tm7Dqws79EUtJGOV1PpEJF6cjsKLC9vx8swmcW7k9MEIrFUB43sHYcOsIYhdORHHI6fjdNRsXNgyDxc2zcWNXYtwZ99yrJ85FIM6NoW3sz3U5rkRVL8qHh1ejUW/9kChvPnw1EhH3fC+vO1v3p+lEWtRuFptlKjTGCUDmqJkvaYowSWgCUrVa4oy9ZuhTOMWCAgORYdBw/DrwmVYsvcQLGfvwRfx7Ncb/bakiSLXNFmk6uCErTAbHZUikCX8uEauxxfDImDZYSTqBnfC2Ysmhbq3vd8fY3y2N3zHOcBKM0uqJ7J94DeYbZUpvLkGWE/589cBRSy0Ihc0AZx+VlnGHYSq3SJkrNQfX1fqBeuQ2fCauBVFFp9EicjrKL8rDhVj45mwREAsHnBt+BPFlp1B3kk7YB08B9nLD0BGny5Q5esGVdudyoTHBFb046IkfNAOmPkNgarqDJiFHoRZ/h748RcHrQ8XAZeTc16Ym1tj4KCxaN22K1q36YINUdFo1qzZmy/6I4hhAlxJ3AR+nPmxp8O57kKTlWnTpust3MfOwzfffKMFR4aMFlkrMmISEMl1pi8yo22bINHRaFC/oQBGBGlku2QcrqlYKEVAOPHzw4ePRBkIrHTjEUQRDP74w0+4fesvvHj+Cj269zSa91dfZRM20klUwQfZzZEomhCwAZUL/TzYMZSBIId1Lo9zTZt3duoY3jfgYuOlOxcIR+o/lcCRSTuNxigYoTphgypl8Xj/6kQA5vGh9fj35QvxXO8aPQRb+nTGobnTtAyXwnLVxPNHD/Hk1K7E578lw/UoJgyvn8Uhelg/rGpcE7tGDRZ5EWzJvF7E+wY+ObsvUX5rfxuSrFrh9GTM5d7Hvf4vgIuj0hyYIDNMU0CaDkrWiCPJ7ETTnI9muQRmZLok2yzNDPkc8Lh85wjeCG4Y3gZwyfO5Zl7sNJFhkyPrTE8ybozDtoBS19xOCeDitbATJkEar/O/+nDp3l++6xfOn0f7tm1hZ6OGs8YWRzYvxeursXj5h6JiqMtqJbtNwHUhGq8uxwizwHsHVgoxjvDfBsDNXgONhTncHGzhqLaBxtIG1ubWsLNWo30jf+xaPBbOtmrYWVrB/H+50K1FHaFWSDEPTs8wbvRocV91y55a26yDmYuWod2Q0Yg8chLrjp3WWc5g46nz2Hv1Bg7f/htH/76L4//cx7F/7mHa0Sv49k2sFgGZrm/W+M2KEEYyDFYiliveX+vb/kvg1rAdOg8Zgbv3kpYwT616MaXzfmqAzx+tXTgoI9sTDuKQ8TKFlNXAq9evUdyvCcyGRicArmn6CoSqaachFgpkTDgC1biDMBu8DZlaz8aXxTrgfxW7w73fUpRadxmVD71CpQPP4Tt3H6zqDsHXPm2RufJEZAjeCVXX41CFHoaq/V5lXW02VC03Q9Urfs6tWguh6nsJqmYbYFZpElRNI8V8XBlc2uLn/9lrAdf/cqhhZ+8JjcYJLVp2QkD9Vpg8ZT78q9fG8DeYuKasVtI+1mcNuEhVc3SXFDUXbhtb5HG5NoxDupsULW2ks2b9UutTRXM/Aq1MOoyWBEdkmiSAsrSwxoP7D7Bu3fpEfl9krrLomASSTbO3dxQfUzqGyvQIvAjUpD/Xd9l/wMkTp/D82Qs0atRIG49AjnOFke3Kk8dCz9Qg7R+3lOdAkwT6YRiaSsgUyGQxDs0ePhZzAT5P7MBKMwlZ1vS8Zge2aJEiSQKupjUqJgIvZI8o+072ir5TGzoHKUxTvapYGQ+ABMtVryruX7uMp+f3G03DkIVK7vejmFV4/eIp1oe0FgBLNx/mtbxuZTy6fUvciqcXDybKL2r6cFiYWxi9TjJ8HxMT/LbPE01q6IjOdor3k+8LR4jZYSEYo6kPj/N947PLtoyKn+zM0KRIBvnO0cSI56VlIHPGdvZd3iVeI9tqlpPXkhaBDGrn9h2gsbbGxsW/4fXVA3h1eZ/ixxXPaNFkkGaBQqpdh+WSpoT093pxdjNeXdyFe7Er0KpuJVyNXijAF80Cpw8KQau6leGXPy983JzgZGsDB2sbtKxTSfiNFffxRMMqZbBkbC/cp1/Z8TXYumAk3BwdcCONB33injzB8MnTETJiLNYdP40t5y7pL+cvYfvFK9h9+Qb2Xb+N2Jt/4dDtf1B59WFkpu8VWSv6fU2l4tkOmE3ZDtWkbTCbsAUZxm1KYLKSEsFIBoBlGRKGPB1GoXzLjpi/PAycuNkUPr0a4AAr2zLdwdhP7yrT5orYRlb1b4cMfel/qQ+0kv099ZQSf8ZZRRxjIIUuFiOLdytkqjoZqgarFfaKzBWFMer+DlWnI1A13wBVozBlu9ocqDjhca8LyhxcdRdB1es8VIEboao+F6p6K6DqdxkZ7Jvhl/9pQLGMnLk0sLJ2hp29B/LmK4TqNZqgfsM2CFu9ATly5hSCLmlTU6mb6mcNuGbNmi1UBzlflcJAZRR+WmSJuNDPiSaAPC4XgqhMX2TSi0czP46i3rt3H1aWNoKlIjDKlClB5EICIzJV0p+Kay4EVD179BSdmJw5lXnECKC0IhdfKf5h0myxUKFCoiNSq5YitkHRjq91/Mh4LQRVZNw0Go3W94wgTzdveztH0QlL3UfKlNqnVgP0X0rKrLBm+RKJwIsARoc3KAzX69eI6t5BAC4CH92F7NPDm9fx5GyM8TTeguUSDNfzJwLcGYItAbgCqiDub8WP4cn52ET5rZ44EJy82dh12qrVApSk1/tKRUCCJ5rpUhqaJntkl6RfK/0haHZHVojtmGSyaMb7LoAnvdbT25Y7bNlyqC0tMbh7sAK4rsTixakNwjeLoEoBXGuxdf4oMTmxnrqh1odrHV6cVcwJty0YJYQw/opZpsQXIG2tYL247/ymOULu/cLmOXhyLAIPD60W4EzkdSISj46uRvXSRVCvVq00A5qGdTR1wWL4t+6AsH2HsOXsHwroOn8JW85fwlaCsPhtCciWHzkH2wmbkEnMk7VB8cN6B1CVmNVahy9GROLnnrOQv14LtO7WG//cSRCSMSy36bepBj7nGiDgqt+gO8w6r3o7wGUEnKlmnIOKpoKtt0JVawFU1WYoExgHroeq/ioFVFHqveFqBXBVmQlV4AaoepyFipMc15oHVdcTCgirvxwqArD+15BRXR8ae0/YqF1haeUERydvWFjYIrBFe5QuUx1jx02Hq5sH/KtXTzM2P7Wfkc8acFEuVAEx+v5PishFFmT7SpFjJ0ghG/VFxkw6TJFKbBNUEZQNGzpc+DNQZCNzpsxakKMFWoLR0hfYoNmh9PvKnj27cAgNDe2kx2gR4LGMuuaI9erVEx9UTrZMcCVBlARaBIsyX64Fo6UzJxnjE6S5u3sgLi6xQ25qP2SfYnpssD6lwOth51p3kdc4a+ZMo0CE4MQ3n5dxk8IDkWKuLaZxaM40o4ArolUjvHr+DHHHtiYCQMmxWcaOCYYr7gFip01MnFf9aljTtglexZucPjm9O1F+84d1T/IaK1eqpG3Qk6unj/V54AgwTXDon9WnTx8xMTBNDCVLxXtOs0CK01CsghOG06SQ7PKHCPK5+xB5v02eZODyuXuioJc7HpzdidcEXGc3CxCkNSU8EYmFo7th5pBQoWhoVMUwXtnw6bE1mNQ3GBWLF8D8kV1xeft84ZPFc16eWosXYlkXL6ixFi/i5+MSeZ2IRPTCX+Gs0WB1WJj2eX2b63mXuC9evsTmnXvQOLQHhs75HVGnzukxXVsJvAi6ziWsp8acgu2kTcj0H4GWWfwkzFmGrkau0HHwatQewX0GYe+BQ+8NcL5LnZnO+XRq4PXr9NsPCGo/DGYdlqYK4DLL31mZuJgAqu5iqIJ2K/Lu9ZZC1WGf4q/VbJ0CuCiS0WIjVN1OQohk1Ppdmfy4dbQiER+wFKo+l5DJqgZcXH1gbuEgABf9t1xcvITfVoOGbeDvXxc//vTTO6vPfoin8LMGXJQfz5YtmxacSLM8CWC4JugiONEFMBSyIPgiwJEqge2C2ws1HR8fH724NAnUMlVaJcPEAhsEeYcOHsKGDVGgOeB32b/Ht99kFyaKX3zxBeSSKVMm0WkiUCpYwFfE/fbb70B/LBlHrqmY+O0338Wn9wOyf/s9qFLINBiHTJnsdH2Ihy8950kb6DGrYhFz9iaePPs4TFbYUeVCfxiaW9Ivh342VJmjct36deuwfNkyIToyaeJEjBk9GkOHDBHmYyNHjBAd8tGjRoHLqFGjxG/60PTu1QtkeYyxP2oba9zaviQRgOGkwi/vK4zSvUsXsappbT12i6zT4bnT8fr5Ezw+sDbR+cZA1Zv2vbhzA3+dPoGwRjX18lrRwB8nVi4RjxtNHB8fiUqU36gubYxeH685oG5dDBs6FCOGDxd1wrqR9UQQw7qjCR7j8NjEiRNFHS9buhTr1q3D3j17xD3gvaAJLO8NlbUIdNILuHif7+rGQ5ewZv9F3H2kKKa9z7zfNq/JEybAImcu7Fw9G6+uxOLVhZ16gIvs0+09S1CmcArp3y8AACAASURBVF7Erpykd0wLyrQmiGtw72AY2gZUFiIYNua5ULJgXrSuWwndWtRG91Z10a1lHXRuXgsjOgcKGXjJpF2L/h00MaxaoeIHARu3//obPYaORtOufTB1zQasO35GMF6C5YoHW1vPX9aCsXkHTsN72lZkScY0MBGLFR/XbOQ6EGR912c+1EFDUKpJW3ToMxD7Dx0xMbJv+wCb4v+nGojcfwFrY/8QbVV6acv53bl//wG6dB8LVZv5qQO4fEKhahIJVfsYqGrMgarFJkUMg4xVuxgFXJHVonmhAFxRygTHoQehClgMVdsdULWJVtiw+iug6nEGvzjXQ+nSlWFu4Qi1rRucnD1Rp24gKlSog3r1A/Htt9mFABN9+tJL+KwBF0dwf/rpJxBAUVJdMloEUdwme8W5ZTjXTO7cuQWQojkhGS1dUEZA5u9fXYCXsmXLingEUARauvEoZiEZLQngmDfn5mK8dWvXCZaLTt/798eKCfs4/4buQlaOUqh8yI4ePRYfb79eHMZnPM63wXQSFk6KvE8bl74d6aWR+BhfqFt3HqPSwFVoOWmTAF4fqoz0UyGgmvrbb0Iel/LdnJOFzxEHFSi4wGeGvjpkO9jZp/07nyHZ6edzkNTCOG1atzYKSMzzmGP73DGJAMzjfavx5OROkearly8QM2k0VtCHK16hMKJVA2FO+PLuLTzeH5H4/LcwJ5RA7NkfhwWLtX1QLy3LRbPFyHbNhVw878/Le7cTzcP1aH84OjSuZfT6KBhC/6ak6sZwP+uUgxgEvfTnY53funlT3IM/Ll4UaYWvXo3x48eLgROCMwpTSDnkD/UMfUz5Pn76AjWGRaDuyLVYFH36YypaorJcvXIFXm5u6B7UFK+uKX5cz0+u1TMrpCkhFQWL5/fA1egFWjNAAi4JmLTrE5G4u38FJvYJgo+bA3764Sf89N33+Pn7H/C/H36Go9oSdSr6Yc/isVozRTJfvdvWh4ONGhs3JMjhJypsGu8g23Xq3AW06zMQFZu1waCZ87A69rAeuyVNC7leeewcas2Owrc95yJz/6VQjVwnJiemwqBZPPtFSXezURuQYdQGfDN0Ff7XfRocmneHd60mqNC4NX6btwg3bt02+Wml8b01JW+8Bp6/fIXGY9ej/uh1WL33PDgQ+zEH+rYuW7oKEydMR/uOg6FqOTsVANdZmOXvAlXz9YopYe35islg6CGoApZBFbwXqm6nFVYr5BBUVWcqgIzHOx2CqtEqRRI+aBdU3U9B1XiNYMR8yrbH0iUrEBDQHOYW9ihRsiLKlK2JAgX9BBFBpdv09t38rAEXHz53Nw8tU5XNQOSibt264t1hp6pfv/5akQsCMs6PJea9ilcJJFvEeE2aNNWTjGdcAi1dk0CCLcGmZabZoiIZz3hLly4TZok096EJEBeOkJP1itJZ1q/foD0u461dmzjeBqPx1oLn66bJbeaTkJbMe32ieDxXd1LRj7lxeR9lG7BoD0r0Wi6WTrO2Y/uxq3jyPG0c9ZO6HjY6hw4dEsxJUnGS2s9nliCBaRCMEZhx/hMqwpGZ2bZtm1C4mzxpUpIs14B2zRJPfEzAtG+VluV6+fQJTqxYhOjBvbFv8q+4f+WSmPj4yemdiQCQBFBckyl7sHslHsasejMoO7AGrx7fB9UIj/4+BwReB6ZPwsMb1xTA9PK5EPPQTZ/bTw6sQfnihY0CLg93d6xYsQIbN24UdbFnzx4cPnQIZ8+cEXPBsA0huGIdsi7fNnCqg4MHDnxSUwm8bR0Yi7/x0GWU7K28V/VGr8OyXWdx5+HHx3hxMKJ3jx4oViAv7p6OVtQKz20T5n4UzJDL4yPhGNyxKepUKAmqEQrBDJ3jMh7Xiomgwnad3jATh8Kn4HD4bzi1fiYU/64IbboUytg0d7gQ03CytcOhgweNVed73ffs+XNsjN6JigGNULFJG1Rp0xFthozCoFkLMC1iAxZF78HSnTFo2KotAho2RnCnrnAu6IdvOk9FtgGL8V3fhfi5x3RhJmjZegCs/ZvCu0pdlKhYBWUqVkKJ8pVRt0FjBAW3E+z76VOn3uv1mTIz1YBuDSyOPq3tAxB8hcdc+CjbqmPHTgqgtW5tFE6dPo35C1ZB1WQKzKQQhhH/rGQFNOLjCyVD7xCoAqMU88Fq06BquhaqLsegqr1ITGis6nkOqtbboCLIqjFfEdFot0fx4aJvV4MwhR1rGw1Vm+0wa70dlev2wsWLF7B06Sq4ueWHs4sXqlStjoCAAISHh6dL66zPGnBRCat4MT8Begh8yF5J5olrd3d34eP09MlzBDZvqY1HkQvdeNymwz07XP37DdBOgkyGy9CfinF1JeOZL00TM2b4Apy0k2Zgv/zyi0ifvleSdWM8LopkvOI/Jssg5+YiaOPCeEnmneVLrRmkNm9jcvWZMuvFY1wpAkLne1NQauDIH39qG1sJvBqOWYfjl//Ci1cffrSLz6QuqOLEkZStJ0CjlD0l9zuFhqJjhw7o36+fYMki16wBgQXlr8nQPH78WICK5s2aGQUl5YoVwr3dK40Corjj2/CaaoUGYIS/n107lSzYIhj6Z9sSRLQIwPZewXi4N8xoHroAKu7oFiHWYfh8Mr/n108bPf/6lkXgBM7GTCYpMkEG8UlcnKgLTsRJBjkyMhKc6JejbCEdOyI0JESITfy+cCFi9+8XCnmsawJZCcYM68CwjKbfCTXwIO45Akat1Xu3yvcPE6aGz1683wGNhFIl3uI9XR8ZKSYanjSkO15djcWry3vx4tQ6xccqHkAJIHUiEsENq6GyX1H8vW+5Yl4Y779laF6Ykt/PTqzByXUzYG9lCVsLK6gtrVChTBnci1ejTFza97eH9UJz2ydPn2JvzD4MHzcRftXroHLjFvAu7w8bV28EtW0rmPa/bt9CuXLlUaBsRRSpWhMlqtdG2dr14VWkJJxc3TFgwEChOsn3kN/spUuWiikO2DZRpY7tl+nden/31pSTfg08iHuGsn1X6LVVlQeuwrrYP/D0eeJvn/7Z7+fXgwcPMWnSDJw+c0YMmHPQfMHCVchapD3MBm6BatIxRXWQUvBT30K1UMQ/BRUBFxku+mv5z1AEMrqehKrGAqgIrHpfVEAYAVf9MGXerWYRCijzn6WYEvY8hwyNwvGlczN45KuL8IgonDhxAs2bt4B33uJwcy+gp5r7fmoudXP5rAEXO0I0BSSQMARGZKSyZv0KxYr6oVLFKvjxh58FUDI0CeRvAjBOLswPwsyZs8R5iRktZRJkXb8vIXKRMZMwaSR4IuDiTOm5cuXWY9Mk0CIrJkEW1wRphhMwK2aLxkRAEkwmFUCmPwmykq6ZqAthMplNYd5YRsP6MQGuhJeQTrM95u3Ua2wJvEr3WYEOM7Zh27Gr+BCOtWSrCKoIDDgxJP2JaGbISXB3794tHE35rFEqnCZwb+qw8Dj9j/L7+CQCJmpra6wc398omFFMC6Px8t6fgtECxTmePsazK8fxOHaN8XN0zAnPLRgrTBEjWtTFvR3L3hhfMFand+HVg7+FJD3L/erJIzy7dASPYxObLtKcsF3DmuCcYoaAq0rlyilinpgH65BsF+eCOXbsmACsZKpZ50uXLhW+cwSyNPOk2IIpJF8DrFOaE8pBDN1147EbsHDbabCj86HDtctXULNSFdhaWsHD2R4XY9YIX66X57ZqTQd1zQVv7lqExv7lEFCpJC5smgNjyoXa+EZMDqUZ4tPja7B+9lD4FfCG2twCGjdv2Ko1sLWwRK1q1YUZ64esG5ox87mPe/wY506dRMyuXXB2dkFwcDvBTFWqWEl8654/e4qodWtRIH9+tG4bhKZNm6FDxxDUq1cfc+fMFSbRHLSIe/wIN69fQ+Tq1WjWpAl2REfjwb17OHv6FKZOnvzG9utD1oUp70+/BlbtOZeorSrZazmajY/Ckh1nBPD6ULXAtnTJ4jBER+/Ugi0CrnPnzmHjpmiMHDMLJQJ6IVvxjlDVnwDViD3K5McpZL5UU05ClbezwlqFHICq8hTFLLD7Gaiqz1fEM/pchIqiGTQprLtU8eWicmH7fVCVG4/vfYJRO3Awpvz2O7Zt2y2sbOjzXM2fwhkF4elVFG7uvqJ94PWk1/BZAy7eOMoh64IY4yIXX4I+WXrxzDLoMVWUjWdna+vWrXrxCOQIWHSZKoIYY0zVokWLRRrWVmotU0UAZQgGjc3NRXDI/bpl5HnMhwArgfnKlojJox8ZAaIhGMySOYvRvPv07pten/c0KfeFm/dQcUBYogZXdhJbTtoofLzi0khcg8/xX3/+KUZ/aBo6Yfx44SO0efNmoTTHgYXUChEREWKqAUNwYq9R4/SaWXi0LzwxKNq3WmGyDm9A3LHNCvDhPh1gldT2/V0rsGdIFxyfOgSPYlJ2jkiL5TgchbgjmxQfMSP50Vzx4LIpRsGW2sYGrL/UCjQ9u337tpjPi4Il9LMjGKagCffzuCno1wD9IWiiI98jw3XN4WsE4/XPw/evtPr44SMsmzcfBd09BMhRm1sKifjuQc3w5OJevL6yHy9ORynmgdJMMB5APToaLubcyufqgLUzBmtNDIWCoTHGS0eNkHLwZzbMRN+gBrC1sBBAT5PXF05BA+DUvCs0dg5QW1iioHc+7N21GxzgeN+BAznBQUG4fOkSjh05jP17dmPPzh3YEhWFrRujMHTQINCPke3W3X/+Qc9u3TB+zBi0DwpC0cKFxaTc0k/50YP7uHT+PNZFhGP0iBHo06sXtm3ZjH27d2Hn9m1YuXy58El939doys9UA7o18PDJc9QdGZlkW+U/NFyIa9As+n0DBmoVDB40GmfPnNUDXARdEnjR1/vI0eMY8+sclCrbEubFgvBFi5lQDdwK1eTjYgJk4+aFp6CafEwBXBTKIMNVdRpUjcKh6rBfmVerY6zip9X9NFT00yo3Adn8p0Hj2xo1a4dgwYJVAmDRekS3TM2bN4ednQc8vYqJxd2jMHLnziN0DnTrPj1tf/aAi+piBCkSaOmCE8EWGQAtgpgsmb+MNy9UTPgIVAhY6Px+9OhRLeiRExHrppnpi8xaRkuCI86PRVaJPlwEbQRczMOQ0SKbRmAl0yOIoumgIRjk5MaZMyUwWozHMlKZkMdkvlwbFQHJZBxoSRGQfn37p+ozTjUygpb0upy5dgetJm1KsrFlR7Fs35VoPiEqTcQ1yKzS14qT1P7555/C/C+tGnUyORR6sLay0mOEyBA18i8vQBRZI6MASgKvpI4nsZ/AiIvRNJM4RwFd8UAviThxsRFoXquSUcDFdoHXmhaB94aj9lQrpHCNrkR7aub34uUr/HH7frp9r9gezIw6lux7RT+vOiMjBRv2vhzWj8TGolKZsrC3UUOdJzc0rp6wK1YO6jx5YGdljb4hrfDg7C68vLRXAC4yVromgmS17h5YiTE9g+CotkHNcsUQs2ICHh8N18bTMl+cHPlkpBDIOLpmKroE1oKXk50C8iwsoXZ0g0ONZnDqMBTOnUYpoEtjJ0BXXjd3rFm+XDC9qflcJZcW2d1dO3fh4YMHuH3jOi6eOY0LZ07Hr09hy8YoIcAjJ7X+8+ZNNKpfH5x6Yv++ffjrz7/Ee8d37/bNG9i4fh1q16yJMaNGgYqQv02eLBh6diJp6vypDFTcvPM4Xb+n6fXbnZrlHrxkb7JtVaney4WZ9PJdZ9+ruMaAAYPRu/dgLZiRoMZwfS4egJ0+fQb79h3A/IWr4Fe5Pb6wrQmzJr8J4GU2/UwikQ3VxKNQeYVC1WozVB33Q1XxN8U3i4CLLFe/q1C12AwzzxBYeTVE5x5jsW7DNhw8eARnz50zWi5OU2Jn7wAPz6LxgEtZU5GbpsTpNXzWgIs3jSY+vXr1Rt++/fSW3r16o3v37npLjx490bePfjyyPd279xDxdu7cKT4WvXr1Qp8+ffXS43k0xTNMk/nIvPmx4oeIfjWG8Xr27KWNJ+P37t0nUTwfn/wGTFU2wbAZAq3Ec3Mp8veG4I0jCrwemSfX7CCmRqCp3bajV+E/JDzZhspwZDu9/+4wfasQ10grxis17k1yabCT079/f6Ogq2G18ri2+fe3B0cGoOhO9FIc+LW3Xjpi3xj9fW8NwuLzub8nDIPaN9cDjZK1a9myZbpTPzK8X+dv3BUAP72/K29Tfvp8UVzj7wdpw3hdv3YNA3r1hou9gwA8dvl84VivLZxDhsM5dAQcKgVAbWkNW0tLlC3ui0lDe+JI1ELc2LMUDw6GiQmM445FYMu8Uegd1AAdm1SHf+micLCxgXWe3KhYvCAGdWyKZeP7YMeiMeBEyPNGdhUKhFVLFRamgzZ5zKGmvxbBloUlLM0toM6dG3YFisOx41A4dx4Fx+ZdYWtvL447aewxc8pv7wWYHD92DEcOU5r9lTAB/OPsWXC5eukP0E+L9cdRa4rycNCBA0XXr1zG7BkzxPvGdoULzQdPHDmCvr16oahvYXQOCcXmjZuE6qfhc57efz978QrjIw6B5mdv86yb4qbv+mowZh3C9pxLc3GN7du3w7dwaZQpW00IP+mySIaAy9hvxt+//xAGD/0NfhWD8F2ZrjBrPQ+qX2O1rJdq3EGoPDpC1ekwMrTehux9TkHTbz/y9Y9G4bazUKxyRwQF9xU+WadOncL58+eEOaOx/OQ+WpdYWWm07FbBQmVRoUJtODg4pWtG+7MHXOm9wdYtPz9iIR1DtWIXnIBZl83idsYMGfUYMrJfZPIM45HJ42TPFBVJq7D71A2U6q3vbPq5fEjaT9uKW3cfp1XVpnm6fNamTJkCG2trPdBCpouKbefXztEDS+8CjKJ7BePUzBHClPDujqVY364xTkwf9p/TZVmGd2oFa0tLvbITcDWoXz/dgy0yPfVG6wtOfC7vFdmuQxf+TFWzHT7rm6I2wt3RCbYEVGpbODbsKBglskrOnUcLoOPcaSTsi5SG2sJCiGjk9/JC5kyZkDtnDvh6u6BKyYJoULU8cvz0C6xsbJBHbSOELuzjwZPG0hL21jbI/u1PyPHzz7DKlRPWuc1hniMHfv7uBxT3dkNRD1fYmlsil4UlylvY4FcrB/hZ2sDG3AJW5WvDqeMwpSzBg6BxcYfGkmIa1lgyf0Gq1olhA0MhnnHjxiqKp0+e4OLZM7h944YWSFHIo3TJUjh29JgoB+v0+bNnuHb5klBH5W8ud//5GyePHEaVihUxasRIwWIZ5vUp/Z6w5pAJaH2mYLPmsAicvPJ3mj7ODRo2gG/h8qheowly57GEr6+vGCxdtmyZAGAkCQ4fOQICIYIrirbRV5v+XVwkAJLrEydOIqjdUHz1nS/MyvVWzA0JuFyCkKv3EYSOWoS14Wtw+PARce4ff1wEF5osMr1jx46LvGR6xtYsR0hICOzsPeNNCYugRatOCGzREQEB9dK0HUvTmwEg3QMumhVUqVIFzk4u8HD3hKeHt1g8PLzg4uIKe3t7vcXR0UlIwXt6eGnjurm6w9HBUS8ez3N1dQPTkWlSQt7J0SlRPDoDe7gnxGM5uM8wbycn5/i8E8ro6uIGBwcHvbgODo5gmWS+XLu5ecDRMXEZeY0sY7lyFcSD2LFDaCKRC4Ipmi1Kk0Dpz8X5v4yJgBCASbPFtARcYXvOY/qGY+l+mbbhaIo6uBTSGLUyFieu/IPXH8C3IrUbE/qGbd60CX7Fi+sBF4IuZwc7hDSpjcMrfntngHRn+xIcmTwQO/t3xJ7BnfDHkokpk4c3YMsk2HsYsxrb5oxGjXIlEpkROtjbY/y4cenaPlze3x0nr6X7d0q2C70W7EpRh7TjjG3YeeIaUps1vvTHJQS3bgMnjR1srazhUK4GnIP6J4CszgRcowT4cggeBJt67WDt4QNrCwv069MX586eRczevVgTHo7FixahWsVKsLO0xmZrZ5xSu2KFjTN6WGngbmEFKwuqDVqiXCEfTOzVBlP6BWPhqG7YsWAUzm6YiUHtGsHZVo3qlmpsUbsgTuOBVxpP/G3rjsIWVrDxyA+Lmi1g16InnDqNhHPb/rDzLSl8vUoV9xOiLvIZSe11n969hWLgv6//xe3r1/Ho4UPBVhFEcdqEVWFhwlyeDNa/8X+v/30tABrbkYf37+HMiePCT2vShAmis5baZfzY0rt99/En857K9/VzXnMQNSUDW11mR2PPqRvgHF5pHYYNGwYn57wIqN8K5SvURj6fYqhStRacnDzw08+58L8c5siZyxLmFmq4u+eFq5sXChTwRcWKlTB69GihEqgLiiQIO3ToCFaGrUePQVNRovkQjJ24ADExsTiThJ+YbhrJbRNsdevWHZZsEz2KwMu7OMqWq4mAeq1QtFg5LFiwMK2rLE3TT/eA6+HDR8ifv6CW1SFQyJolsV+T8L3KkhVfx6vvMd6XX2ZDxoz6UvAUkKBfU0pELjJmzCh8rwhgEkCMMZELRclQghiRd9avBNukyywpIhcU2JAiF4rvlaFcvWCqDEQu7OwcBOAKCgrSY6uk35duGRWBDX0REMU3Tb9+6FdWqJBvmj6An0Lif92PE34kSTW2FfqHoeucHbhw8/6ncLmJroF+Y+2Cg+Hq4qIHvMgY2VhboW09f2ydPRpXNi3AvT3G5eMlKDK2jjsQYVRh0Fhcw33394bh+tZF2LlgHFrWqSomMJemg1xTHKOEn5/wgUt0YaYdH7QG2FnvrzPPneH7VabPCqECtvXo1VQf9aSk/+5du1C0QEEhuW7r4gHHJp10WC0FaDnRlDB4IGwadkSeak2Rx78p8lRtDOvCZaC2tUe9OrWxjeI1N26IqQUaNWiIBtZ2eKnxxGs7D7y288QrjYcATdOsHVHAwhpWuXKjiJcrpvQJRtT0Idg2ewSaVy8P+5y50NvaHvcJtOw88UzjiidcbF3QwFINjb2TyJtlUDfpDKeQYXDpMBR23oXg4uAowF9q3FCCJgq9UAmV2/v27hUS8JKloqmg3OaagOpl/NQQuvtfv3olWK6rly4hIiwMLQMDhagM45iCqQbSUw0QPCXnx83B1pYTN4pBofepWsxpFLy8vOHmXlgAl6LFK6N5YAi6dB2Ilq07wTuvn1goTEGA4+5RVICcvPlKQGPnDkdHF8yZM1coHhMoScAlQRN9kI8eOaZlwuRxAicZn2qD3C/3yXO5j37nBw8eBJm2qVOnwt3dA7lz2yB/gdIoVqwSatZuhmaBHdCiZShy57YQ6aSn58KwrOkecPHDWKBAIQFSCLQMhSbou5Qw75WUOifQooCE/nxWxkUuEmTbZXyp6CeBEcEM8yBokXG4pj9U1qwJbBHj0Uwvg5m+miDjKmX8Wgc4fi1YKd30uE3fKyHbrgVlytxc5uYWeoCLQMuQ0WJZDH20WD9Zs1BgQ5nni2Vk+rJ+fHx8DJ8Z02+DGpi/9WSSI1uDl8bgyl8P8PIjmJPLoNip+pOdKjasnJfKxdlZD3iR8aJ0vIeLEyoU90WXwHqYN6w7di0Yh8sbCcLCxOTDzw6uwdMDa/AkNgJxSbBUElDxOEUvGJ8Lz+Wxv3Ysw4nV0xE+eRBGdG6FmuVLwsvNBWobaz1Wi6IflH3nBIoPHz5M9Q57qlbuZ5rY4Qt/iukVDIEWfzcdtwGx526JScZTs4NOALFm1SqULu4HR1uNUAF0KFsTTu0HK2ArntEi0NK07AWLOm2Qp3ozBWgRbOks5pXqw7pQSdjbOSCvpwfq1awFV1dXzLZ2wAuNuwBKBEtxti54quHiin807phh7QhPMlYWlvCwsEJDczXsLCzRzsoOzzWe+NfOEy817nhs6yyWOLUzBlppoFFrkKdKI20ZLOu0gWPwIDh3HAqNVwF07dT5Pz/nrOv5c+ehYF4flPYrgZB27VEvIECI9QgwRfYqHjAJJiveVFAe46PM7WdPn+Lmtas4sC8GrQIDsXDBgjRl4D7TV8h02e+pBk5e/SfJtqrNlM1iXk7OyfUhAoXcvv76W6htXVGuQm3UqtMcIZ36IrRTPwTUa4ku3QaJfWSRypavhaLFKoE+U9wuU64mChQshQIFimDw4MHiGy8Bk+5agimqJJNVa9SoEcqUKSNMGAsUKIAiRYoI1qxChfKoUKECKleuIo6xPbSxsYXGzgXuHgVRpWo99O03EjNmLhHzhA0cPBaNGgfB2sYRfn5+gi3/EHWYWnmme8BFhitfXh89oCNBisIYZUHmzFm1CwGLPJ6wJquVWRuH8Snlbig0IQBPxi+E1Lo2zUxZEpnlMR5BFQGcNl7mrFoQI/Nl+ZiPvhw7RS4Sg7ykgJYEmHny5BEfsnbt2hudm4tsnMyXa55nTDLesH5MgCv5V41+WJyQVbdTWHngagxfsR+nrt5J/uSP9OiNGzfEpL7Dhg4Vflqc6oCj2SkJ7Ezx/Pnz56NZ06bIlzevHvgiq0QAZp7HHBYWFmLCYQKxIvnzonLJogioXAbNa1ZC2/rV0aFRLYQ2rYNOzepqF5optmtUUxxvUbuKUEakiWDZogVRwMsdTvZ2QszD3NwcFubmeiBLY2uLMqVLo2fPnoiOjk73jXdK7kd6jUMxgaDfNuu9Vxwl7jw7GluPXtF26lP7+iIj1sDFThHF0Ng5wqFu6wRWq9NIOLYfAk1gd1jWbq0FNgkgi8BLd1EAmHmFANgULAErG3tYm1titbUzntq64rGti8HijCcaxVRwv9oVnhbWwuTwia07xlppkM/CGvOsHHHMxhXPbSXgYhrO+M3aDtZqDcwF4JJlaAqCLsHCVWkIBxtbHD1y5J2r7NXLl5g/bx7cnV1Q0s8PDrYaFPTxwY3rN8T9kKaCRtfxwOsl56u7eweH9u/HsMGD0bdPH6HU+c6FMp1oqoEPXANsq1pM3KjXVpXpuwLd5+7AjhPXBAv8gYsIqv65e3hAbeskTAu7dR+MJk3boXlgRzRuGowWLUPQsnVn1A1oidJlaqBJ0/YoXKQCypStKfZ1lj4gUgAAIABJREFU6NgbJUtVRZmyldClSzeMGzceY8eOw5AhQ9ChQ0eULVsezi5ucHP3Rl4fX3jn9UXJUpXQqHErVK0WgMpV66ByldooVrwcChYqAXsHTzg654OXdzEBAtu07Yr+A0YjKLgbWrfpApYvsGUISpSqLEwfS5cuLfoVH7oe/2v+nwDgegh3d3c9MKELLD7WbcVsUTFFlOZ+mTJlSXQdlKuX5o0ynjGRC3Yw2dnVFc0gU5WY0VIJEKjLznHbEGix3uj3Vaxo8f/6jH3S50/fcFSvoaUdN00M03MYNGiQHkjSaOxRpGhRoej5ttdFkwYqDrVu1QrOTk566eqa9qXVNpmsYkWLCpMnjsjxHTGFj78G/rh1D2X6rtS+WxTDOHbprzS/f4MHDBQqg3auXnAOHhjvqzUaziHDYNu0K8z9m8FcsFgS1KRkHQ+8qjWBtbM7Vtg44anGLQFsaVzwmIutC+7buiLMyhFFLayR29ISq2ycBAO20doBBSxt8NDWEy/tPBAXH1+CtrnW9shlawfzqmS4EspkXr05HNoPhlPrPrC1tkGX0NB3vvmcuFtjZY3iRYqKCdP5TqstrVDd31/85ruV1B+Zwydxcbj6x0WsXrECNWvUEFOomN7Hd74dphM/khrYefK6tp3iwGut4WvSXAzjXS6dYhg//vgjvvrqa/iVqCqWkNA+aBvUFfXqt0at2s3QqnVnwXb5lagCn/wlUaq0vwBevoXLoZBvWdRv0BoNGrbF+Imz0bPXUPTqMxyLl6zBlKkLMGHiHHTvMQRtgrqha/dBKFykPPIXKAWaJxbyLYe8+fy0Mu9Mj2CPIGvCpNkICu4hfteo2QQDBo2Gl3cBUGOApASZMqp3fwrhkwBcbm5uiYDKxwi0dBmtbF8lzOFFlovHdMtsTOSCbFlSIhd2Gnst4KKPljQJlGnSNy1z5iyJ2DQCLR6T8bjO9EVmYfpIgJeWohnp/QXiPEd1RkSKObYohkFG61MQw6BPFicEl3Nt+fiVRvWgTnB0ckK/fv2E38Xb3jt2uAi+Ll64IOarW7FihZiguUnjxsjxv//hl59/Ro4cOZBTLjlzIlcSS86cObXxeM7/fvlFnF+7dm0xpcK8efOwMSoKhw8fFnNdcU4fU8fube/Yh4tPH4fQmdtFJ4ZiGHtO30h1MYykrq7vgAFCZt3BvwmoOkhBDPs2/WFRowXyVGuiw2olgBoF4BBUGe6Tv3VMDfMVwVBLBzwVDJVkuGgaGL9NMQy1C+6oXdHb0hatLNUIt3ZEFQtr+Fra4G81mTFn0IzwsdoZj+KXiVYaWDu6xvtwyXy5bgp141A4h46EfcW6cLVzwMYNUUldvtH9fHcOHjiIIoV8RRpO7l6YPWuWEJjp2aOHMH2sWL68Vu5dF3TxvaeAxh8XzmP29Ono0bUrotZv+OTVB41WpGnnJ1kDXedEg/MB9pi3AzFnbn7U7gNUIaRJX7Zs38Dbm35dtQSLVblKPWFiOGTYBAwY+Cv8azSGT/5SWn8uildwoeIhzyldpjqKFa8sAFi3HoMxdPhErAyLwrwFYVi4KBx16raAp1dRFPerLNIpWqwiihSriHw+JcV+grESJauhVu3mqBvQAoEtQ9G6TWfkzVcI2bJ9japVqwormyNHOM3E60/muUn3gIsOupGRazF/3nwsW7oYy5YuwYL5c0VnTRdEfAzb9N+SLBVZK/ptGZZL+l4lxDMuAsI5vebOnYeFCxaKJSJijehUBgcH66WZIAIihTi+EaCL5oSGeROkffnlVzpl/AZFChf9ZB721LwQdkLmbTkBimFcup0yc7vUzD8t0+K1nX/4AuHhq4XttQK8LNBi2EQ06j0MHTp0+M9zYTAPOs1SyZODDTR55cTcXGhSmzkzTXwzI0uWLMiaNat2yZI5szjOeDxHd6DCzs5OOOEybVNIvzUQe+62EMPgyPH7vpczp08XrI3GMz+cOL8W57VqP0THT0sBMYnBVXKASwKgprAsXhHVLG0QpzUJVPywpD+WXN+2cRZgy0ptizy2GpQtXRo+3t7wtVKju6UtFlrbY6uNAw5Y2eO02gn1LGyg9immAwgTQB5ZOYe2A4RppF2xsvB2cUuxeQ7rn/NrFSlYEA7Vm8Cp0yjYl6gIdxcX7N+/X7QDXbt2FeaFRQsXFrLS7CDxPPp13r97F7ujoxHSvj1GDB9uAlrp97U0ldxIDZy5fkeIZew9fSPdDLayz9y+fXt8m/1b/PDDL3D3KIQSJauiUuUA1KkbiPYdemHMr9MxYNCvqFqtAYr7VRE+Xd55S4jflavWFyCKzBXFLQoULCPYL//qjQRrVqNWM9QNCBTgiscoyMGFgM07b3F45/MT7Bn3Va/RWKRdpGgFmJtbwcLSEmvWKH1ZI9Wd7nele8Al78C//77Gg/v38PDhPdy8eQ02NjaJAIUhwHjfv6mKSPM9zo+l21FkOTg/ViKRiyxfJmK0VGZmgmrduWOX+HgdP34Cx48fBydN5hIQEKC9buMiIEbyFkBLKZsEelIExOTDJZ8w/TVH4em/9SmKYbx4/S/W3HqOJy9fC0d2TnxNvys7Bwc4e3gJs8BZs2bqV8hb/vr7779RIH9+wVTlzpUL5nnyCJ8r6XfF/JJbGI/n5MmdW7BbBGV8j2hae+XKlbcsjSn6x1QDdx89TXUxjJReH9UEvd09YWtjC6cWPRTJ99CRQm49AWQZA1fG9kmgJddNYVEhAJZ8RtWugp2SAEt3fc3GCTUtbFAwb15ErFyJPTuihWT6wX0xGDZkCPJ6ekKdxwLennnhW6IcvKxtYZvHHFZFyxoFXGS5LGq3hlOHYXAKHgA7V3d0De30RjBL0LR39x4ULFgITo06CKl5p9CRUAcEQW3nAG8PT6FeRgZ50oSJyJMrFwi6YmJiwH23rl/D8sWLEdKhIyiv/77Bc0rvuSmeqQbetQb+fhCHDyWG8a5l5nl8Pzng2bBhQ8XFJNu3Qh7e2TUvChYsAe+8ReBbuBR8fUvA06sAXF29YWHpgLz5ikMxNywlVA8paFGxUoAwGaxZqynKla8Nrukf1rBRkIhDMOXhWVQsVEJ0cS0ED88iKFW6OmrXaQ539/z4KtvXKFO2rFZ8579c28d87icFuB4+vItHjz5ewEUfLSlyIcEefbSyZPlSj1Wij9abRC4IuLZt2xYv7pGgtkhGSwpsEDwR4FGUg+ArEciLn5tLgizGZd4skyyfCXB9zK9v2pTt/ovX+P1yHK48VlSVOI9Op9BQZZJjKyt0mbsSDUO6iQkS36UTxRG2zp06pbo/F80SyY5xXr5nz56lTeWYUv2ka+D58+do2rCxmLvKrlTVeMGMkbCqG6RjMmgMXBnbJ4EW1/HHqzaGpb0Twm0chUlgAtByEQAsxsYRNc2toLFWo4CPD2J27cQf587i7z//xJFDh3D9ymVs37wZdi5uaDJvDZqHRaPerDAUqFQLaisbmJevm0Q5m8KmUagwk3Rq1QtOTq4IW7EyWXOdQwcPoljhInCoHSjqwbHDUFg16CDStyjlD1uNI8qULCVY5SdPnmD48OFwc3ZBmVKlsHL5cgwZOADdu3X7ZPwvPukH33Rxn2UNkI3mpMd9+vRB5cqVUcjXV6gB0jy/b9++Qvxq374YMai/d+9ezJ49G/XqN4KbO0FYIeHfRf8smhlWqVIfffuPEuaFI0ZNwW9TF2DEyMno1XuoEM+oUaM+Alu0Q9ugjqjfoAlcXD3w9Tffws7eHt27d0+xMFd6vlGfLOBSqz8+hkuCGK4JfshoSbDDNRkwQ0DGuFkyZxHAScal02N09A5s2bJFC4wYj35fBE0yHuccM2a2yDyYV0I8Ra7e0JeLaRb2LZKen29T2d+hBq4/fomZ5+7j4L0EGVtKp5crV06wTgVLl0eZuo1RrmzZdzIt3LtnT6qDLSm6QdaL5ob0ETMFUw28Sw1ERkQIOXi1tQ2cOwwRIMWmcUgCaErSV0sXYCW9rS5SHi0t1VrAFWfrjAe2LkJp0DK3OUrWaoQag8bBNo8FOrRtixtXrwhVTTcXV9y6dUtYMqjdvNB02Wa0CN8llqbLtsDJzRuWpfyTLme1JrBv3Vdcj0O5mvB0dMSB/fuNVhFlnl00GtiXr6Wd2Nmqfjs9Bo3gzlZtB3uNRqigcV6tFcuXQ21lDRtLKwwfMsRo2qadphow1UD6roG7d++C7iu581jB3MIODo554exaEM4u+WFn7wkrKztk/+5H8S2Wat8kEb777juhTuzrW1j4g9NH610GbdNr7X1ygOvhg3u4eeMaPlbARR8tZc6tBGBE4JVI5MLMTLBSVBqUwIjbUq5++/btWsBFRksXvBF0MQ9DhUI+8GSwJCiTjFbGDPpzkhEMUmCDfmYm0Yz0+mq/e7mfvvoXB+++wJ1nr7SJsFHkBIWODg6KqZ+5Baq37YSREya9NZtER3sJkNJiTRPFWrVqactu2jDVwNvUwNMnT+BXpCjUuXLAqWEHAVA0LXoitxDN0GGr9IAXGSzJcsVva0U2dMFXU5hXagAvG1ussnbAUms7hFjaCkEMVzdv1Og3CoFh29E8bDvKNGgJB1tbRK1fL0Z/KelOU6C9e2Ng4eCCwBVbERi+SyxVB4yFtZOHEdEM/bwtarUSPmnOIcNhX7Y6vFzdsG3LVr3qOXzoMCpXqKAIZHQcCqeQEbAWzJbuNSr1YF6mBmwdXODjnRfz5swRDFxE2EqULlYcf//1l166ph+mGjDVwKdVA1QPpCvLhg3rsWDBAjGNzIgRIzBhwgQherFw4UJs3LhRmB5fu3ZNuCjQYuZzAlm6d/yTAlwP7t/Fxwy4dIEWwQ5FNMhKkUlKWPTn5mI8mgQqQCshHgEX50fSF+L4RpgnGpoOEuQZAi2eR7+xhHwV1s1wbi6TLLzu6/J5b7ORHNC/vwBL9EPpNj8CLYZPFuaGd+7cSVEjSqVCv+LF3wpwubm6wt3N7a3O4eTLNF00BVMNvEsNTJk0GRpLa9iXrioYHofggchTzRBw6IMZrY9XNUUcw7po+fhzdOMpQMXaswByW1jC2sIKGgsrONk5o8GURVoAJYBUWDTcvPLDv2oV/HX7tnieaSq7adNm2Du7C1DGeM1XRcOjeFlYVKynA/oS56mUryks67YVc3M5cU4xTx/kdffAoYOHhHnh6VOnkNfbB451WonrpnCIdYOOyadbuRFsHF1hZ6PG1EmT0L93b2zauDFF7cG73BvTOaYaMNWAqQbSYw18moDrIxbNIFtFpsqQ0SLwoY8XwZUuA5Xpi8QiFwRpO3bsBEGXZL8I5owDra+06TEumTBOyqwHtIRkfFa9eCwHy5g/f/70+FybypxGNUBZWVcXF8FyqW01sHd0hp2DE8pUqoIF8+eLEXhjWT969AhLly4Rc2JJufmUsFuMu3zZMqFcZGNtnWLQpVarhW26sbKY9plq4E01cPTIUbg5OkPjXUDMxUWWx6Jmy2SAhw7AqdYU1h75YFeiEtRNOhkBXU3FBMWWJarCyq8yHO0d0XhWGALDdwrAJc0Eua7SqR/szS0QtX4dli5dihaBgVi9ejXylq6AwFU7hDlh6TZdYFXA7w1lk+xbM6G4qG7SRfHLajcYGjdveLi4Yc6sWShatDicmncVxzhhslVAcHy6OufrMXvKdZtXqg9rr4Kwt1HDztoGRQsW+ix8Mt70HJmOm2rAVAOpXwMceKLfaHoLnxDg+hdxcY8QF/cQt25dh5WVlR6o0AUYH2qb4hiJJxiWIhdfC/AkGS2a9BmWU8i2Z1UAlCKasT1e5CKDXlwyWopJYIIUPIGWIZtGgEZAR3AlgRu3dVUUTaIZ6e2VTtvykuVavnw57DQaLfip0LglJh+9Ae/CxeGTPz/6jxqLESNHYsyYMRg1fhIC2wQJkObfJhR2nvkEWDMEW66urggNCdGmKY8TcNEkYc+ePVDb2CQ6XrNmTTg5Oibaz/N5nimYauBdaoA+iyWKFIWtWgMyQc6dRsGaPkxJslw6gIQTHLt4wr6Mv5j/SszhlQikNBXmfzZueeFbwR+BEbu1YIuslQRdzRZFwc3JDaHt2mHjhg2YNGkSlixZguL1WyBw9Q7UnxUGjYMbCHgUk0adcog8+dtwnwKS1E27gKqDjs26wNbJDbb2TnCs20oR1ggZlmKwpWX2qjaG2quAIjhiZYNTJ0+9S9WbzjHVgKkG/mMNvMlkj8dpAhgRESGmiEgPc13RnPro0aMYNGiQmLMzPDz8P9bS+z/9kwFculX3zz//IFeuXHogxBC8fAy/Cb4km6UAnm8EUDIsG4GRri8X45LhMhTN4Hk0HZTgiWsCKF3VQZk2TRR18+Y2wZc8LtcFChTQrVrTtqkGRA20b9dOC3JoXmhtbS3krgtXqIbZFx+hWuuOMM+dC6OiT2D0zlOwtdXAztEJ3//0k/Y8Caq47tunD9iA6u7j9psA14wZM4RJo+F5/D137lzT3TLVwDvXwJgRI6DOlRtOjUMEy0WAYhzU6LBbBDlkuFzzwaFCXQHULGqRGTOIQ6n2crWFwERBvzJovmSj1pxQgi25rtp1oPDlOrh/nzD74zNfvnN/tIjYjSL1msOybE2D9HUBVtKAi2VSN+4El86j4BQyDM4dhoptzj2mbvS2IiEEkI2gdnaHnZU1glu1TpLtfucbYjrRVAOmGkhRDYyZugy7Yo+D09cYCwQvjo6Oor/HAfqCBQuK7+/HaoZPVl+WV/ZNOaCb3sInCrjuIHfu3InAg7xRH3qdyYjIBX2nUi5ykVGYE0rAxfP0lQzp95XNCJumEqBKzgdGQEagpUjG67Nkkk0ziWakt1f6/ZT3zz//RKuWLQUg0gU7BEjeRfzwf/bOAy6Ka/vjScwzvb2X994/ifQiRWNJosa8xESNxt6SWGJviV1jSYwt9o69F+wV7F3sjaKAKNJBkN5hgYUF/P0/5y6z7C4LgoCwy5l8JjM7M/fOvd8ZxvnNOfcccjekPFoNm32FT79opgy0YWyMd995p4ioovJnz559bsF1QodQozo3bdr0YmDwWQySgN/Dh7AxM0fd7zoIq4/1rzPUBJe6qCExpSZsug6CaYMvYdNtsFJwFXFFVB5r1LEPzK3sYFHHCPa29dGy92D03XQIQ4+Ra+ENYeWiZf+dJ2Br/ylmzZiB9LRUzJg5Cz2Xb0WXuSth0bAp6qiCc0htkJbq7dK1TbnfauifYryW7fhFsP5tJuzG07gtCv9OZbSFoq7fg2DU9ieY232Khvb1sHP79hLDzRvkzcKdYgLViMCCdftR274LPu00ChPmbYS7lx9yFApVC2NjY/H2229rvCPTh/1///vfaNOmjQgTf+bMGcTHx7/wv2USfRQllf797tWrF0xMTIrmo33pJQwbNkzVH/WVjEw5rrv5YP7afRgycSmy5NUnRYyBCq7Eaim4SMSoW6pI7JCbofbYKwrbrivIhbqlSgqaoR3kgsRUUbfFl0R4Tsl1kM5L6zTuS1t80jkKIx6+w1EK1f+SeV2DAPlRT5k8GfZ2djpFlLoQo3USYO+9+67OYykJ4/NauPz8/HTWyYJL43LxjzISILeb/zVtBivbeqCofjaj5xYIkGcJkUEw/eJb2PyozF+ltHDpLmPUuR/MPv8aFuaWsDAygXUdY7TsMxi/bDwgohWK4BlHr6PVz/3EuKiAR74YNWEiBjoeQ73PvoRR+94aosio8wAYt+mhJgAHoU7XASLhsnGrrjBp0R4mLTqA1o069RNizajHUFgPnwazfiSyBsK0z2iY96NAGbrElda2rgOVljprOzT/oikodxdPTIAJVC2B6LgkvNewB2rZd0Gtel3xSt2OsP1+GPYcu4Qn0fFw9/DAa68VHbai/T5IeS3JsjR27Fjs379fRCSkaIMUFp7+/SdXxGe5L+oiQWXy8vJAQbRI/NG//ydPnhSh5s3NzYu8E2u3i36T9xXVo1Dkgvp74+5D/DZtFT787Ge8YtMJr9p3waptzrpOX2XbDFZwVUeXQvXcV0qhpWlVIkuVutAiCxSJH+0kyJTXgPJwqQfNIAH1aq1/QDuXFokvEnkkslQWrdq6EjC/gtcLxodJx1Fbvmz2ZZXdnHzi6k+AEsV6eHjg119/1RjXpS22JMH1/nvvFRFHda2txUO3JMF18+ZNnWO4yL2KHthUh/Y5WXBV//unurdw2KDBsPzkY9iNngNK/GvUnQSHbvGkLlBMv2wJm5+GChe9kgSXqKvrICGITJt+C8r9RRYvG6u6+LJ1B/y0YC2GOl9FnzW7YWlsguVLFqP9T33QcsgYmHzVRk1YKdtl8l0nmNdrCCNqIyVZ/q4zzOs3hoUZBbOwgNFHH+M/H/wL5samMLepB6MfftYK6kF9k2YtcaVDgBm36iLEYrvW3+ORr+9zvXxV93uA28cE9I0ACZE5q/cIwfVqva6gmcRX7XpdYfztIDRv31en1UiXsJG2kevhm2++KYbr2NnZoXnz5qAEyZMnT8a6detEUJ+LFy+KnHwPHz5EUFAQQkNDQR9EKaUMeWRRmHgHBwchrNq3b4/PPvsMJLDee+89He+5hVG5pTaoL997/30sWr8fbQb8BbOWg/H6p901+tuk2zjIMqpXYA0WXBoh2Uu+wOoX+3nWKRQ7CS1t10G6kYuGjC8uyAUJqLdBQTNIcNG6lJtLvU1Kl8DCHF6UU4vOUfTcytxcJLIKhVZhXjAOmqFvj9qqae/T/HyEhIRgz+7dmDp1KoYOHYp+ffuif79+GD58OCj31qaNGzFj+vQiwoiCXiQkJJRo4SpJcNHXNgoDz4Kraq69IZ91yYKFsPrkE9gOmwq78Qth/OOwYgWXUdcBKvc+Ek+ShctEjOHSFmmSqFFfDhah3c2afANzK1tYmJjB4uM6aPhZU3w/cAQaNG6CenVt0PDTRjC3tIFRp77K85FLYReyYvWCRV172FrVhU3zVjC3sYelkTHMjUxgb2OLHt26ia/IAf7+WLFiBWwsLGFuWbeYgBva7dUSX0LMdYSlpTW6deqM8MePDfk24L4xAb0jEBoRg/8066MhQpTiqwte+aheEe8m9fdHaZ2CWTk5OZXKGiaVqcglRRsmMUcfdHXVW8vi2yL9I2H5ZoMeOHHxdrX7AMSC6wUKLl03DAkwyfpEgocElHZ+LCpHoor2SceS4JLGcKnXSy6B2hYtslQVdVt8WcOiJZ2bxJ96fSy49O45W6UNpi9r5GZA7gLki00zrUuuBxRhTVsYVYTgolD12vWyhatKbwWDOPmRw4eVebJ+GS1yV5n0/K1YC5Dp1+1g2uxbYTEybdgcNt2HaI3hksSVJF4KfpNbXpcBQviQaKJgGiatusK8UXNYkCXKyASWpubCwmVuZAxLY1PhhmjeuBnM7BrAzLYBzK3tYGFiCgsjY1gYm4icWGTNIoE2f+48kMiihKP0d5j/VPn3uXfPHhHCXWkpk9r0rKWyzRSG3tLEDIP69ReuRfR3zxMTYALVhwD9rQ+cuLSIICHR9fK7pYtx0KNHD1AQujfeeEPjvVD9HfFZ6zRW7LfffgO5Jz7rWPX99C5K0YnJg+Xzzz/XWbbWxw2E9U6y4kmWvPFzNhQbMKQqr5BBCi5Kwmpubinc8cglj0Kk6xIcNP6J9kuzsABpJQOmG4Dc8sjdTjru9dcpvLt2wuKXRN4qEjfScbTUTlhM9ZGVqXZtyntVEI79TXId1D326h8ibDtZqpQugZJF69q1ayKc59KlSyHNDssdsHLlKqxauVrMtE7mW2m/tFy2bBlWrig8jo5fsWIlaLt0DC2XLV2Gffv2VeX9yec2MAIsuAzsghp4d9xdXWFlZg6bbv1F4AzTPmO1XPAkgTJIWJzIMkWuehbm1rBu0R52Q6fC9PvuMPnqe5h+/j+YNWoKi08/g2W9RrC2/xRWNvYwt7CGmak5jD/6BHX+818Y/ee/MP7vRzCvYwxLUzMhimhJQooEmJhJXNFvElhGxvjkP/9Fnf/+nxBnJMoG9u+Pc2fPipcl+uBBrr+xMTFIiI8XX31JINHvZk2U7VF3hyx+fRDqdO4Ps8+aw9bKGvPnzEVqaqqB3wHcPSagvwSiYhNh+u1ALVHSDS/VfquIgPnmm2+ENcvNzQ3kGjhu3Dj8/vvvIp+l9vuzujB61voXX3whcmZZWVkVOSeVbdSokQj1Tu+qgwcPVgXzIKuWv78/PvjgA53lqOzL730ixmqpCy6bNsPFOLXqeNUMVnCRqwNZenRai9TCsUsBJCjpsPaNIwJIvKHulvcOXn/tTR3iTTn2St0tj86tbS2isVck8tSPI9FFUQu1z60MsFGYm4vaSSJNOo7cCXliAvpG4HkEl8vFi3iWSyFbuPTtTtCP9kZFRaGuuSXqtukhQsOb60pkTLm5OvUTVikLy7rCEkUBMCw++QQW//kXrE1MYGNuATNjE9ha14W9rS2afNEEHdq3R9++fTFy1EiMGzsWk8ZPwMypU/Hn7xMxYfx4jBkzBkOHDEWXzp3RwN5eiC8SWZY0zquuHSzr2grxZWNlhRlTp2L2jBmob2uHju3bC2FFlixKDnrJxQUjfv0VK5YtB0UXfVrwH1mfp/7xJ0xMzNTcCiUBqb0ksdUPZp9+AVsLK8z9e7YQcfpxFbmVTKDmEliz45iGlauWbUe89HJRTybKPUhia9KkSaCx0TKZDGS8oGiFQty8/DKMjIwwcOBAEUSDhFTt2kVTCZEli8ZkkWWLhBq5BdIHn8aNGwsrV6dOnfDPf/5T1EkWNHpGPX78WAi7jIwMHD16VLw707sCffCX3nl1Ll97G7XsOqKWvXKc2psNusPlRvUN3GOQgotMoHXqGBW5UJTQV90tT1iLXq1dREBRgmCyTknue7Qk6xdFD1S/6NpBLug4soRpizwKZEFCi84niS1a1xXkQrJoqZ+bymp/YWDBVXMfoPrc8+cSXC4uLLj0+aLrcduVR26FAAAgAElEQVQpiha55Vl/00YILqthfxVYuKQxToNg8vNvsPy6LazqN4L1Z01h/fmXsLatj4Z29hg2dBjWrlmLU6dOwd3NTYxzpFDL9HJDLn6UD4csUHn5eSrXW+GSm690wyVRRC8hj3zuY+Zff8GCEjGPnAX7CQthO3warE2NYWVpKdxu6KVm9MiRaN60KSLCwpCSkoKhQ4bgzz//BA1ip3NJrr1CdD19CldXV5h8/AlMmn9f7Ng0EUSjywCYNWomxn1t27IFuWohpvX48nLTmYBBEkjPyIKbtx/W7z6BAROXoZZdZ5WV6xXT5hrvsSSayGPq8OHDeP115Ud9et8kYUTPJvJ2ovfe0aNHizDxXl5ecHFxEZEKKbKgugWqc+fOuHPnjnjOPXr0CJQri0LN07OHLGgUYIOeqQ0bNhSiKzw8XIz5JoH21ltvwdvbW7SFAsXNmzcPV65c0Wir+vu3WH/1NdSybqMKCjJ39Z5qN25L/QYzWMElRSkksUMWJEnskJChdeFm+NLLGhdTp9CiIBda45rod6mDXFCCYQ2h9ZZwM9SOJiiCXGhY05RBLoqIvFdqicAblPiYJyagbwRYcOnbFavZ7SWB8kOr1rBu3Ezkqqr720wtwTUYFFbdasgfsB07X4SPt/t9CeqPmIWfe/cVYxglkUNLaZ1c+lQzWZwKfku0SRDRRMuc7Gw8DgrC1o0bYWlVVwTvoOTEFKre0sYe//fhv+H78KF4OaIXJysLC9z3vCdEXUREBB48eCC+Gh85cgRurq7CyiW1IyU5GZ83bARz+4Yi8IZOd8JOfWHWsAka2deD47btok9SO3nJBJhA1RCgZ0ZOjgL+wRE46XIHDludMXDKcjTqMgbvNv5RiKxX7Dqjll0XldgS47c+tNZ473333XdF3qvevXtrbCfRRVEGBwwYALJm0QcicjGU3ocpLDtZzMePHy/KtWjRQvzevHkzSHhRKPkNGzaA6ifX423btiEtLU1Y9UksdevWTYSDl6JwDxo0SAgzqpf2U/RCGr/13//+V6NdGqLr5VdQy6IFXq3XRVjxrNsMwwyHnbh9zxdZ8pxqJ74MWnDVqvUPYaUqtBa9q+GWJ104uoFoDJV0HFmhdLkO0vHaYdvJJVA9P5ZU5z9erV0wRqswHLtu10EKclEYDIPa8PprZE3TFIP0WxW2/c13RJTCqvkz57MygecnoEtw2drYiCiFuhIYUyLlcxddcOW67rDwW7duFV/a2KXw+a8JlyyZwNCBg2Bl3wj1fl8Em5F/qyIRFooTynU1CMbdBoNCwJv1Hg2rfuPx3XetVQElJEFFS5okC5PYria4xHblXtX/FTnZCA0KxP7du8VLiP34hbAdvxAWAyfBol5jmNQxwq2bN4WYS0pMQl0LS1w6f1648ZBb0KmTJ8V8+9YtBPgHIDYmVogzOndWZga6dOgIKwtLZV4ujdDv1K+BMGvYDFYmZnDcuq3avcCUfOV4LxMwXAL097tuuxPert8NtT/tLsYySXm31Mc0qa/Xsu+Ml976UEPAvPPOO0L4jBgxQmM75ekiQfXVV19h4sSJCAsLU7kCSu+5JMA8PT1FFENfX1+RrFj93ZXW6f2aXAbpIw9FHJQE26hRo4RFi+r617/+JaxnEyZM0Hj3pcBwK1eu1GiXdG5pWeuTxoWCklwL7bvgjU+7o94Pv+LY+VvIy8+vNjeBwQouSiQpue+RKFIGztB0CSRlrS6glGLnjaIugS+/rGHRonqLSzCsjCZYKN5ITNE29ZuQbhSyaKkE1FvvCrGnDNqh2UYSc+rWNEkMUh4unpiAPhGgfyD27C8apdDS0hKHfCMxy/GwSI6sEW3Q1BTT9pzCLCcXmJmZaUQipETK45ZvwH6/WNCAXPVytM9h3QZk5lJiRn2ixG2tbgSm/fGnCH9uN2YubEbNUea4KjYXl1J8UYj4Zi1aii+6QlRJFi1JRtFv9f+0f0sWLvEVWym4jhw6iDr/9xFMegyBUfchwgXQvFFTmH5SB3t27RJiiFx3aMzXgT17kJWVKV5yKEEpCS9yTaT96u1JSkwQbojWZuZFx3F1HQCzxl+ifl1bHDpwQIi06nZtuD1MoCYToL9l57M3UL/9CI1xWuoiS329lk17vFT7bQ0BQwKIPlyS27G9vb14VyURRlF+SSjRWCxK9RIQEADaLgkdWg4bNkyUI7fBmJgYaFvJpGNpDDaN1SLxJm2jf7MpHUzPnj1x/vx5MZPI+/bbb1XHkPWMEi1Lro5SWVq+UqsWPmvaAsbNehQKroKcY9RnIT7tOuPzbuOwdNMhJKfKqvxWMUjBRQP9rCythYjRHRK9aJALElBFLVVFg1y8+ebbePXVogMFyR1RspDRkuba/ygMciHdKMKapuE6WFwgDk2RR/WJICC1lNEReQxXlf/tcANKIED/ECjynyIjNx+PZQrcisuCU0Qmxq/bBRMjIw1xZGZujrX3IjBh8wGdguuP3Scw/dAFnYJr+KK1WOcVKQbmagguIyMMnb8Ku0Iz4BSegTvxcoRnKJCZq2wXtY8nJlAaAksXLYaliYkYO2U7eu4zBBcFm1CGTrf7/EuQS58QOCSu1EWV9rr0m5bSekEZGpsVFhSIC6dO4b//9zGMu/RXnYPyfdU1s8CC+fNFOfqKTNG9li1eDFlamnDlWbNyFX7u8SO6d+uGcWPG4OzZs2I7jc+ICAvFwjlzYPzJJzDq0KdwHFfXAaC6rc0tRDRCqpcnJsAEqieBtPRM9Bm7EO80+rFE4VXb5gfU0vFeSm5/NJ6T3AZpDBYJLRoDSkF96N2VXARp3CmNw5LeZakMjdMiV0Eag0XPOrJQSfvVl46OjsLiThazL7/8Uli56F14/fr1qo9AZP2iBMnkxigJLFrWqVNHo06KGv6JkRkmz1yB5dvO4IMmvXUKLklokvAii9fkuRur/OIZpuBKTIKpiZmOJL9KoaUujCg4hrbQImsUWcRIXElWMrJU0YVWv4lonbaRWFOvk4JzaI+9okAa6oE4lJYqGh9WS6NOOjdZtOjcUp3qQks6PwuuKv/b4QZoESAJo8jPR2BaDi7GyHE4XIadwWnYGpiqmkevcnyhgmtrUOH5twWmivY4hcvgEpOJEJlCiEKtbvBPJqBBYNP69bCs8xFsB/8B29HPsnBJgmswjO0biZcXIaAkISWJKV1L9W1q68oxXIG4dP4cPq5jBOPOfSG5M1K4eYqiSMEySBTRvHDBAvw5aRLiY6OFy2BaaiporFZSYqJwv01NSRGujlmZmQgJ8Me8WbNgZmQM445UrzIYCAXRIDfCJQsXiRciDSD8gwkwgWpHIDcvDx73A/DDwOl4VS1IhiQ8aPnxV30xYboDvvymDV57XTO3Fommli1bYuTIkUJo0Rgq6X2TAmvs2bNHWLFojNasWbPg4eGB6Oho2NnZieNmzpwpUhW1adMG5D1GljGyfFEdFCyD3lkXL14sPvZIwowEVa9evXDhwgXhXkhjvooLH09eYV9+3QbT5m/A5v2Xse3QNTTsNLZEgfmKbSe0GfAXbrj5QJ6dU+XXzCAFF0UplIJm0MWmaILqbnkkZEj8kFVKuqFoSWJHPcAGiSISO7pCxosgF69rhoync2gLLVLxZGWThJvy3G8Il0Ltc1M0QklkiePo3MWIPA6aUeV/O9yAAgI5eU8RI8/D7Xg59oZlYmtgochRF1u0PnrV9hcmuAbPdYC64NJuy7bgdOwLk8EtMRsxWXnIzSfrAl9WJqBJYMe27bD85P9g238CbEbOVlmXJNFT7LLRl6DkwhqCS3IjlASV9m/arr6PXAqzs4WF6+olFxgbm8Ck4y8FgmsQTFu0F8KofdsfkCGTITkxEbNnzULXjp0Q+OghQgL8EBrgj9DAAIQFBeBxcDDCQ0OEZSs8JEQIriEDBwormUXDpjD5qjVMv2kHSwtrDBkwQHzV1qTBv5gAE6juBA6dvIrmP/6O1+p30xAk/6jXFW0GzsLWQ9ewxvE0Bo34A42bfIN//+cj1dgq9fdS9XUSR9OnT8eNGzdE+PgdO3aIMaXSMRQOfv/+/cJ1kCxf5ApIId7pvbpt27Y4ffq0yF9L48HIsiWVK2lJLobk5tixez/MX7kb2w9fF0KLlj+PWQIKCqIuKGmdLFpvN/wR3/WZgt1HLlYLoSXdLwYruExNTcVAvnffeQ8fvP8v1fz+e/8UWbNJsavPb731juoY6fi33qJIga9pHEcZt99/7wONY+kcdGOo1/faa6/j3Xff1ziOyr3x+hsax1GZd95+V+O4D97/pwiRSVY29TrffPMtUPupfTdv3pKuIS+ZQJUQoBfDiIxcOEfKsT2o0IqlLWzUfw+ZuwLGWi6FlpZWWOsV+dwuhevvR8PSuq6Gm6KJsRHa9R1aouBSb5djcBqORGYhOitPvPBWCVA+abUksG/PXljW+QQ2fUaj7m+zdATN0M5Zpfz9cZNvMWL4r6oAFSrhpcu9UBJZ2oKrIEohuRTevHoVZqZmMO7QWyW4TFp2EgmQv27eHP6+DxESGIDZM2fi66+aw8fLE34PfODjeQ9e7m5wvXkTd13v4KG3F4L9/RDi7wcP1zv41M4eLb9ugRZfNoedpTUsTczQrVNntmxVy7uRG8UEnk2AnjUUwfC6mw8adRyJV2yVwkSMa7LvgnaD/lYJl22HrmLTvkuYt2IX2nbqiY8++qhEMfTqq6+KfFokpLTFEu0zMTERLojNmzfHm2++KY4RhoeCkPNUhn5rl1X//eGHHwpLm5+fn3BzPHjKVUNsDZ+2AbXrd9MQW9S31+y7oO+4RQgIeQKFIrfa/VtukIKLbjaR24TymxjoTH3kiQlUFYE4eR5cYuRwDE5XuQuqCxhd65v9k/FNp+4a47QouEWjZl9hS0DKcwsuKvvFNy2L1EshtFd7hJW6fdRmxxAZLsfKkZLDwquq7q3qdt7zZ8/BytgIdTv3g+XgKQWCS7fIKrR2DYLJN+3QrEkT8cKgIbYkq5b6UltoqQkwBY3hCg6Cx53bsLG2hmm7n1VWNuPWXUXyYxJNB3bvxmoHB7Rr/T1szC3xRaPG+KxhQ3xqb48W//sfBvbvj2l//oFjTk5CiLmcO4e2rVrh+29bqsZ00biNwIAAEZ2sul0Hbg8TYAJlJ5CZlQ2nMzcwYNIy/LtJLxEmnsRKmwEzsX73RSFkyGJE8/6TriLADrkLUiANSoLcrl07Yckio4K6KKqodTJi2NjYoE+fPli4cCEuXrwogg2p9/TohXvYdoisW9cxYPJq4TIpxKNtJ3zUvC9+Gj0fa3edEEJLvVx1WzdIwVXdIHN7mIChEMjLf4rANAV2hsjKJGRIzMxwcoGFpWY0QQp0MXzxelFXSUEzph08X2zQDKr79y2HNCxcVC+JuV+XbhRiTpcALGnbjtAMBKUrI7oZyrXjfjwfgUe+vqhrZg5LIyOYf9YcRu17qYmuwgTI0vgnSXSZtu0BisBJQZzUBRe1Qv23RrRCSYRJggtPhaWJXAHJYtWgXj2Yft9dZeEybvuTsHBZGJvA/BNjfP9dS2zasEHk5Xpw3wdz//4bnzdoiAVz52Dnli3YvmUzVixbhuGDh8DK3ELk4Dp7+vTzgeFSTIAJ6BWBlDQZlmw8CKtWQ/BW4x9h0+Y3rNh+Rli7aEzU6Sv3dVqFKAE7JWynhMeUkLhr165o3LixsGZRniwK6/7++++LKIY0douSGJN1i6IaUnAN2kfjuSgABo35oqTKM2bMEPXR8/FZQXnOXL2Pdbsv4ru+f+GDz3vC4rtB+GXCYly4cQ9ZWdl6cw1YcOnNpeKGMoGqJ3A/OQfbtQJhlCRclPvSMH7jPtg1aKRhhSJR9EWL1sKdkI4rUXAdOKdTcP26ZIMQa2Tlat62E0xNjDWEl2Xduhg0Zzm2BCSXUSCmYGdwOrySWXRV/V1XtS2gyF09u/eApbEpLI1NYGFmAbOGTWEkXPuUEQm1xRb9NmnfCx++/wH8/f01BBb1hvwTNISWmsDS2A4gV6EQY68e3ffGFw0bwvTrH2DS9keYftUGZp9+IQSXraUVTp88CQqEoe77QB4eDx88xKGDB7F+7Vo4LF2GNStXYu/u3SJ3V1RUlM4XrKolzmdnAkygMgnIMrLg4x+KVY7H0Kr3FPw4YgG2HrwGd++QUp+Wni2UaoJCu1PwDIpsGBgYCHIDpDFclJeLQskHBweLfRShkBIgS6kpSnsicuYKDIsW7pF3fQLwODIWZLWraC8v+picnp2Lx2nZoPXKmFhwVQZVrpMJGBgBerjFZOViRxktW/PPuaNFpx6gBMaqsO3GJIqMhdiaf9ZNJYRIlJFVSnWciYlYJ+vWTKdLOgXXgFlLVeUXuXjiyzbtleW16vm6Q1cscvFSHftskagck7YzJB0J8jwDu5rcnbISyJbLsdPRER3a/gAbC0tYGBnDwtwKJk2/hXG7nmrjuiQBNhh1OvWFkZGJ+IqrsmhJwkpakuyidfXfmlIM9HWZAl0E+j7Ez926wbSOEUw/MYLpRx/D0shYtGen446ydomPZwJMQA8JZOcokJSchqjYRJFbKje3fP8+UfkH/qE4duEO4hLT9JBIyU3OyMnDo4Qs3HqShnMhKZDnaqa4oGfvhIth+GjtXXywygONt+u28pV8ltLtZcFVOk58FBOo0QToi8/pqKwyC5YeoyaBAliYGhuLpYlRHdg1bIJfV+zChgexGvUNnrdCRwRDMyy8eA+LL3kXcUckcdam1wBQtEFJQG30jcfYDQdh/9mXoHOJc5soz91jzB+q46TjS7O8EpNVo689d15JgP5hpiTCt27exPfffgcrU7MCdz5TmNs3gnGrrqjTZaAqtDqtW9rWw5rVqwtFlS5hJQku9X2qdYhxyJQvK9jPD2NHjsQXDRphysSJmD/7b5H0eOTwX5/pksPXkAkwAf0mQIl7ZzvshH2roXjHrivetOmMt+27ouXPk3Do1DUoyim89JtO8a33jc/E68tc8doKd/xjuTtWuEZpHJyVmw+j9fdQa7k7ai13w7CzpbfyaVRUih8suEoBiQ9hAjWdgDwvXyQuLo1AUT/G4XYgRq49gP4Ld2OQwxGM2XUHf52NwPQL0VhwMw4bfJWufpv9ktCk5fcaFi4SVF9800oIsw0+MWjybdH9VnVtsOJOkBBSm/xSsPhOvKibzjFujzsGrziKfgt24bfVB7DKI+K5BNfBxxk1/fJz/7UIUDLiC+fPY+K48WhUr77S1ZDcDa1sYf7p5yJpsOn/2qBuvYb4fcIEPBUpB9QsWSpBVeBAWMxvOm1+fh4iwx8j2N8f06b+iQVz54pw7vdcXWFjZYWpU6ZotY5/MgEmYCgEaNzV5Hmb8UHDH/GSVQe8VLeT5mzdEa9Yd8T/fp6ESze9DKXbpeoHfQRLTc+EX3A0vHzD8SgoCvFJ6chXcwmk3KDf7X0oxNSrDu54Z4U7AhILP6KGpcjxloM7aN+ry92w0iO6VOd+noNYcD0PNS7DBGoYARJczhGUY6t04d+1j1v3MAkzXaKFGCKxJc1/X47BhocJoLFY6uHiSWxZ2dhiyRUf1TnJ0lXXzr6IKOv5+3Rs8k3AvOuxqnql+mdcjMZq70RVHdrtKs1vp3AWXDXsdi9Td2UyGdavWYtvv/ofGtjZw9rUXDXei8Z8tW7ZSljGnj7NL+o6SEJLElvSUnIzLHAtpAHlURHhQmRR8IuF8+YhNMAPAb4P0fyLJujzc09RR5kazQczASagFwQOn7yGlyza4yXrjqht2wUfNekN8xaD8FHTPnjr0x5iuxBh1h3xVv1uOHfZTUNwVEQnycMlOze/3GObxLOu4JlXmnbR8Xn5+cjJzYU8R4FMeTZkWXKkZWQKq748W4GDp900Ii1SjrHz1x9AliFXPRfJlfA1SVQ5uON3lzDVvqvhqai9wk0IrjdWuONCaEppmvZcx7Dgei5sXIgJ1CwC+U+f4kpcTrmECwkfSQhJy2nno9Bl1HSYm1uoxm6R2LKwqouRa/YXOd/kXadhZVNPQ3SZmZmjde8hmHYuUqP+aeej4XA3oUgdpRFZ6sd4JOpPFKSadVdWr95mZmaK6IAnT5zAaocVWLncAQ1s7WBX1wbh4Y+hIbgkcaW+LHgRUb2UFAgvElwxkZFCcK1ycMDMadNEDq3QgAAMGzwY3zT/SoSer140uDVMgAlUBAGX6/dUgqvdgGlISklHRqYcCUlpcPPyw8+j5muIrjdsu8DD21+cmp4dFKQiKysLaWnpImIqRRuMj09ATEwMYmPjkJiYJELBUxAM7YmCSGz2jEHPY4FodcAXvY8H4mRQkobwIkGUJc9RzbrGlNEz7UlUHBas3YcBE5Zg8rxN8PYN1hCGdAzlzopNToVXUBjOu3tj/6Vb2HzSBauczmDpgROYv+cIZu84jD8370VCapoInnHgpDJHlxTanpYUcfHQaTfEJqSKLqVm56LuVm+lFcvBHe+v9sCD+Eyxb929GGHZIgsXbX9YsF2bRUX8ZsFVERS5DiZQAwik5uThYDhZuVKeS8RQJMHZV2JAQkgSXOT690XrLkJsUcj4ep9/hdb9xmH8vnuYdSkG5CYoiZ/N/imYcy0Wk5weocOImWjQ7FtYWtuIHCGffdseUwtcFaW6aaleXqqnLEvqb7pCc5BtDbjU3MUKIkDBLEw+qYOTJ0+KL7JCTGkFxVBFJZQEl2ThKsi1SGUS4mIR4u+PTevXYeL48QgJ8ENogD+WLVoEilBIEcB4YgJMwPAI3H0QiJfJldC6I77uOblIB7Ozc9Cu/1+FoqtuJ4yYsVYc5+fnj8WLl2HhwiWYP38R5s1biLlzF6iWc+cW/iYhJk0UWOLgowTYb/VWueIJlzsHd7zm4IaZ1yMgy1EKNN+gSGw9eFU1X7jxQKpGLGUZmVi74xj+2ehHjTa+atUB81fvgVyeIwTWauczmLplPyas3YHf1+3EpA27i53Hr92BJ/GJSM+QY8+x2yoLFwktdeHlePg64hPThTVr9o0nGn35YucDpOfk4efjgartNJYrMVOh0f6K/MGCqyJpcl1MwIAJ0PtfZGYudoZmYGtAoRAqi4BZ6hqvIbjIwjX5qD+mOV0R47umHA9UWaqmXYgWY7Kk+slaJYk1KvfHiRCM2+OBWSdcMfV0iErEkdCi4xbcpKAcz9dOOufesAzEZ1e/bPUGfIsZXNcoyAblwRo+ZKgqHLJKYKkJKyHEdAgucezTp0hOTESwvx+2bNyI4UOHCrFFv/fv2Q1bK2sEBQUZHDvuEBNgAkBwaCRqW3cU47ZsWg/TiWTf8csaYqZe+xHiuGvXbgihRWJrwYLFYl1a0jZppm2U/oImElI9jwaIIBMUREISWtKSgktQ8Im/b0SI470ehQuLktKydB0XbxYKLnquDZ28HC/TuLOCPqjGoFl3RC2bzhjx50qccfXC7+t2FSuwtMUXCbKAJ9Fi/Nauo7eEyKKw9pdu+2L74WvYLgmvQ9dw/OI9YUlLy86FyQZP1CpwLSQXw6MBSRrbWu33BY35qqyJBVdlkeV6mYABEqAHaJw8D8efPN94LnXRpG2JovFckqCS9tG4L7JsSdYxabskqmj/Jr9k0Fgt7X1L3Z7fnfBUZBbiORy8Ad7BL75LgwcMxLfftEBKSor40qohuCRrl7rYkoRYQUYt+ptLT00VLoW7tm/HgH79EBoYIATY8SPOsDIzx10PjxffMT4jE2AClU6AXAjfrd9NCK7/fN5LjGnSPumfC7dqCBrr75XC7OjR40JokaBat24jtm1zFPPOnbvh6LgLu3fvxYEDh+DsfFRY4CmEeptDfipR8upyd7yyzE243NFSEiskvt5b6QGPaBk8H4aprErbDl/H2av3RfPI8jZwwlK8ZKUUi+pCSxJfFOxjreMx+ISE4/f1hYJr4nqldWtiwTblchdmOh7Eon3HhJthWHQcklMzsMP5hkpwUVj7pFQZnM64q0QgCUHfwEjQB+Mt3rEq90ESkx+tv6ca20W/p18NV43t0mZcEb9ZcFUERa6DCdQwAor8p3BLyMbukMKQ7JIlqqRlcYKLRNXiO3FFBBeJKIpkuPGRblE1/0asEGQ6BZdrvModsaQ2qe/bHSrD3cQcnf+o1bBLzN2tIAIUUOPzRo1FAlBhyZJElpqwKrJd6xgagxES4I8jBw+if9++CAkIgP/DBzi4bx+sTExx5/btCmotV8MEmEB1IpCjyMW/P+8pBNfrdl1F7i319t33DcZrtp01IhfSuC56ppCgkixa9+/7qBcrsk5iq9U+X5V7HQkQs01eOB2UhKj0HDj7JcB2qzf+4aAMn/7OKg/sfxgPj/shhYLr0HWcKRBcl27cwz9suyjbZd1RWLnsvx+OPxduwZCJy2DZYiD6jl0o2hGblILJG3bjry37MGP7QczffQSzHA9h8kal8FrldBrpmVnIzcvTEEQksBydCgUXRSykKexJgkjkLLkXHj1/V/ybnpCpwEfr7ipDwDu4oza5SK5QRiistcwN5ysxYAa1iwWXuDz8PybABMpKgB7oKTn5cE/Mxu7Q0gmvkgTXinuJRQQXWbzWPUgSokvdgiVZuJa4xleI4NofJoNnUrboD/WLJyZQUQT8/fxgY2mJY0eP6rZwaVu31MVWgSijge9hQUE4f/o0vmr2JcaPGY1O7dqj8acNYGdljbDQsIpqLtfDBJhANSJA/x7VbT1MCJdXrTsi7EmsqnUJiSlo2m28hnXrJcv2OH3ZTeTv27p1u0pw0XiukqZt3nFCTJH1isQWiSv/xCyVwKF2xGcoMPpCKD5Zfw9ng5PFPnctwXX6irfY3mHAtMJ2WXfEj7/NRWp6hqq+zKxs8ZvaRKIyICIKUQlJSM3IhCI3Fxc87kOycC0/eFI8FbXbHxmTDBqnRcKKXAopMiFNUbHJoGiFkuDaf/IOFAqlWDvsl4Day5XWOhKPkqvk+6kTMbcAACAASURBVKs8kCLP1T5Fhf5mwVWhOLkyJlAzCWTn5cM3JQfnorOwJzQd24PSdFqXShJcK710RTGMxlof3YKLRNcy9wQhuLRDzpNQIzGmbr1SX98WlIZ9YTKcj86Cf5qiSPb5mnkVudeVQYAihXX84QeMGDZcOY6rQESpXAslwaW9lI57+hT5eXl48jgMHrdvi9xbdS0s8XWz5hg/egzCQkMro9lcJxNgAtWEwNc/TxKC62XL9nD39keWPBtOp6/j/5r0LhQ1dTuhtl1XTF64FXl5yuiEGzZsUgmuwMDix3mmynNhutFLWH5IgLy10gPXI9J09p7CwycXCBMSYW7ehRYuEjinLnshI0uON+t3V1ndXrbphJMurjrrK26jZ2AoJhQEz5iz00mn18njJwkqUbXt4DURtTBNloUTLp6q7co2eauSw1ObOxz2U/WVxqTVXuGO+tuVrpDFtacitrPgqgiKXAcTYALiyxXl68jIzUeITKEUX2GZ2B4iUwmfEgWXZ1HBRaJqnU8S1j9M1hijJVm4lrkpLVylEVzUjn3hclyMyUKoTIFMyivC1iy+c18AgZ2OjrAyM0NkZKT4Ukv/6EsBMcS69m/lXvE3RftJtFEurofeXqhva4fvv/sOkU+eIDe3cr/IvgA0fAomwASeQaD7iLlK8WLVAb/P3oDPOozC6/ZdVYJGjI+ybI+/ljgKtzuqjgL2rF27QTWG68IFF9y75ylmT08vkIthSIjyY82GezFKN7vl7mKc1rf7fKHIe3bwCHo2uXppCq6TLl6g8VvvNehR2D7rjmjWZSxCHkcXjEx9RocB+EdEYcJaZbTCqVv2iVxc2qWCH8dh+yGlhYtcC11uPcTugiAaknWLLGDRccrxs1L5W0/ShJVLsm7RsufxQGl3pS1ZcFUaWq6YCTABSphMwSdCZLnwTM7BqbAMrHNNxOIbiZjlEosZLnGY4RKLzQGpWOlJLoVRRYQVWbiKE1xLJcF1KUbUM9MlDrMvx2HZrUTseZSKa3FyeCblCAFI7SBLHP0jwRMTeJEE/P38YWNphUMHD4qcOCSgJKFF7ZDWtZc5OTlISUpCRFioCAVP47haftMCfXv14vv4RV5APhcTqEICI6atKRQvBSHipSAUr1h3QuPOY3D8wi1h2ZKaSeM+V61aqxJcUlh4Cg0vzY6OO0VOrS7O/irXuleXu4ESBdNE4eFLEl70vLrjFaxhTXI+5wHK2/nL2IUa1jcKlEGJmVv2+QNjZq3Hpt0ncf3OfWRl6c5zGZecoopcSBEME9PSpa6pln7B0YXBMQ4p829JQotCxFPI+ODHhS6YUkFqt3aY+Dk3n0i7K23JgqvS0HLFTIAJ6CJADztyS0jKzEVgohw3wzNwOy4LZyNysMkzDStck4Ugm381HvOvJWKLXxq2B8iw8GYy5l9Pwryr8Vh0PQEr7iTjQFAWrsTn4ExgGtwiMxGemoO07LwS/5HQ1SbexgQqkwAlRe7Q9gcYffQJWrdqhSWLF+PWzVuIjYkB7aOQzCSuaKwWzfKsLMRFRyPI3w9+D3zg6e6GI4cOYsyIEahnY4OBv/Qt9ZfiyuwX180EmEDlE5i+fGeh4KLw6lKIdeuOcNjqrLMBMpkMK1asVgkuCp6hPR87dgJZufn4bKePSnB9vN4TshxlOpTfzoag/mZvrHCLxuNUuRBgJKakSQguT03B5XTWQ3wMCgiOwIef91K2Vb3NFCJeChNv0Q71Ww2Ff3BEkQ9Isiw5pmzcI0LFUxj40OiiuQYfBkYWCq6CsVwkuPYcvYVb9wKRnVN8Tq3ZNyM0AoRQ3rHKnlhwVTZhrp8JMIFnEqAHN83kkphLc55SlGUp8oVVKjvvKTIV+WKWK5Rf3ei4/HxluWeegA9gAlVIgO7tE0ePoaF9fViamMLCxBTWZuZoWK++CILR4n9f4/vvWqFH9x7o3rUrOrZvjzatWuOrps3Q9LPPUc/GFlamZjCrY4xmn32BK5cuV2Fv+NRMgAm8SAKrth8rECmdYNlqCFr2mlIgZDrh806jERoeXaQ5qampWLZshRBZlOCY3Aj9/Pzw6JGfWFIQjYSEBGQq8tBQTXDZbPUWFioap0WBJGiMEwXReGuFO2y3eaPfySCcC0lGVkEQijtagsv5rIfq3+XA0EjMW70X9duNwJv1uqIWCS0tCx2Jx/983hPhkZqWKAqkQRELKQcXBc+4GxBSpI8+fhFFBNfRC3chy8xGSV+kSDQ22HZfJTJfWeKK+7EZReqv6A0suCqaKNfHBJgAE2ACTEAHgYT4BBzYtw9jR43Gj127of33bdGqRQt89/U3+O6bb9DqmxbCZbDl18r19m3aoHvnLujbqzcmjp8Ax61bkRAfr6Nm3sQEmIChEjhw/IrKwtWk6zgkJKWgUbsRqm22rYcVESxJSUlYvHiZEFzkQkguhromcrP/396HKvFBEQjTs3PhE5sB601eeHOFUnCpj3d6ZZkrbLZ443RgEm57Bul0KVQ/F31wSkpNx/1HIdiw+xTaDZyOVymUvZqlbsuBs+pFxAfYhXuPFgiu3Tjt6qmxn36oJ11WdyW87uYPRW5ekeOlDeGp2Xi9IKkzCcp/rfZAek7xx0vlyrtkwVVeglyeCTABJsAEmEAZCNALCLkOkjtheloa0lLTkEZLaS74nZmRKVwN87Tyz5ThVHwoE2ACek7g/LW7KnFSr+2vIpy6h5c/XjZvVyC6OqJBuxFITC6MLBgXF4dFi5YKwUXL4gLs0LNo9PlQEamPRBVZs0ZfDIUiP1+45/slZmLV3Rh8uPaeSpSJ45a5YcPdGOG6J4kdWh4usHCVhFyhyMWitftVfXqpbkf8sXh7kSKrnc8IwUVWrn0uN4rsd/UOVlm4pPDw1AYav3XdPUBY2ooUAnAiMAmvqASXG3ocCSji0qirXHm3seAqL0EuzwSYABNgAkyACTABJsAEKoHAXZ9AvGShFFfW3w1GQlKqEAj7j17CG/W6FbgbdkSb/n+BxAxNT548wYIFS4TgWrlyDZKTk5GQkIikpGQkJ6eAXA7pgw99zPGJy8CHa+6qBBUlBKZIhSS8hp0LRZNdD0SSYHUrl8lGT2EJu+7ur2HhOnzGTQidZ30kooiFr9kVRlr8a+mOIuQ2n3JRCa41R84KV0f1g2icFokrIfTOuIsgGZL4IwF272GYKhy8erkZ1zXHb61yL+qSqX58Ra2z4KooklwPE2ACTIAJMAEmwASYABOoQAJhETF4ybStEFZGX/VHZExhgIfhUxwKLUVWHTBs0jKRsyooKBgUmXDRIqXoovW5cxeImVwM6ffChUuwfv1G4W446fJjVeJjdWGlc325G/6+oQx0ceXOIy3BpRzDtePAWQSEPNFpOSKrmvPZm8rxXAUBNFY5HitCbP+lmyrBtWjfsSKh4a+5+asEF+X/ovFkkgATlq6D1xAYFlOkDb1OBKrE5WsO7nCLLhoBsUhjKmADC64KgMhVMAEmwASYABNgAkyACTCBiiaQkibDq5YdhOD652c9ERhaGMI8PiEFTTqNVokuSo585Mx1eHvfF6JKOzKh9u8tW7YLK1dSVi4GnwnG62LMlrtKkGgLLrJ+9T8ZKNwNSThduu2rIbiOXbyHjEw56jT7BR83+wVLNxxEcmq6SvRQUuZzVz3w7y8KIxhSmz0fFM2DdcbVUyW45u5yRlZ2jgZaOjcJrG2HrsPlli+y5Dk4fNpdoz17jt3Ck5gkVTkKmFFve2HAjP9bdw+p2S8mnyELLtVl4BUmwASYABNgAkyACTABJlB9COTkKGBEAqVuJ7xu1xUe3v4ajfMLCkfd1sPwVY8JWLr+AGLik3Hr1h0sW+YgIhUuXeqA5ctXwsFhlZhXrlwNcjOkPF1nzpxT1UUR3x3comG//T7eVotQSOO6SIiZbvLCX1fDRVoXKkSCi5INS258tDx5yQtHyXpVIBApKuEHDX5Es67j0KLXZFh+Nxi1pGAZBdatb/v8oUrYrGoMgDuPAkWEQhrDNcvxENIzNQN/nLt6X2XRojFbNFGS4x3ONzTatPf4bcgy5WJ/ijwX7670UAnKBo4+qv6on7sy1llwVQZVrpMJMAEmwASYABNgAkyACZSTAKU/afnTRNVYrVOX3DRqJOGTkioTeadonabs7BxQLi6a09PTxTIjIwMyWQYyMjLF+K3MzCwRvEe9Miqfnp0Hv8Qs7PSJx6I7kdjoGQvXKBkSsxQa46jIWnTh+gOVuCFr08WbDzBwwhKVxU2Vc0vKxaUutup2wlufdscdz0fqTVCt+0dEYfzaHZiwdgfm7HRCcnph6Hbq5gkXT2w9eFWILjdvZdh4Sip//oaP2L7l4FVsOaCcL9/2FfWeC07Gy4vvgELBv7LUFe0P+Yl0NKqTVuIKC65KhMtVMwEmwASYABNgAkyACTCB8hD4ffYG/LPxz+g0eAbcvHQLlPLU/zxlSdycueKtIbhuegTghut9NOo4SlN0kTVLY+6I2rZdsHD9AVWgD+02kAuhX3gkUmQZwu1REpN0HAmuhOR0BD+Og4dPKBKTC8dhyTLkCI9KRFRsMuKT0pCUKkN6htI6Fpwsx71oGe48SceNiDQEJ2lazbTbUJG/WXBVJE2uiwkwASbABJgAE2ACTIAJVCABH/9QpMkyK7DG8ldF47EoWIW6S6Gn72NRsSwjC50HTsfr9l3xcoHroMi7Zd0Rr9h0xruf9sDeIy7lb0QpaiChpi7WSlGkUg5hwVUpWLlSJsAEmAATYAJMgAkwASZQfgLkKKh0Fix/XRVVA1m4AkJj4BccheDwOEREJyEjM1tVfV5+vkh2vO3gOYz/ez0GTFyKifM2YfcRF0RExhUrgkgckbuiJJLUl2TZysrORrZCIaIxynNyoMjNRXK6TGxTls0XFjE6hn5nyOViTs/MVNWpauQLXGHB9QJh86mYABNgAkyACTABJsAEmAAT0E2AgmPEJ6cgPCYOOQqFWFfk5eFJXAIys7MRERuPxJRURCUkIiYhCbLMLEQnJIo5Mj4BodExYj3oSRTk2TnIyJKDtscmJQtRpvuslb+VBVflM+YzMAEmwASYABNgAkyACTABJvAMAjmKXJA1KjEtDZnybCGUSHg9jokVgik4MgpxySnCapWWmQmycpGFK1MuF4FDsnMUwupFlq/cvDxh1SJrnLrV7BlNqJTdLLgqBStXygSYABNgAkyACTABJsAEmEBZCJAboDRTOVrXtSxLndXhWBZc1eEqcBuYABNgAkyACTABJsAEmICBElAXUQbaxRK7xYKrRDy8kwkwASbABJgAE2ACTIAJMAGJQHpWjrRa6mViWhYiEgrDt5e6oIEcyILLQC4kd4MJMAEmwASYABNgAkyACVQWgQx5DhY7ueHwzcAyn+LwzQCM2uACRW5emcsaQgEWXIZwFbkPTIAJMAEmwASYABNgAkygEgksPOSGVtMPl1lwpWZko9Pco2g57TCuPXhSiS2svlWz4Kq+14ZbxgSYABNgAkyACTABJsAEqpzAjYdPhGAi0VQWCxeN3Vp/2ktVdtK2q1Xel6poAAuuqqDO52QCTIAJMAEmwASYABNgAnpC4IRbsEo0lUVwyXNy0WvJKVVZEmxhsal60uuKayYLropjyTUxASbABJgAE2ACTIAJMAGDI/C8gmvv1UcaYosE1+BV50FCrCZNLLhq0tXmvjIBJsAEmAATYAJMgAkwgTISeB7BFZeaidbTDxcRXK1nOOGmb2QZW6Dfh7Pg0u/rx61nAkyACTABJsAEmAATYAKVSuB5BNf+a35FxBZZuGieWMPGcrHgqtTbkytnAkyACTABJsAEmAATYAL6TaCsgiszW4HeS08XK7hIdN32i9JvKGVoPQuuMsDiQ5kAE2ACTIAJMAEmwASYQE0jUFbBtfGsd4liiwTXiPUuyFbUjLxcLLhq2l8M95cJMAEmwASYABNgAkyACZSBQFkEV3xqJrrOO/5MwdV2ljM8Q+LK0Ar9PZQFl/5eO245E2ACTIAJMAEmwASYABOodAJlEVzH7gQ9U2xJY7lGbXBBbl5+pbe/qk/AgquqrwCfnwkwASbABJgAE2ACTIAJVGMCpRVcqRnZ6DT3aKkFFwmvaw+eVOOeV0zTWHBVDEeuhQkwASbABJgAE2ACTIAJGCSB0giup0+fYtO5+yqx1WraYQxdcwFz9t9RbRu98RImbbuGH2Y5q7ZNcbxukMzUO8WCS50GrzMBJsAEmAATYAJMgAkwASagQaA0gouSGfdackoIqXZ/O+OyT4So44ZvpEpcrTnpKbY9jkvD0NUXVNtDYlI0zmdoP1hwGdoV5f4wASbABJgAE2ACTIAJMIEKJFAawXX4ZgCGrbmA427BkGXlqM6uS3DRzpzcPLj6R2Pqzhvot/wMSLAZ6sSCy1CvLPeLCTABJsAEmAATYAJMgAlUAIFnCS4SSyfdQqDQEQCjOMGl3iy/iCREJ8nUNxnUOgsug7qc3BkmwASYABNgAkyACTABJlCxBJ4luEo6W2kEV0nlDWEfCy5DuIrcBybABJgAE2ACTIAJMAEmUEkEWHCVDywLrvLx49JMgAkwASbABJgAE2ACTMCgCbDgKt/lZcFVPn5cmgkwASbABJgAE2ACTIAJGDQBFlzlu7wsuMrHj0szASbABJgAE2ACTIAJMAGDJsCCq3yXlwVX+fhxaSbABJgAE2ACTIAJMAEmYNAEWHCV7/Ky4CofPy7NBJgAE2ACTIAJMAEmwAQMmgALrvJdXhZc5ePHpZkAE2ACTIAJMAEmwASYgEETYMFVvsvLgqt8/Lg0E2ACTIAJMAEmwASYABMwaAIsuMp3eVlwlY8fl2YCTIAJMAEmwASYABNgAgZNgAVX+S4vC67y8ePSTIAJMAEmwASYABNgAkzAoAmw4Crf5WXBVT5+XJoJMAEmwASYABNgAkyACRg0ARZc5bu8LLjKx49LMwEmwASYABNgAkyACTABgybAgqt8l5cFV/n4cWkmwASYABNgAkyACTABJmDQBFhwle/ysuAqHz8uzQSYABNgAkyACTABJsAEDJoAC67yXV4WXOXjx6VrKIHcvHzEJMvgExaPKz4ROOYahF2XH2HD2ftwOHYXCw+7Yfb+O5ix5yam7ryBP3Zcx+Tt1zBp21VM3HoVv2+9igk8MwO+ByrkHqC/p4nbrmLStmuY7HgNf+64jmm7bmLW3luYd+AOlji7Y/VJT2y94IMD1/1x9m4oXP2jERSdjPSsHDx9+rSGPsm420yACTCB0hFgwVU6TsUdxYKrODK8vcYTyH/6FEnpWfB7koRrD55gy3kf/LXrBvouP4M2M5zQctphnpkB3wMGcA90nnsMIze4YKmzB47eDsK94FiEx6dBnpNb45+DDIAJMIGaQyArW4H7ofHIUeQV6fSzBFe2Ig++EYnIkCuKlL3hG6n6t3LNSc8i+2vCBhZcNeEqcx/LRCAvLx/HXYMxbM0FtP/7CL7XIa5oW99lZ4Tliixauy754qRbiBBm9LL2KCIRITEpeJKQjpjkDMSnZiIxPQvJMjlSM+RIy8hGWmY20mnOyoGMZ2bA90CZ7gH6u6G/H/o7Ss3IRopMjiRZFhLTMhGXkoGopHSEx6UhMCoZPmEJwqJ10esxDt8MwOZz9zH3gCtGbXQBiS3tjyetph9G21nO6Db/uLBWB0enlOkZwgczASbABPSRAFn7Fzu5YdDKc3jwOEHD+l+S4AqNTcXwtRcwaoML8vOLegyw4AJYcOnjXwS3ucIJ0JeZy/fDhRtSu7+PqF7Aei05hVn7bmPf1UdCTJG1KyEtC4rc/ApvA1fIBJjAiydALxj0RTY8Ph13g2Jxyj0Ea056YcymS/hhlrPqWTBw5TlsOnsfj+PSXnwj+YxMgAkwgRdEIDpJJj5EkSfPpO3XcOV+hBBe2oIrLz8fN30jMcXxuvgwTR+oI+LTdbaSBRcLLp03Bm+sOQQUefliHBa9TNFXbrJcdV9wQoz58HuSCHIr5IkJMIGaSYAsz6fcg8WX2w6zj4pnBL2EkIWMLGo89qtm3hfcayZgyATIQkVjz9Ut/8PXXMCqE/dU25YfvYvRGy+pftOx8w66FouFBRcLrmJvDt5h+ATITYgeGG1nKr9ij9t8GW4B0cI9iV+kDP/6cw+ZQGkJUJAcGtPl6PJQ5YL48+KTwpWY9vHEBJgAEzAkAuFxqTqHU6iLMO31+2HxxSJgwcWCq9ibg3cYLgEaCE9RBTsVjN0YuuYCXLzDwS9OhnvNuWdMoKIIxKZkYJGTGzrOUVq8/nC8LsZrVlT9XA8TYAJMoDoQoPHp2qKquN8UhbmkD9UsuFhwVYd7mtvwAglkZiswfvMV8RAh98Fjd4KQk1s0Gs8LbBKfigkwAT0jQC8WUUkyEViHXkDazz6Cmw+f6FkvuLlMgAkwgeIJUNqMNgUeQMUJLen5F5UoK74iACy4WHCVeIPwTsMiEBaXit/WXRRii0JAe4cWb/42rJ5zb56XQEpGPgIiFUhKzy/x693z1s/l9JsABdvYet5HRDNtPd0JjhcfggaS88QEmAAT0HcCFLGZAmKUJLZo3/TdN58ZSIwFFwsuff974PaXkgBFF/x++mFQuGfKpUVRCXliAroI0IBhElhrjsvQcGQs7IbF4vPRsVh/UoaEtDwOpKILWg3fRkmUJRfDRYfd+PlSw+8H7j4TMBQClMZGPXKztviiD02UBudZEwsuFlzPukd4vwEQCHiShJ5LTqHVtMNYf8abk5kawDWtjC6Qm1hkYi7m7k1D6z/j8elvsaq5/q+xoLnN1HjM2ZOGqEQW7JVxDfS1Trp3AiKTRVJ0clWmMV48JlRfrya3mwkwAXUCS494FGvlmrP/Tqm8P1hwseBSv6d43QAJUM6crvOOgUI5bzjjDQoDzxMTUCdAFi3/JwosOpCGpmPjUF9NaKmLLmmdhFeTsXFYeDBdlMvN49QB6jxr8jol/6SE6PQVeP1p71K9iNRkXtx3JsAEqj8B8hAi7yBt6xZZvnzDn23doh6y4GLBVf3vdG7hcxOg8RW9l54WD4m1p7z45ee5SRpuwcdxufhlcRIajVJasEhMScKqNEtyORy2MhlRibnglG2Ge5+UpWcRCenoseCEeEFxvhVYlqJ8LBNgAkyg2hEgC/6CQ65FBNeErVdAHyxLM7HgYsFVmvuEj9FDAjTYc9be2+IBMXvfbVB0Qp6YABEgi5SrXzb+2JaKpuPihKtgacRVcceQSPtiTCwmbU6Bq1+OqJ9J11wC9HJyLzhW5OsiN2YOzlNz7wXuORMwFAIUhbDLvOMq0UXWLfIgKu3EgosFV2nvFT5OjwjQC88VnwjxYBi48hzI0sUTE8hWPIVfhAIDlibDfnjpLFkNRsSixaQ4NByhtIAVJ7qk7SS+ei5Iwv2QHND56F7kqWYSoJQT5IIzaOU5DqJRM28B7jUTMBgCZMmac+COSnDNO+hapr6pC64t533KVNZQDn7JUDrC/WACEoHg6BSRF4fGbdHXZX7plcjUzCVZtC7ck2PoimQ0LnAdlATSs5aDHZIRn5qHWbvSSm0JE2O8xsRi4LIkXPKSI6+ULhc18+oYbq+zFbmYuuOGeEFZeeIe3weGe6m5Z0ygRhAIi00FRSWkD0meIXFl6rMkuIavvYDEtKwylTWUg1lwGcqV5H6oCNCXF3og7L7sq9rGKzWPQKY8H+fvytF/SVKZxmWpi7A/t6WKsVmbz8pKLbjUy5P46rckSQi+tEwO2FLT7sIcRR56LTkl3AuDopJrWve5v0yACRgYAYdjdzHZ8VqZP2ST4Bq3+QpSM7PLRSQ1TV6u8lVZmAVXVdLnc1c4gdCYFFBY5g6zjyBZpr9/mBUOpoZVGJmQi3bTEtBoJLkCxjy34Oq5IFFYJmbsLL2FS11w0Tqdn9rRe1EiMuQsumrYrYh9V/3EB6ApjtdqWte5v0yACRgYgfD4NMSnZpa5V/KcXDGWvrweR6u3UBj6Mp++WhRgwVUtLgM3oiIIkAvPqA2XRL6tC56PK6JKrkNPCUzZmvLcIktdMHWYkYAcxVOMWJP8XBYu9brI2jVoWRIUuXr6r4We3gtV3WwK2NPf4awQXe6BMVXdHD4/E2ACTEAvCQQ/TsI3XbYhPDJFL9vPgksvLxs3WheBB48T8MMsZ4xY76JrN2+rIQRIIH09UTNxsbrwKWmdRBHtp2AZNN5r6eF04Tqx70oGPhul3E7HSMeVVJeufRR+PjqJkybXkFtR1c2rDyLEhyBKEsoTE2ACTIAJlI0AWcb+XHQJNt+thdOZR2UrXE2OZsFVTS4EN6P8BFYcuyu+Ih+9E1T+yrgGvSXgHZKjUxCRSLIfVrxYov3d5yRi96UMeAblICoxD3KF0hpFEQfJTdEjIAeO5zPQfkYC6pWQs8t+eIzONlC0w7uBOXrLlhv+fATIvZlyAnaacwxZnKLi+SByKSbABGosgYTkTHzdcydsWq7D4MknkJurf+75LLhq7O1rWB2XZeWg/d9H0Ham83P5FxsWjZrbG/LtXnFEd4ALihpIYmf4Kk33QBJaXf5OxAnXLOE+WBp62Yp8HLqWiXbTE1D/N80Q80McknDLN1tERdRlCdt3uez+76VpEx9TvQmsP+0tPgjV1JDI1fvqcOuYABOozgTO3QiBbduNqNt6PZr22I6oWFl1bq7OtrHg0omFN+obARfvcPEyM2vvrTJHz9G3vlZEe+kr+yW3cNzwfAJFruG4uOXlPUXfYqISztqtTNKYlpEvAliQGKJ50pYUJKXnQxpZRaItPTMfZ9yzEJusZENugBfuykFlpYlcHFJk+Ri/MUXUQ3UNWJoEKRrh4kNFA21QAI3JW/XT/1zqt/YyPz8fPoHxOHk1GImpNTPcrzYTXb9poDlFT6UPQ4q8wvtI17G8jQkwASbABJQE8vLz0WPcEVj/sBHWbTegbpuN8LgfrXd4WHDppEfzEAAAIABJREFU3SXjBmsToBdfKRT8vSAelK7NR/pNnLLkCly/9wSTl19Bj9+P4aeJxzF/8214+ceBHmr6PpEgav2n7vFbX4yJxfz96YiIz0WyLB9rT8iw/qQM+QUhjyhf12VvOX5bnYwmY+NEcuSQ6FyB5H6oQozrajY+DqPXpuDGg2xVXiWZPB8OzulYfVwm6o1KzMXfu1PF8drjuEiUtfkrHjl66A6hfW/k5eUjOCIZq/bexc+TjqPHhKMYveAizt8OQ5osW28jSWn3syJ//7r2ohBdoTGpFVkt18UEmAATMFgCt72jYN1xCyzbb4ZVu02w+mETDp7Vv3FcLLgM9hatOR1T5OaDXmS6zT+OpHQOBa995UloUZb4sMhUOOzyQLsRhzF24UVccQ/HmRshGDDtNDqPcYbjsQeITcwQx2rXoS+/w+Ny0XRcXIkRCr/6PQ6BkbkallByEfx7d1qRcpKFyy9CARp/JQko++GxmL0ntUjEQRo/9qzz09ivoEilkNMXrurtFMI9WwGnC/7oNfk4fpx4DHtP+cLjYQymr7mOrwfsxd/rb+J+QDxIlNHxPCkJrDnpJQTXtQdPGAkTYAJMgAmUgsCkFVdh2WmLcu6wGZYdNmP+ptulKFm9DmHBVb2uB7fmOQhkZecKsfXbehdk5ejvi+xzdP2ZRch6QyJq+1EfYYUYPuc8Tl0LRkqaXFh2yKoVFSfD3tO+6DPlhBBfR1wCkJZRvuSEz2xYJR1w9b4cDbTGVEkiSVqSlWnQ8iTkqIVnd/PLwWej4jQCXVBUQnItpIksXQ1HFgouquvriXFiu3pXxm1QuhdK59K1JMG140KGejG9WCfhJM/OxYXbYfhtznlhHV13wBOhT1LEAGbaT/fNtbtPMH7JJXQdewSr9twVVjAWXcpLfO5emBBcW8/76MU150YyASbABKqSQG5ePpoM3AeLLlth2XkrLDvRvAV9/zpdlc16rnOz4HoubFyoOhGITpKJlxgavyW5h1Wn9lVFW8TLrywbLq6PMWLuBeHuteGQF8KjleOYtNtElohHwYlYuM0VHUc7Ydrq63B7EA0Ss/o0LTmUriGadAke2nbGXWkJVbe9+IQp8NO8RGHFIlHWbFwcyPJF05P4XJG8WKrv53lJuB+ao7LeSPWc9ZBrHCcdr70csz5Fr+7V7Jw8+IUmYuHWO+g81hl/rrwKV59onW6odO/FJWViz8mH6D7hKAZNP40jlwIQn5yp4qVP91RFttU3PFE8q6Y4Xq/IarkuJsAEmIDBEaB/S7YcfwDz7o6w6L4dFl1p3gaLLtvQrP9eZOvZB3YWXAZ3i9a8Dp12DxEvMXuu6J9Pb2VcrdzcPNz1jcFkh6voOMpJvCT7hyWqrBDFnZMebmTBuPswBpOWXRZlF2y9A/+wpOKKVKvteflP0WV2wjMFV59FSSq3SYpaKLkNUv8z5PlY7qwUbd9OiVcdF5eSJ/JykXBa4ZwujpM67xWcg3tBSosgWcTa/pWgcj3UFlrS765/J0CeI8k0qabqtyQmMYmZWLv/Hn747bCwbF1ye4zMrEKxqavV5EVIIj4qLl2U7TDKCcNnn8Nlt3CQeKupE4WHp8AZPRacqKkIuN9MgAkwgVIRiE/Jgm2f3TD/aQfMf3SEeY8C4dVtO2x+dMQ9v7hS1VNdDmLBVV2uBLfjuQksOuwmXmJu+0U9dx2GUJDyUgQ/ScG6/Z7oOfkERs67AJc7j5GRpShT9+glOyElC84XA9B/6inhZrjn1ENExctUAqRMFb6ggyMT83QGqpBEDi0phPv280p3PrKGDnVIxlcT4nDdp9CFkoJnnL8nx2m3woh7tO3Q9Uxce1B4HI2Lu+aTLYJ0/DwvEZlypTVs69mMEnN0UTvIHTExrfoGKaF7IDElCyeuBmHQjDPo88dJOB59INxPaV9ZJhLxHg+j8eeKa+jx+1HM23wbDwLjRXTMMlZVltNWy2Ppnusy75h4XpH44okJMAEmwAR0EzhwOQimvXbCrOdOmP28Qym8SHz1UIqvTUf1yzWbBZfu68xb9YjAAIez4gUmKkn/8jJUBGZ6AaaocAfO+olxWhTEgMSSLLN8CXap3qTULGxx8kb7kYcxdNZZnLsZKiwUZX3proh+PquOU25Zz7Ru2Q2PhWewkktYbK7qeBqfdclLOa7tWeeh/fTifP6uXCXwKALig8dKYZuYlvdMt8IGI2JBLozVbaLrSmkCyJ103GIXtBp6ACt2eiAsMqVcUQdJWJFl6+LtMAycfhqdRjthw0EvxCYpg7RUx/upsq7NX7tuiOfVXY6oWlmIuV4mwAT0nAB5SPw45zxMf9kD0z67Ydprl3LuuRPmP+8U4mvw/It65abOgkvPb8qa3nzKZ9N6uhO+n+EEGlxZkyZ6SaUw7zfuPcGo+ReE2Fq9754IUkAPq4qayE+aIs7N3XQLP/5+DH+suIb7AXHVLn/XwgPpz3Tlo7FZ5B5I086LGSrBRVanpmPjsP8KjTMqJEduimS5IguXNNG2becz0GSsMo8XlaVAHUdvKS1idF1+mKY7ND0dSzO1g0LSV6eJ/n78QxOxeLsruo07iikOV8Q4LbJQVZQgopxd0fEy7Dr5UNyvQ2aexbHLQUhJl1fYOaoTU11t2eHyUAiuI7eDdO3mbUyACTCBGk2A/r25/iAaFgP3wbTvHuX8y26l8OpdKLzaTjoOWRk9eKoSLAuuqqTP5y43gYS0LPHy0nuJ/kWsKU/nSQQFPE7Cku2uQgRNX31djL0qT53PKksv3pdcHwtxRy5mGw954XF0arURuoOXJz1TcH05gQJhPBUv91O3F4aBJwFEM+XwkqIX0hir6TtT8fmYOEzclAJFgeiicV6d/1aOFaMykoBa5pSuQjhgWcltoXLdZidWCxdNco2MjEvHzuMP0PsPZaRKimRZXgupCoaOFbIQ+oYkivu30xhnTFl+Bbe8IoX7a0WJOx2nrRabKCQ8jeNae8qrWrSHG8EEmAATqE4EshV56LvsCowH7oPxgL0w6b8XJv32woTEF1m8SHz13o2mI5wQmaA/EX9ZcFWnu4zbUmYClECUXl7GbLxc5rL6WIBeRinaG4mdDqOcRRCD87dChaXrRbyo0otymiwHB84+wi9/nkTvP04K98X0ahBGvu1fJVuVSBi1/CNeJCwmkTF6XQrqDY8R4626z0nEgauZiErMU1lavEMUIvkxlaNEyOQqSBNxjknOg9ONTFVUQwr1Ps2xMJntiDXJzxR/VG98atUGkCBRReKKBDRZL3effIg4cvN7SqK0cv9CiCN9OPDyixNRMcltdeb6G+JDwou4lyu3d8XXHhqrfGbN2HOr+IN4DxNgAkyghhLwCUtGvdHOMB60TzkP3AcTdeHVT2n1sht8AL6P9SOoF11KFlw19IY2lG77PE4QgmvGnpuG0iWd/aAXUApiQOJq+Ozz6Df1FDYf9kZETJpKIOgsWEkbKdk0hQlf4uiG3lNOYOKyy8JCUZlWkZK6kpBaGEWQhExxMyU9JgsW8ST3wYPXMhEak6vhMiidJzUjHx1nKi1ZvRYkCcuYtE9aUj2PY3PhfCMLNIZMmoasKNnCRe0jkXZdLQiHVPZFLDPlCng+ihWBLH6aeAwLttyBd0CciCz4Is6vfg5imJwmx5FLgRg846y4t7cd8UFETLpehc5X71NJ68SePhKN2uBSJX+7JbWN9zEBJsAEqpIAfQydtvcejIYeFLPxkAMwHrxfOQvhReJrn7B6mQ3Yi4ue+pNEngVXVd5ZfO5yE3D1jxYvL0uPeJS7rupYAb2M5ijy4OUXiwlLLqPNr4dElLfgiPIFMaiovtK4Hw8KI7/8MjqMdMLcjbcQ+DhJ5Geitr+oyflGZrGRASlABc2NR8UKF0HJZVC7bdReetjTLLWd3AhvP8pRuRlSGe1jtOuh34sOponzNaRzlyAA1514ceO4qE80/iwsMhWLtrmi5ZADIkGx6/2oajEej9qXmi7H1iP30XXcEfT765SwvpEVTLoeuljr47Y2M50weNV5nXnM9LE/3GYmwASYQEUQCIpJh+lIZ9QZfgh1hkkzia8DMJLE16D9wt3QZOA+LD9yvyJO+0LqYMH1QjDzSSqLwNUHEUJwbTjjXVmnqLJ6KfBFYHgyHHa5o8vYI5iw5BKu3Y0QY2uq0wsoCRCyUBy7HIhhs8+hz5QT2H7ERxlG/gWILmLRf2mSRgAMycI1Zl2yiCZ4yzcb/hEKITikC0pNS8/Kh1+EAifuZMHBOR0TN6dgwYE0KHJ1i8Ws7HxM3pKC8RtTQEmWybJF0QbJGkZueNKUo3iKoKhcuPpl48I9OcjFUBrvJbWNluM2pEhFKnVJTYtJkGHfaV/0mnxCRJx0dgkQ4f+r071EEKQky3M23AJZ38h6SqKQPjyoIa5UXpVdecc5RzFgxTnRp8o+F9fPBJgAE9AXApP23MUnI51Q57fDqPPrYaXwEuJLafEiy5e61av/iiv60jV2KdSbK8UN1Ung/L0wIbh2Xnqoc78+biQBE5eYgV0nHqDv1FPo/9dp0MsxRXKrzhMJDnqp3+J8Hz0nH8evc87h+JUgpMqyKzU4RFpmPiisu7qQoXUSOJe95cJdMDopD5e85Vh7XCYEFnEkzr0WJIpxWuTeJ5X/f/beAyyu5EzbbhQm2OMZexzWHtsbvMH7rb/df7+1vd51TmPPeGY8nuzJWTmhnHPOCQUkBMokIREEiJwlohCInEECRBYgRBB6/uuppprTTdOAaFADVddVnD6pTp3nFN11n/ett/6ypntSYnbwtUDCa/3P7FuGY3mNH0yqxB+WVqG2UR8ZMrO0HQf9muGf0CLGhBHe4rNb8X8nVxjOk9d6eXX1kEIE684pA4LiijB9Y7AA94NuKSirbBzSZzLYdkrdadmKSSnDzE3BeNX+PLa7JKCgrB50Zx3p6dWNPnhvRwBa2jpG+q2o+isFlAJKgQErwAjLbW3GY5hrm1rxn0sv4tszzuHb088J8Pr2VBP4MrJ6ueH/2V+w6d8yrTDKwqVVQ30ecQr4xucL4HKLzh5xdTdXYX4JXYorEhYIhubmXEVlFY1dLnrmzrCtbezg0xLB8V10W6Nr2PztYYhLvTFkbmtlVffwb5/3hBlCzbOLq4T16zcLqgSUEZCm7++2KjHwBSdDlgDE5YYztw3WqtrGe7A/VI+SW/qOMe9vv08T/l0DT/x8IrhZgBnh6r0temsb3Rh/taAKHP/1m4VVZi1cv5xfNWQ/FnT35LispXuj8IdJ7lhzMBaZBTXiR04LkbbVgoxrQyhuaGwV4M4JmAleDOzR2NRqBMLGZ9n+2ptb/PDO9otovmt7c7HZvnqqhkoBpcBIVoC/PyfcryK/sDvgBb/rZ55IwjOzzuOZmV54htAlwWu6J74z1UNv9aLlixavLqvX3012R0XdnREhhwKuEfGYVCV7U8ArLlcA14XLI3tOG4Zc51iolQ7ReN3+AtYeikVq9i2bCbnem/6WtvOeopNLMW9bGN6Y540dxxP0Hf5247dalsrozz6Gaf/53FtmgUYLUvLzf02rxLVCfUe3qaUTb2yo6T53aiWyy/T7ON5psVO92DfDoQ73usLC36zpwE/ndFu5PtlZawi6wUmVfzyze5+8Zm/LtzbW9OcWB3QMLY15JXXYfzYZby7wxqxNIQiNL0Zj8+Amwh5QJax8MH+gi8tv44BbCt6a743JawIRGFsorKcjBR61kryz7SI4lUVjy8h9Jtr7UZ+VAkoBpUB/FWBwrV+84YLwy0WGU5KLa/Hd+T741pwL+Nbs83rwmuUl4OvbM72M4EtYvQhgdDmc7IGYrFuGcmz5gwIuW346qm59KuAekyOA62JiQZ/H2uIB7CxWVDdjv2syfvXRGTEGKiKhBO1WhpKHee+MysbxXRw7xDmXzvhnCjc3a9YpMacNDFDRG9iYbn9zQw1aWvVjrjjf1nPL9NEIP91ZZ6hWQk4bfjBJbzn70YxKlFXrrVx6K1aNuBZdGQsqut3CpjuYH6tlen2u042RY8CsmfhD5hmcLUK8/3mWXuvmO20j2hqk1Yf/L9lFNVjpEINffXwGy/dHISPfNuYz09azr8/v7wzAW1v9cPtOa1+Hqv1KAaWAUmBUKRCTXIbvP3sQLue6A14sP5+OZ+Z545m53vgWs/0FAV/PzLnQbfWa6YXvzNRYvjjWa5onjkfmjwh9FHCNiMekKtmbAmcjswVwBaZ0vynp7Vhb2s6OI+c7cgvIwnuL/UB3KXaUOcfWSHxj35e2DADCSZI5vuvdxX6YtCYQ/lEFIiqdte53l1djr5EKTYHn/02rxAHfJsP4qfyb7aClKjKte5zclL3dc2nRFfGN9TUgnHF8UWDiXRDaJGzRHcIpsKnfwEc4POTXZLCM9aWfpf2sD0Er9LJ+UmrOp7X/TDKKb9rOpNSW6j/QfWwvzS3tiEgsxZzNoXh1znnsPpkorHp0oxwJ6cNdAaBbYYMNzF83EvRSdVQKKAVGjwLrD8fhn58/jHlbQsXvaXHNHXx/ZSC+ucAH35zvg2/O64IuCV4Cvs7jGWH5klavbvBa5jYyJpFXwDV62vCYvJPTEZkCuEJSi0fE/bOzyEmCQ64UYfaWEHCc1t7TSSi8wTDv3VHuRsTNPEAlOzs7kZZTJVwmX7M/j+X7opFwvVxM3PwAxRmdQsvTfMf6fkMPx265R3UDbse9+wKA+BguZ7WKUPIS1GRwjIBEPZDxWEYsZKLrYXDyXaNgGvI8c0s5joyRDAeT2F4Y0S8lqxKrD8bg5ZleWL4vCilZt9AxCgJL9KUNnxMDybhfyhZzd/HFBa2n1fV3jKJR9lXOw9j/0e5AvLHZF/VNysL1MPRX11QKKAUejgLNLW349SR3/NOLR/HcNA+0tt/DbPdUfHORnz4v9MU3FzD74FvzZPbGNyV80eI1u8vqNcsLdDf89Mjlh3MzA7yqAq4BCqYOty0FToXrgSvsWoltVcxMbe516oMYcJzW81M9sHJ/NNJyq0Q0trEAW1IS3istFFFJZZizJRQvzzqHnScSUXyjwRCsQh470CUjBf5pRXW/oevHMytxxN/Y0sSO/LWCdqw9dVtYtZ5fVoM31tdi1cnbSOsa+6Wt1+mwO6DLIUHKHGBpt/GY19fXgME4BpNYx/KqJuw9kywCk0xdH4SIBNubMmAw99ifc9mWaNUq4fgu1xRh7WJ0zJArxTYdRp5zcBG46pq6Lar9uV91jFJAKaAUGKkK8Pv6uH8m/vHVY/jHV5zw/deckVxUi3/dEIxvLLmIv1ncBV2LfPFN5oU+BquXHr6k5Yvuhl0Wr9nn8fLuyBEhiQKuEfGYVCV7U+BEWIawcEWklfZ2yEPfTnczhrN2OJuCdxb5Yuq6IIRcLrL6OKaHfqMPUAG6VXoEZeOTlQH4eLk/Tl/MEKHltXNaDbRYzqv124VVfcKPBCGOpVrs1GBwL9Rejzao3uxQLW33seRYw4DGjjGkfGbJg0em4w9WdV0L3AKzhFvmm/O9cdY/E+XVdI/srabaOxq9n/lCI+l6BVYfiBHzdzHwTFruLfFCw9bu+tO9l/C6Ai5beyyqPkoBpcAQKnD7Tht+O+c8/uFNF3zvdWd87zVnvLQ9FN9Y7o9vLPPHN5Ze1Gcj+PLDN2n1EpYvafHy0Y/z6rJ6/XxDyBDW2npFK+CynpaqpIeggASuyPSyh3D1vi/JsTUMGPHWfB+8OMMTZwMyUddwd8x3jk2VK624LYD0uSke+Hx1IKKSywbVUfa5crff47kIXs8tqxJVoptfaVWHxedT13RPjOWqa+rEjwYQkZBh4sOuPbhFg0B1OfWmiDr4u89csdX5Cm7cUqBl2pY4LUFYfAk+WnER1OmwR6rNTfD86d4gvL7JF7XKwmX6+NS6UkApMEoVuJJViX/+8Az+/p2T+Pu/nsC3/+KIJ946hK+vDMA3VgTgG8sD8HUNfP0NwWvJRXxz8cWeLoeMaDjPB8/M88G/LQ8YEYop4BoRj0lVsjcFjofqLVxR120LuBiZLzKpBLO3hOI1+wvYcyoJeaV1IzrMe2/PwFrbOdFtcmaFGN/FQAh0veT4JHagB5o4xurwxSajcVjSomW6pJufo38TGu904pOddfiv6ZV4YUU1Pt9di4VHG7DcpQGLjjZg8p46vLSqGj+cUYn3t9YK6HK82NwvV0Ja0Rik40ESx71dy7mFDUcui3moFu2KQGJGhXDLfJDyxsI5hNObVU1wDcjC+0v98O4iX3iF5KCqtnvM3sPU4TMBXD6otfHJzB+mRuraSgGlwOhRgGO13tsRjr/98DT+7oPT+Lv3TuFLv9yEx/64DV9bFYivM68MxNdXBOjzcn98nVavZXqrl4Avg8uhsdXrmQU+aG7tjhZsq6op4LLVJ6Pq1S8FXAzAdaNfxw/lQezkMRof50Bi5/ilGecwf3s44lJvPhA0DGVdbblsju8KiC7AlHWXxJgcRjbkeCUGpxhomr7fcph2wtbvF1eBY7/Si9rxoxn9m0PrB5MqEZnWKur03tbaPt0XP9lRh9YBBMlgWyJoccqAYxfSQNfBdxf7wic8D6MpzPtAn+dAj6eOOUU12Oocjxene2LutjAkZVSCL0S472Glz/YF4bVNCrgelv7qukoBpcDwKcDv2uBrN/F3n7vhu5+64rufnMW33nbB+B8tx8Rfb8DXVvrja6sv4esyE7wkfGmtXl1uh3r40oz5WuiLpOLuKV2G784GdiUFXAPTSx1tYwpI4IrOeLjAxb4b356f8EnHK3O8wIH7l+KKRLjuh9mxs7HH1e/qcNwbxyq5BmQK68R7hI2IfBFGvt+FAKi5fQ8vrtTPsWVq2eI6gSshWz/57Fb3xn5Zq8R5Uzjuq14E+fC+3GLRffG1dQyS0f9w5WxLjOTkG5GHtxf5CNg64XMdtQ0tDwSdA9FrNB7L/z9aT2ktXbonEs9+7ibGeWUXccLq/j8Xa2qjgMuaaqqylAJKAVtWoK2jE6/viMB3JrvjO5+749ufuuLRX22E3Q+XY/wv1+HpZX742togfG3tJXxtTRd4mVq9aPHSWL3+Zqne3VBavpxibX9qIAVcttxKVd36VOBhAxc7cw2NDPOunwOJrnCH3K+itLJx0BH3+rz5MXAALYYZBTXYeOQyXp93QXSYE6+XD8idLvdGO34xz7zl6t8nV2DNqdu4GN+Cn8y6BYaKNwdm5rb9ekEVLiXdxVLnBrOgRpj71fwqs5ENzT06tqU7dztEmPwFO8LF5MXrDjPwQ9WYCPNuThNrbiPIMoy8X0S+CNLy3hJfOF9Iw81bjSDgD2f6XFm4hlNudS2lgFLgISqQWFiD79lfwLenn8O3p3niq28fg91PVsHuv1di3M/W4itLfPC19cH42jpmgleQAC8DfNHypXU57LJ66V0O/UH4mu+V/lC9FvojrwKu/qikjrFZBR4mcLGDnJpdKdwGf/3xWaw5FIuiG7dt/p/eZh+mhYrREsH5uuZsDcNvP3EVAFbAMPL97ChfSmrpN0iZg6sH2fb/TalE6NX+BclgWyopbxD3xUAPnKONrm/9vT8L0qldZhTgSxK6ar4w3RNvL/SBd3iuVeaCM3Mps5sUcJmVRW1UCigFRpkC7fc68Ydt4fow7rPO45mZXnj0jztg979rYPe/qzHup6vx1AIvfHVjCL7GvCGkG76E1SsIX5dWL+lyuCoQ35AuhyLYhj9edbpi8y+5FXCNssY91m7nYQAXx9ZkFdZgu0sC3px3AfZbwhCTUqbcB4eh8dU0tAhXO47vopvhUa9rYg6mvi5NoDka2GzR9e9BoMrSOXsvGM/vZa6OrFdZZSOcL6TjnYW++HxVoBinpSJZmlPLutsI8bklddh6LB6vzT0vXpzEXC0T47use6WepSng6qmJ2qIUUAqMPgUCrleAQS2+xRDuc73x1PvOsPvletj9fB3sfrZG5C/OcMXTm0Lx1Y3MIfjqBuZgPXjR8iXdDbUuhwarlz7Ixn9uC7d5l3sFXKOvfY+pOxpO4NKOK3pviZ+Y64fzIfFtOTvOKg2PAhJS6Lr5qv15TFsfhMDYwj6fA4NWMLqgJUiyxj66Es49XG9RDN5DY3Mbgi8Xifm0XpnthcPuV0WQDNWWLEpn9Z0c3xWXekNMwv3SDE/sPJ4gAt8QyIbq31oBl9UfoypQKaAUsDEF2Gd63yUBf7NIH1Xw63O8MP4P22DH8Vu/3IBxBK9frMPjn7jgK1vC9HlzqICvp7XwRegSLodBepdDuh2uudQdaGNVIP5m9SVwrJgtJwVctvx0VN36VGC4gIudLwbBmLQmUIytOeiagqq6OyIqYZ+VVAcMiQIMF59TXItNR6+ICHQMl3752k2L453utN7Hu5uHDroIW39YUiWCdfR205ygNyG9AhynxUiWGx0vI7uoBu3t9xS49ybaEG8n5N5ubhXWRc4D98qc8zjuk47KmuYhubICriGRVRWqFFAK2JAC3unleIYuf5zQeIkfvvSRC+x+twV2v9kEu19v1OdfbcAjbx3E01vD8fTWMDxN8NrMHIqv0OolLF8hXZYvCV6asV4aq1fNHX0ALBuSwKgqCriM5FArI02BoQQudsL49vtaTpWIavb63AtYvj8KyRkVg5qUt78al1TdRl55/ZjNRZUN/ZKKliJOdDtnayjemu+NvaeTDRYKcwWkF7XhNwuqzAa6GIyFS8IWg3SYS+0d91BY1iDmZHtrgTdmbw5BUFyRGDs01Fat8tqmMduO+D+UX1EPzgPTV6K7cPHNBji4pggL9oyNweIZWduKrYCrryeh9isFlAIjWYGGlnb8ZG+UPtjFigB8Za4X7J7fCd2zW6H7/RY9eP12s4Cv8S/vwZe3heMr28LxNDPha0sXfAkAM7F6ibFePeGrtL7FpiVTwGXTj0dVri8FhhK4aA4/6Xsdz05yw6Q1lxCVXAZaJ4Zue7V/AAAgAElEQVQr/XaZB8Z6HojWTXfa4B2eh78u9MEbcy8IN7Hezme4+CXHGvDcsmr88QEzz5X5+eXVYpLkqvreO/XRKWV4cYYn3prvg3MhObjbNnwTNf553YUx35ZSC6t6aw49thOA80rrse5wHH754Rks2xtl1bn0FHD1kFxtUAooBUaRAufSK/B1GXFwVSAmvnUYds/vgN1zO6D743bo/rBNwJcd4eu57Xrg2hGJL++IwJe3R4h1wtdXmbeGG7kc6q1e+vFe2kAbWbeabFpBBVw2/XhU5fpSYCiBi3D16coA8C13RXXTsEeM+3BXIJpaBm8iZxnLT8X2JeWA91fUNWOzZ8KAz+vvCQtdovp7qOG4jo5O5JfW4/0lfnD0TDVsN/eB43MI1dbKfVmpWJ/ff+aK3BL9/E9DNT7I3L2+tO4CMkprzO0a8DZrtUvTC08/GGq6yWrr+/2u4uoAgIsX5vO53dSKS7GFYBRSTpZsraSAy1pKqnKUAkoBW1Pg5u27+MG+aH3wi/XBeGLuOdi9tBu6F3bC7k87BXjpntsOkf+4TcDXk1tC8eVdkfjyzi7okuC1vcvypXU57LJ60e1QH2xDH2gj5Wb/vGIell4KuB6W8uq6VlFgqIHr4+X+WHvI+rDSn5u3Vsd2LAGX1JWQfNjDMnDJY4dryfq8MM0T7Q9hYK8CroEDl2wX5dVNCrikGGqpFFAKKAUsKMAXmFMvZurHYm0Jw1NrAmH3mgPs/rxHn1/aDbsXd8HuhV0G+KLl64n1l/DUnig8tTsKT+2KFFkPX8ZWL1O3QxFsowu8LpdZDlZlodrDsksB17DIrC4yVAoo4OpbWQVcfWs0HEco4LKssq1ZuGRtFXBJJdRSKaAUUApYVqCg7g7+dl8MvrI9XLgFPjrjLHSv7IfulX2w+wvzXtj9ea+weNm9KOFrJ764xh9P7Y3GU3uYu8FLWL1o+aLFS2P14pgvfaANfbANgldcqQIuy09H7VUKDEIBBVx9i6eAq2+NhuMIBVyWVVbAZVkftVcpoBRQCtiyArdbO/Cbs1fx1G69heqJNQGw++sh6F530OfXHLrgaz90hK+XCV97YPfSHnxhhS+e2heDp/YyR2vgK9pg9ep2OdRYvbZH6INtbA1HrAIuW24eqm4jXQEFXH0/QQVcfWs0HEco4LKssgIuy/qovUoBpYBSwJYVOJR6E0/u08PSk7siMO6jY9ARuN46CN2bB2H3xkHo3jjQDV+v6i1ftH49ttwXTzrE4qn9sXhyfwyeFPDVBV7S8rVbD19f3h1pGO/1tBzztT0CMaV1tiwPlEuhTT8eVbm+FFDAZV4hBnAICI1DeGKOCLwxmKAZLOv0+RDkFpUbXWywQTMaGxvh6BaMOy2tRuXKlQcJmiHPVWO4pBL65WDHcKVl5uG0fxLa29sxmLGF2nZpXENgMMDFcs/5hSIhvdC0WLH+IEEzZEHKpVAqoZZKAaWAUsC8AuXNbfjP0yl48kCsAKfHVvrB7t0jsHvbEXZvH4bur4ehe6sLvgzgdQA6Wr1edQCPf/JgnOF8QtdTzASvLojTuxxG9XQ5JHTtjESsGsNl/uGorUoBaygwloGLnczmOy2orG1AcVUdLl/PRUDiddTebkRLSwtm7fDHqtM5SLhe1GeUQpbV0NiI8tp65FfWICw5HRGpWeIR1dTU4J31IdjsHI6I+OvYesQH17ML0B/g4rxGdQ23cbOmHlllFQhKSkNKjr5T7BcYiunOFYhMyMAZnyhsO3IBTU3dE80q4LLGf4i+jP4AV1tbO6rqGlBSXY+UvGIEJKSh6GalKOCwZxwWeTQhLO5an8DV33aZmlWMPcf94R+iD0rTF3Cx3MbmZlTUNqCoqg4xadkISs5A050WEN7fX3MB606mIPl6IXYeu4ioy1cNAirgMkihPigFlAJKAasq0NjWgXeDcvDE4cv40qE4fJHWrY+dYffeUdi9d0SAl+4dgpcj7P7q2AVfh4XVi5YvWr0eXX0RXzp0GV86GKfPB+IEuNHqZQxfJi6HDLLRlWNvqCiFVn2wqjClgFaBsQxc9+7dw/rI63gn+hZeja7GD7ZdwCPzTyIyPRfct/tEKGYcu4kZLhV9AlfD7dv44GIa/hp9Cy9HVuLpKdvwvWXHhdRtbW1Y5BCGyfuvY87peny2OwGFpeX9Aq78kjJ8GF6Ct6Kr8LxvNh6btg+v7fMS5RYUlmDqwQzMPpKLmSdqsepAAHgtmRRwSSUGv+wPcHmnZOO9qAq8Fl2FX7umYNz0Q9jpFSIuHhCVhrluLZh+pLhP4Opvu5x9sgZTDuXgSnKGuEZfwHW3tRULQtJFe38lphrfW3UKX1l0Apkl5ejo6MDqA36Y5liI2SdrMckhHdcy8g3CKeAySKE+KAWUAkoBqypwPLsKXz4WjyeOXBHQNd7eHXYfHYPdh8dg94GTyLr3CV9H9Vavdxyhe1uCF61eh/DoWn98SQCbHtokePVq9ZLjvAzuhlG4cvO2Ve/L2oUpl0JrK6rKG1YFxipwZZWW40B4Ml4+HoafHY3CdxY64gtvLYbdO2vwnzM24ND5S6itrcNMp2KscYm3CFxhqVnYGXgZPz0ajp85RuBv5uzDhOcn47G3FuNXKw8iOjUT1/IqMPNYGfa7X0Fl5S3xjC1ZuGiNOHf5KtZciMDPXGLxE4dAPD11G+xemYuvv7MIf1rriFs1dTgaUID5zrk4H5QgIFHbeBRwadUY3GdLwHXnbiuORaZgyplQ/MwpBv9ngxue+nQDdG8sxT+9vxDz9h9Hc3MzZjoVYOXxdIvANZB2uflUIq5ndUORJeBKKyzDvpBE/NE5DD87EoVvznXAY6/NxYS3V+DHc7fBLTQWVVXVmHmsBFtPJyC/sMRIMAVcRnKoFaWAUkApMGgF+Dt/5VYjvnf2Kr5wLAFfcIrHI5uDofvsBHSfuED3sbM+cywX4etDPXzZmcAXLV+Prg/EE45X9Pnw5S5rGeHLxOrV5bIoxnkZXA71Vq/0qm4PmUHf3BAUoIBrCERVRQ6fAmMJuOg2lZWVhatXr8LBNxS/D7qJ52Ia8UJCO55adBK6z3ZBN/ckdJP2wt7hNA755WNvQBXqm1p6AFdtbS2uX89AamoqZjl54dmQCjwf14w/xbdh4oxD0L27FropDtDZH4eDZyA2e5XBNbzQCIrMAVdVVRXS06+Lct86fAF/CKvCny634NnwGugm74Nu0h7oPtmOr847Co9LcVjieguFN2rBL27TpIDLVJEHXzcFrtbWVuTm5ornFJt8Fc+fv44/RtXjhcQO/KvjZehmOEI38wh072/Ay2sOwD0sB8sv3EV5VX0P4HrQdkmrlDaZAldDQwMyM/XtfYdXEJ4NLsfzsU2ivT86/QB0H2+DbpYTdNMOYvWxc9jjXQDHoJvC2qUtl58VcJkqotaVAkoBpcDgFGhuv4ff+WfjC8cT8UWXRDx2IAa6SSeh+/wEdJ8dh+5TZoJXV/7IGTph+XKC3fvMR/X5vaN4bFuo3kJGKxkz4YsWL3NWL7obasBLjvUqbbw7uBsa4rMVcA2xwKr4oVVgrAAXx0JtO3MFkx3LRP7sQCE+2n0d7+1Iwts7EvGXdWF4cVUQ/rw+Am9svoxJjmWwd+/EtvNlPYJm3LlzBx9vvoTJR/Rlfbo/Hx/uSsO7OxJFWX9eE4oXVwbi5XUR+Ov2RExzqcZcj/s46m08kbApcLHj/cnWcEw+cgOTDpfi0/15+GDXNbyzIxF/3ZGAl1YH48XVQfjL+ki8vzsNs8+0YM7pRuQV68cJmbYUBVymijz4uilw+cdkYdKhYvGsPj9YhI/3ZOL9nSni+b+2KQYvrg7BS2vD8NqGaHzikAd7tw4sPdeCGxXVRsA1mHZpejda4GJwjqWOUd3t3aEAH+1Ox7td7f3ltaF4cdUl/HldBN7ccgVTjpaLNrr3Qp5psWJdAZdZWdRGpYBSQCnwQAp0dN6HfXwpnjiVgsdPJuOx40kYt/g8dFNOQzf5lD73gK/jXZYvF+gM8KV3O3zcIQZfdErAF53i8cWj8XiC2Rx8SQDTjvU6EIsvH4gDAdCWkwIuW346qm59KmCrwMWxSLRGJScnC+vN7du3ceTIEcydOxd79uxBdXW1WauO9oa10eDYAV18OBpzPdAzu3divmszZp+522PfQsfkHsBVWFiE97fH9ziWZc9zv4e5Z5tg73bPZP99LN7hoa1ejzFc1zMy8PGeVJPzAHv3+5jv0YHZp2+Lz9p7mOZcg9jEdKNy5YoCLr0SHBNVUlICb29v0WbYFs6dO4dFixZhzZo1yM7O7rMtmQLX/tOhmOPWYf5ZubVg1qlmATDaZzXvbD0ysgnngaJNsXaDaZfyOculFrj4/zJrf2yP+on6sL2fbcKcs2099i9yCJfFGS0VcBnJoVaUAkoBpcCgFDhXXIsvnr2Kx89exaOnkjFh0yXopp+FbvoZ6Kae0YOXgK/T0E06pbF8aaxfnxzXuxxOPonHneL1bonHuqCL4NUbfDle0Vu+NPD1E9dU3Ovs6SkzqJu08skKuKwsqCpueBWwReCiq9S2bdswadIkODk5ic7wjh078NlnnxnyrFmzUFxcbFEsbceWZc7ffbFHB5Md0PWuBXjj7Q/x368s6LF/+ZHYHsB148YNvLLkfI9jWdbpsBL89JfP4vWVAUb757i2Y8uhc0b1NbVw5efn4801wUbnscx57q3wjc7F3//rD4XFQnSau8Bx8qEiEfHQqOCuFQVcAC1Ip0+fxpQpU0Tboeulh4cHPv/8c0NbmjZtGlJSUsxJaNhmClyHzgZjtmt7j2c17XA+tu1xxHf/7ZeYdfqO0f7ZTvkoKCwyAq7BtEtD5bo+aIGrqakJkzb5Gl1ftps93kX43R9fxK8/2tZj/xrHYNNixboCLrOyqI1KAaWAUmDACty804bv+2biMbdUPH42FRMdoqGb4w7dTFd9luA1jfB1WgNfBC8T+Pr0OCau9BMuiV9wScQXnJkTBHwJ4LIAXsLdsAu6lsQW9/niccA3auUTFHBZWVBV3PAqYIvAlZiYaOgMnzp1CuXl5YYO8urVq7F48WKx393d3aJYWuBiR3v7IVfMcS7GdOdqTHOuxlTHYiw5noXFzpk44HIBH6zxNuqAzj57F4dOB/QALnaS35uxXgTBmO5cg2nHbmHGkUIsP5mB7W7XsGnfaUxyyDIqa9rRUsSZWKJMgYvWjg/m7cYMpxsQ5TpVYrZTAZaezMJR7xTMXeeImSfqjcqdtTca9Q3mIwsp4AIqKysxe/Zs0V64rKurEyBPeJ83b56wcPHz2rVrzY5dkg3MFLhCo5Ng75Qjnv10l1pMdSzFApdcTD2Ui2PuwfjrnD0gZEvImePWjmkrHcGxX9Zql7JucqkFLoLmko2HMdu5xNDepzsWYemJLKw+eR37nM7h401hhvqxnrPPtsDdL0oWZ7RUwGUkh1pRCigFlAIPpEBNaweei8jHox7XRH7EJQG6JRf0wDXbDbpZXZnwNeOsPhO8eoOv6Wfw6MFYfOF4Er54PAlPuOjHgxng61iiHr6k5euo3uVQuB12jfV68sgVXKtueqD7Gc6TFHANp9rqWlZXwBaB68yZM6KDfOzYMeFyRehip3j69Om4efMm0tLSBIDt3r3boh6mHVsGuTh8NgC+0ZnwjrqOK3nNSCpqx6JznZjj2ibGbMkOsr17B96ZfxD1DQ09gIvwFhkZBa+wa7gQkQa/2CzE598RZc33uAd713Yj1785rq2Ys8pBdLa1FTYFLpYbGBSCi7E5OB9xDYFX8pBY0IJL6R2wd2U2LvezA/lw8/Lr9a2UAi7g+vXrou1s3LgRd+/eRVRUlFhne4qJiRHta8aMGZg/f76Yi0r7fLSfTYGrorISu46cxaX4AniFpSI6oxbJRW1Y6X1fgJapS+knm4JQUVEpnpW12qW2fvysBS62JbrjupwPh3dkOnxEe9e30YWenbA3be9u7XhrxhbQMmYuKeAyp4raphRQCigF+q8Av5c3Z97CY17peNQzDY+4p8JuXQB0cz2hs/fogi536GZ3ZVP4oruhhK8perfD8esD8NiJZDx+Ikmfu8CL8MVAHFqLFyMh6sd5dY/1+uKRK/iXMym99iP6f3dDf6QCrqHXWF1hCBWwReDiWC12iDMzM4XVYcGCBWKdY244touud3Q33LJli0VltB1bHsgvu9CIKHgGJeJaWSeuld0X2SnmPuzd5diu+/hkdxo2HfHHzXJ9MIqmlrYeUQpZlqe3Py7GZhuVte1Sd1n2bu14d0M4Dp25JMKCm1bWFLi4n1Bwyt0HIUmlhvrFF94XHXn7LjfCmaca8dkGX/iHxgmXOdNy5boCLhgAy83NTcji4uIi2hLbD4OUMBG2ODaQUf16S6bAxeeflJyCM94RRs//XPJ9zDW0JWCKYxkW7/FDarp+EmyWb612aVpXLXBxH+sYEByG82GpRnV0CO9uo3Pd7+GjHUnY6RyAurp60yIN6wq4DFKoD0oBpYBSYMAKdN6/j1Ml9XjCOwOPnL+OiV7pGLc7ArqFXtDN94Ju3jl91sIX3Qx7g68ZZzFuzUU8xoAbIvAGg2/oA3A83gVgtHoJy5eR1StB43KoB7DPI7qnFxnwjQ3jCQq4hlFsdSnrK2CLwHXixAnRKU5ISEBpaSmmTp0q1mnxYuKbe47B2blzp0VBTDu2PFh0lJOSsNPhGEKT8nAluxYxmTXY5V+LmYdSMWWpA+KuJBiVaw64ZFmBl4JwwMUDEVeLcSWnFuHptdhwoQpTd8dg4fqDwiJnVJhmxRxwyXI9znnB2c0fUWk3RB39U+qw3PUGPt8ciK17nXpYyzTFGj4q4NK3FcK7s7OzgPf169eLtrR582ahU0tLCziGi+6FDDTRWzIFLnlcYWEh1m/ZBb+oVFzOqsGV7Bocj6zFHOdcTFrhjHPnfXtAsbXapayDXJoCF7ezvcfGxmL3weMITy4QbSkqowZbfWsxwyEJs1YewLVr5oOuyHK5VMClVaP7s5eXFw4ePGiUDx8+DD8/P/G/T/fjoUg5OTngywNmuqkOJAUFBYn6urq6DuQ0MaUF/1/4UojtytqJwW1k+ZbK5gu3Q4cOGWnOdf5uxMfHi5dbQ1E/1onPU+rOKTyGK0VGRmLTpk0iD1WbGq57GYvXYXu8fvsuvh2YjYneGSJPOHYFOkYlXHQeuoXnoVvgpc8G+PLstnyZsX7ZLfXG4yeTRNCNx86k4LHTKXj8dIoevroiHzL6oRa+hNVLWr66rF9fP56E1Grbnn9LthkFXFIJtRyRCtgicIWGhopO8Zw5c7BkyRLxmZ1mBslgR4adY64zGIKlZK5jK4/neCm6eDGIQU5uPoqKi1FTU9ujc8zjewMu7uMXKTsgdHXMLyhEbl4BSkpKReed42gspd6AS5bLyXLLym4gL79A5LIbN9DcfKffnR0FXBDRCemKyrxu3TrD+C1CCKNgLlu2TLSl5cuXC/fC3p5Xb8DF4/mcGTWzqKgYObl5ok1V3rrVa3nWapemdTUHXPIYWobLyytQINpoPoqLS8R4tr7aqDxfAZdUwnhJV1V+F5nLkydPFhBgfIZ11iIiIgzX5PfEQBKBkPVdsWLFQE4Trtz8PmYAo4FCXn8uRFdxlr9161aLh3OMrzbojan2LCMvz/z0BhYL7sdO/h/J6xH8hisR7OV1+dul0shSIK3hLv4hJBcTfDMxwScTEzyvQbfqInRLvKFbfKEbvAR8acBrvrR6neuGrzkesFvrrwcsTpjclRnt8HGCVxd86a1eySLkvBa8HtdYvb56Mhmn8/qO+GwraivgspUnoerxQArYInDxLSc7wPIHhktaJAg3dCPkOl3CMjIyLN6zpY6txRNNdloCLpNDB7RqCbgGVFAvByvg0r+RPnDggFFbIsgzeIbstLLzFhxsPjqflNYScMlj+ru0Vrs0vZ4l4DI9dqDrCrjMKyaBi1EwOe2Ar6+viILJ4D7y+6ugoMD8yf3Yyu88ZtMk2y6vMVzAJYMZ8buZL5nMJXN1NT2ut2Po0cD7YVAkS0kLXHwBx0ztCZL29vaiDEIX50s0Tbw2LUS91cH0eNP1BwGuB72W9tq0aPr7+4tMS6CtJmvcq63e24PUi/+6ZS3t+G1cCcZfzMIEvyxMOJ8O3YZL0C3z0eelPtAt9dYHzmDwDAIYwcuc5Wv+OdhtDMSjhCq3VDzmmorHNdkAX2eu6sHrjN7q9TgtXqeM4evJU8lYmliKtnuWXww/yH0P1TkKuIZKWVXusChgi8DFG+fgfboQzpw5U7hR1NTUGICL1goGQ+jry91aHVsFXMPSFPu8yGGPVLwwzRPtHQP7gWAHix1hBsdYtWoV6AbItiM7rQEBAWYtm9oKKeC6iquFD+ZCVV7dhF9/fBZ37lrvzfzn+4Lw2iYf1Daa7/hrn91QfpbAxbaltTzQFVoCF2GAiW2Qbm/87pKJU0xwG7MWYjiecP/+/cKav3TpUtD9T1u+bLu8BsuQx3KOwtraWlm82WVvFi5afTds2CDmp+OLrbi47jGiqampAmh4Pb6w4D2VlZUZyue5hEw5TyLv3zQRlOgWx/MZFZRuctI9jrAl68UpPwhRjDBqLmmBS7uf/9MS2lhPuk7KxOsEBgaKe+NvCjXluim8sIzLly+Dz5XgR12104+YAy5a+zivH6ebYCAemfhc6PZOCOR8fwzYo/3N4nX43KOjo8ULoF27duHs2bPydKMlp62Q7YR1Zlu4ePGi8PJgFF8+K2rKenPss9SC2zjFipzPUhZKy3ZYWJg4h2Ojt2/fjqSkJLnbsOS9s17US9aN42HpXaId81pfX4+jR4+K9kqvgQsXLgyJFdRQsRHyofJuB/4tsgATA3IwwT8b4/2zYLcrDLqVftCtYPaFbrmvBr5MwEvrcrjQC+N3h+NR92t4zOMaHuNS5FR9ePku8PrC2dQ+rF76cV4rU27gnpmXObYsrQIuW346qm59KmCrwGWu4vwRoesex9pof7jMHcttCrjMh/juTS/t9hkbg0HAsaX0oMDV2z2wHUmQ7+0YuV0BlwIu2Ra0y96A69atWwbgYmeciZ1uggA7+jLRjY7bmGUQl/T0dNAdkds4lYH8zOAu7FwzaYFLTpMhy+ELKS0kyGvJpQQb6VJIGOEYR3m+dsmOOCGD8yFqt/Mz4YLnyiBH2v0cFykBg4DAKTzolUBrMoFLugTS+sxEUNSez8+EPHOpN+DisbRqybIdHBzE7wR1JXSYls91HsP7Y+KS0CDPl8dznQAhj5Hb6VLIsqXXBcGKv0/8beLz4XOQx8olx5rJRIDidro6y6krqLO5ZOpSSC8Qvjzi+bwHaiuvQZd7wpF2G8dB5+bmiqL5PGQbkOfIJesn9aBllvAr93HJe+V9sbyKigpRHo+Tga20xxKue4t6au4eR9u2kpZ2PJ9YhgmBOSKP98+GnWMsdKsv6t0JCV0y9wZfXZYvu5V+mHD0sohsyOiGzI95MHfBlwHA9PCltXwJq9cZuhvqXQ6fdkvFpmvlaGyzXUtpb21BAVdvyqjtI0IBWwAu/kDxi5lvzAaStW+EzYmtgGtsAhc7XQNpRzy2r46BAi4FXOa+Y7TARTdVQjzb0/nz5w0dVVofmPoLXJzugh1XHx8fcR479bQwEGKk66sWuGiBYEefFiPZyaY1rbckO9sSuFhvWn0IdrRU0WIjoYbX5H66LYaHh4t60V2PnW15HOvKTjjvk2MZaRXiNgIiz6UlTHbEaX1hunbtmrgfls/gE7xHWT4777TSyY6/6X3IurFMc0l2/glZBEJa43gs7+/SpUvi+RCgZJ34rPgbxIAb3EbAokWR0EqY4TbqSg1YJ3ledna2AVy0QXd4z4RKHkeA4UsdwqkEMN47kwQuHkewYVvSWuW092YJuKT2BFzqyfJ4DwR7Qqt0s6QeTGyf1ILHXr16VVhWeV2ex3rzGfI+aa3kNt4brXG0iMl7kMDFNiCDWhEc+UKALxHYnnguvVT683JUe6+j4XN1Wwd+dqUE44Ny9flSDsadSoJuXSB0a/y7M+FrtQa8DJYvP73la7kv7DYF4VHXq3iUoeRlPqcPKy/gyyMNjwr40gCYtH5p3Q7PpuJp91TszbyFnk7KI0N1BVwj4zmpWvaigC0AFzvIdGXhj85AMn3aLaXXN/niwpV8BCQXDSqzjEn7gwdVhrk6uEVnY9bhMKuXK6/16d5LluSxuG8kW7hOnjw5oHbENsc3t5YSgcsp+LpVnpW12qV8znL57g5/q9RPlqddLnCOVC6FZhqIBC7ZWWWHVXY2uY3jndgpZeovcMlImjyXrnUEFnbaCVXsLDNpgUvrvsfvUV5XToMgDjb5Ywpc7FzT+kFXWwIKoZGda0IGO+bSRZGgI+9JvuxauXKl2LZv3z6DWy6tLxJ6aK1jAAuex8yAGHShowWQ98Msy5LugAMZw2Vya2JVBsLhtXg/Uk9afWTnny510qpGV0hqIKeMoFVPBpNhPek+x0yY0AKXLJcaaYN08J55rwsXLjS4LLI8CdLUjEkCF7Wi+6Ssm7l7sgRcEq5pueJYZ6kzy2Pms+E2qSv1ls+b59AdUEIp2y7vWfvM6M4o68bzWJYELu1x0gWUx9JNm8fRXZEwPZbSjbsd+GVCKSaE5GF8sD7bnU2BbuMlPXCtDYRubUA3dBHAJHit8oOOmeC16iLGHYzBRM7Xdf66yI96XTeGLi149Wb1crsmXA6/eS4d3qX16OgcqbgFKOAaS/9Jo/BebQW4+LaVX9ADyXJsRG+PZbNnAlacih2zeb3bld6k6XP7SAYuc+5PfbUrdoYtJQe/q2O2HfF/aNXpOJRWP1jHaSyM4aJFgR1ndrLZyWQn3tHRUXReZbvqL3DR2iAtVbLdsrPM7TIQhBa4tB1ajhniOZZCvpsCF2GAlie690nLDCGC5bMbWsQAACAASURBVFgCLp4n68clNZBZbg8JCRGh3gmm3Ce38zPhQDu2yBrARcCSVhiCBjv/0sJz5Yrx9yHrxvrwmdF6xeiLXKf7Y29JC1zyXriU7no8T5bL7VIP7b1zO7WTwEXAI/hYSpaAi5ZBJpbJslg+XURlopWN29gu5XG0Qu3du1e8mOI+aaWSwMXxXNzOLF8YyPJ4rAQuWsjkcebulVYyWszGQmJbq267hz+k3MC40HyMC8nHuOA82HmmQbctVB8og8Ey1jMH6uGLFi9OfKwFsNX+0G0OwvjjCZh44TomXsjAIxeu63MXeD3idR3MBosXLV8m8NVt9UrD9/0yEXizAZwLbCQnBVwj+empusMWgIsDgNmB4Js6mWWngD+etFjwjSsHJUtfd3Yo5HgG9Ritr8BIBi52AmQ74pJtRXZ46O7EDhHdteQYCHY8pKuT9ZVUJY4F4GLQDMIQO6fslLPjL60CsgWYAy66fMkOqwQndpxpZeB4Igk+8hgJUlrg0kYpfBDgYnAH2eEmBNECxU4yLb/9BS6ex/8p0yxDp1MPutLRkiz/F3lPBEs5VssawMXrSa3kCzk5jQjdJbWJLnc8liDCZydhpb/Axd8m6XannRNSTmtCl0pTPeS6Frho+bI2cNFaJ5MELmnh4pgr2a7ojkp3QT5vPgsJXPJZUB9Td2ueK4FLtl9uk/emXdKFU9s+ZZ1G47K0pR3/ElcMu7ACPXCF5kPncx26rSHQbQqCbmNXJnT1AK8u6FoXCLsDMZjAiZF99PN1yXm7HuGEyabgRQDTuhkSuozA6xq+c+E68m4Pzdx5w/0cFXANt+LqelZVwBaAy/SGioqKxFtKvm1lZ0DbceGXN33R+aMtfeFNz1frg1dgJAOX9u7pHkXrKTtHnEZA25bYMZbWMEb80u7TlqE+D06BsQJc2iiC5hRjEAF2YLUderpFS0AgcBHYOL6IWY6lYUhw6f5GSxGTNYFLjmdiRDvp3kc3QnaimU1dCumyJ4/jOaw/gYNQxcQlX3rQSsLOOl0VeQ12vvk/xv9JWrZYNs+V1hjZyZeWGFGYmT+9jeFiPQkQLJNh+umGySQDZnCCavk/zmclAZiugayzDBzC5ySP428Rj2Omy5zWwsUxX6wL74Owwvoz8eUN60DQ4/FMBCzO+0dNOPaLSVq4+GyHA7g49o5Jfufx2clnRghjnSVwacGVz471Z6aLK4+TwCXP4zZ+lonj33ivdK+U15D7RtuSbeVKw138MLEMduEF+hyWD92F69DtjoBuc3BXDhKWK2P4CtLDF2FsXxTGn03Rz9XF+bq68kSfzB7wRQh7pFfLl36s1+Ne6fg4vgS3rBgd9mE/OwVcD/sJqOsPSgFbBC762vMLnG94zSW+qeR+WsFUGhoFRgtwMQQ32wrHtphL7ORyP9/+cuyJStZXQAGXXlMGEGBbIwwQ8Bm9UFqWuF1auKRFRrokErxk8AZaK5isCVzS0sMOOcdU8SWXtP4SJCS4EJJYT7ro8WUXwYlLHsPMjjk73bKuMgCD1u2MgMn70XbUZaAIOUaMwRzYUTe1rMiWqQUuwh8z3QJZN2a+jKOVRSZ6R8h9/E1h2XJuPh5LLZkk8PFYwheP4zgwrtNFlB1rLXARSgjIEjp5HMdDcZwdrVtcJ6gRsOj2x5c+vB4t7EwPC7jOnDkj6sZALLSklpSUGCx1BC6CJQFQzoXJOhNktdZJCVzUQ7ZXLumqyOcj2zW9BwhqozW1d95HUO0dPB1TDF1EoT6HF0Dnnw3drnC9dYsWLuYtXVkAWBd8bQ4SUDbOLRXjOUfXxSxM9NNnMWcXt/WAr54AZgpf3/DNwL7ckTOhcX/bhwKu/iqljrNJBWwRuOSbRv7om3s7xjfE/DHTunHYpLgjuFKjBbhk5DF2BsxZIGQnix0k2eEdwY/NJquugEv/WGjhYOeV310yS8sV12X7o4uX3M/jCTNcJ6hJFz1rAhejBEpAIOzwOgQS6S5H8GAieMkoeKwPI++xY05Xb1lfuWSHm/fBzjY75dKqwv20CEkdCDTSWkZrkjyfS+lqaNqotcClPZ6f6dpJN2JZJs8lFNHFTl5Tew5/S6R1iccRyLT7ZZnSKmUKXCyf8CifkYx4SBCV+mnLIzBLAHlYwMUIk3KsHvXis2JdpAupvFeCowwMwnvgPVJbtgEJXLx/QpsEdO290s2UUD5aU2tnJ+bl1eCL0cXQRRbqM6HLJwO6PZHQbQvTj93i+K2tzMbgZXcwBuPcUzHBL7Nrjq5sjL/InCWyBC8uxTE9wMvY5VBavX4TWYj4mjsjbo6t/rQTBVz9UUkdY7MK2CJwSbcFfnnzbSldweiWwh8CT09Pww/i8ePHbVbXkV6x0QJc7KCyA8m2xOhgdHNhB4nRtTjWQnbC6HbIDpdK1ldgNAMXv5sI9WxXsiNtSUF2dmnd4vgiAhghi+cza18IMPIgLWC0chECaBmSQMby2cmV52lfSrFMbrc0DxfbPo+hNUImWjX43cqOt7wXghaPY5lMtPDwf4eugawPrWEy8fuZkRFZVwZ4kHM0yf1c0tLFaH+EDn53M4y5Fox4DO+bFi+WTxA0l+g6KO9dLvnihM+iN6sYnw2t3adOnQJdC+lFwXXTZ8Z13j/rRw8KPictNBDO5DW112JZ3M57lInAwvugJryuNtofjyFg8hz+rkkXRnmu6ZKRKuV1WUfWg8+P29gWmFiGfP58HjLJ5y1d8HkcyyNscnw0wZZlyvL4jGVi22KZDDjCcwicBC+Cmvb58DnSikcrLuGWz3a0fp9ysuCI+hb8OOkGxkUVwS6qSL8kdPllQrc3CnY7wkTWbQ+DyAK+wvQuho5xGHcuDeMDsjExMEefA3IwMSAbEwI4OXJXvpitt3hdJHCZ5B7wlYlnArOxML0CDW161175DEfTUgHXaHqaY/BebBG4+ENF9wv5toxvROWbV7mNS21kqDH46Ib0lkcLcPFHn/PDyHbDzoJ8Qyu3ccm39X11eoZU8FFc+EgFrqyyGhTfGr1v6Edxk1O3NkgFCFN0KWQmiPO7kZnAzO9LegxoQXSQlxsxp7fc68TC/Fp8KbYYuqhC6KKKurM3x2xFQrczAnY7w/V5R7gevByiYeeagvF+mRgfmCOynBCZSwFeGugieE3QgJfW6mWALw10/SSyAGkNLSM+CmFfDUEBV18Kqf02rYAtAhcF45tORo2SFght55iWCr5RVGnoFBgtwEWF2DE4cuSIwe1H25Y4HoUTxqo0dAqMJOC619mJuKybWHI8GnOOhCsIH7pmoUq2YQVoQaMlkN+VfEnFsWhyfjNuoxupqXXQhm9n0FVr7byPs7ea8J9JNzEuqhi66KLuTMvWuWvQ7Y2EbleEPu+Lgt3RK+D8W3a+mRh3qWsCZDkRclAuJlySOQdG8CXAS2/xklYvY/jqsnz5ZeEfQvKwO78Gt9stTyswaAFspAAFXDbyIFQ1HkwBWwUueTd0TaFbBt+s8UueEaCUJUKqM3TL0QRcUiVGuKTbC92JGF6bbjKqLUl1hm45EoCr414nbtQ0YtL+IPx2mYfIFxO7XauGTh1VslLAdhWgez/HdtHjhJlj/UznM7Pd2g+uZvxtYFCM+Nt38aOkGxgfUww7maOLMS66WLgT6txTRYRB3aEY6E4mijFcdpdyxRxc4zWTH8tJkA3LLviaYAm+aP3SAJhwOQzIxqMB2Xj+SgmKm/VRMAd3pyPnbAVcI+dZqZqaUcDWgYtv2hg1i37kjKakHa9g5nbUJispMBqBi9IwQhrHTHCcgun4EStJp4oxUcCWgauz8z6uZJdj7tEI/GGlpwG23t52EXda203uRK0qBcaeAvwN5ng1vrAaK1atjs77CKi5gw8yq/CDxDJ8+0opvhdfhv9NuYk3MyqxqKAG20rq8T2O4fLLhF1gNuyCc2EXkmeYg2scP3flXsFLWrwM1q5erF5d4PVIQA7+PaIA58pv48690Rv9sbf/MgVcvSmjto8IBWwVuDj2htYIzsli6gLGt26qszy0zWs0ARffVDKktTZ8M9sUx3Jx0LgMez20io7d0m0RuNo67iEprwKLXKIMkCUtW8+u8ERKvj4Qwdh9aurOlQJjV4H79yGi/BG8mO/dB+53ycHfk4SGu/ifhK55t8IKxGTHdmH5GMccaiaH5BvDlznLl4QvI4tXLiYE5uKRwFz8W2Qh1uVUo2GMuA+aa30KuMyporaNGAVsEbj4hcYIUebGb7GjzO2cAJQRk1QaGgVGC3CxLTEqnIxUqIV3+ZkDw+/cuTM0QqpSYWvAlVZchc/2XcIfVp7rAVuErsn7g9HeMTbGRKjmqRRQCvRfgc7793GmohFfiy7qnuSYkx0boIufzQAXIUxAVx/gpYGu8V3g9dWQPKzLrcat1o5RHxSjryehgKsvhdR+m1bAFoFLTrDJDjEnZ+SYG05kyXE3DJghO8q0gFlKblHZ4P2N1Xw6Qh/O2ZJGve0bLcDFkMlyzhlO6sk53hjqmZG3GJRFtiWG3yac9ZZ84vPHbDvi/8+JsAxUNTwYlNoCcDEYRnRGmQiGQQuWtGaZW3pfyUNrewda2++prDRQbWAI2gD/H0daKr3bjs+zqvB4ZCHsIpgLjKGL4GUOviwCmN7t0JzL4d9HFmJ1bjVyx9g4LUvtQgGXJXXUPptXwBaBS04IyQG6LS0tRhrSh5zWLXaUGUXJUnplgzecQ67jdGTWoDLL+Hh34KDKMFeHw4FpmOwQbPVy5bU+2BlgSR6L+0YLcEl4J2xxugFtImBxgle2JbquWrJyvbTuAnZ7J1vlWVmrXcrnLJdvbfWzSv1kedrlzMNhuFpofl4krabmPj9M4GIwjKJbDUbBMMxBltqmDxSidFA6DHUb+P0KTyTmVpr7qrDJbZx3K6upDd+7UgodJzbWZD14WYAvIwDL79P6NSEkD0+G52NxTtWYHKPVVwNQwNWXQmq/TStgi8DFyY7ZCaYrmLnESS65f+vWreZ2G7Z9uCsQTS2DdztkGctPxRrKtdaHirpmbPZMsFZxPcpZ6BLVY1t/N4wW4OIkrWwr+/btM3vrBHq6qM6dO7cHkGlPIHBllNZoNz3wZ2u1S9MKTD8YarrJauv7/a6OSOByi842CoYx1J1JVb4CFtUGem8Dv1vmgdPhmeCLEFtPfCFX3tqBz7Or8Qjn3GL4d5nNQlf/wct0rNfE0Hz8b3wZXG7eRvndDoveFrau21DWTwHXUKqryh5yBWwRuA4dOiQ6yadOnTL7xRMSEiL279ixw6I+1urYKuCyKPOw7TzskYoXpnmivaP/P9ZhYWGirWzZssVsW2IETAJZXxN5KuAamcDFxpmQU4HZjuF4bpX5MVumHWRGKKR1WGWlgWoD1m0DHjE5w/Z7MZgL1bXfE2O1vh1XgnFRRSLrIou6gUuCF5ca+OLn/lq9xocV4LsxxXj9WgVCa+6gfQS6WQ5G4wc5VwHXg6imzrEZBWwRuLy8vEQnmIEOtHMl8Y0TJzymexg7yQQyS0kBl7Jw5eTkiIk7OXkn21V7e3eo78rKSnDiY7YlBs6wFIRFAdfIBS5+RzAIRs6NOtAKaApYpuvu0TkiJDzDwqusNFBtwHptgEEnbDl13L8Pn6pm/N+EMkzoAi0JXFzaRTJrLF3azxrw6oauwh7jvMaFF+A/rpQKoKtq6xBREC2NH7ZlvYa7bgq4hltxdT2rKmCLwFVWViZCdrMjTHevJUuWYMOGDWKmexm5kMuMjAyLWijgUsDV2NhoFGiFliy2pVWrVhlFLqTV1FJSwDWygUv7bKMzbmCxS3SvUQqnODBKYf+tqNqy1WelgFJg5CnQcq8T3tXNeCGtAhOji6BjjtJnO4KWGfiSAGZwM+wFvmj1+kJkIf4joQzz8qoRVXdHjM9SkDXwdqKAa+CaqTNsSAFbBC7Kk5mZabBkEby0eerUqYiPj+9TxcECV3tHh5ho2RouhW1t7T0mjRzsGC5+Ybe2tpl1laM4agyXvonU1dWBAVi0bUh+puXLw8Ojz7Y0WODi5KGtbe3iWVmrXZpWerBjuGj967hnPhz6SB3DZaqRdj33Rh0mO4SAg/hNrVxpxdXaQ9VnpYBSYJQpwN/Pts77CKm7g5+nlGOcBC1zyy7o6hW+hOWr2+WQVrBHowrxL1dKMDenGokNd8W8XqNMwmG/HQVcwy65uqA1FbBV4OKXIV2+goKCsHv3bqxbt06E8eakx7SA9eft0GA6tuwgb3fygdPFDBF4YzBBM+iqtmCHJwJjMkS9GQ2P5Q8WuHJy8zBvbygqq+sFGLJcrS4KuLr/UxihMC4uTkS2ZFvavHkz3NzckJeXJ7TrPtL8p8ECl19YEtadzUB9w21Yq13yWXOCcOkmORjg6ujowPJdrnAN1rdRTizObTKNRuDivXECZMLVshMxRtD11hY/4U4o718tlQJKgdGhwL3O+yi5244tJfX4r5SbeDSmGLpobe6ycJmCV5fFi5Yvc+D1SFQRvh1XjLevV+JQWQOuNbXidsc9o9/k0aHgw7sLBVwPT3t1ZSsoYIvAxQ4kO3yEksGkvjq27LAW3qpBWEYhjkenYOaBM3hpswuuF5aKcPT2u4OxyDkbO06E9RmlkHVNL61E4LVcOIbG450NB/Hp3jOi+tXV1Xh/UyQW7w/F6sPBeG9DKMIvp/ULuO62tiKluAK+KVnY6ROOVzc4YqOrvyjX71I4ZpyogZNnJKZtDcAHqy+gprbWIJkCLog2ZAoPBoEG8KE/wFXd0IjonBK4xl3D8lM+eGHdEXhH6S2xjueuYIF7M7Y6BfYJXP1tl7tOhuPDDUHY6+wj7qQv4OKUCjnlVQhOz4dzZDIm7T6ON7efROmtatD18qP1/lh0JBnbj4fhgw3BOHW+e5670Qpc2iZwteCWCK7x/CovAV/+SYXa3eqzUkApMAIV4Pfp3c5OFLS0w7umGR9nV+HLcSWwiyk2ZGPgkvBlHrzsoouE2+FXY4vx/YQy/P5qORbk1cC/phmNyhV5SFuIAq4hlVcVPtQK2BJw0Qrh5OSEhQsXiqhxixcvxvnz5x8YvPoCLkLSvKh8PBdeg2cvleCfV5/AhOkH4XopApwwNzgqCbNO1mO2290+gauuvgHPXSrEH0Mr8Xv/Ajz1wUp8d85+FBYW4vbt2zjuHY+ZJ+oww+UW1h+8gJaWu/0CrszCErwQXY9ng2/iV65JeOSjDXh+vRMKCgpEJ3m5SxrmnLmDafuvIjw22eht2lgGLj5bTnDMNsRxW2xTjH5ZX1//QP9S/QGuM8m5eD6iDs9eKsX/HI2A7tMdWH74DEpLS5GRU4RZp+oxx7W1T+Dqb7u0d2/D4v2BqG9oFPfUF3C13L2LT8Ly8VxYlWjvfzv/AJ6ceQBBsQmoqamB96UYzDzJOrZghcNFNDY1G7QaC8DFm2VwjfzyehFcY+oBy+P6DOKoD0oBpYBNKUDIau+8j4zmNqwsrsN/JN/Aly+XYIIGsrTAxc/moasY46OL8Hi0Hq7ez7yF/WUNSGlsRWVbB253dIrr8HoqDb0CCriGXmN1hSFUwFaAi1CyevVqs+Nstm3b1mMC5P5IYgm4QtLy8K7HFfz2RBx+eSoZT07bA91by0UnecIH67D6lC9u3qrHApd8nPaJtghce/1j8JbbZfzcJQ6/PJ2CRz7eDN3L9rB7dw0mTt2Hi/FpSMiuwhKXbETFpxnGcllyKaQ1YrF7EF47E4tfnIjHT52iYff+eujeXoVxby3Dt+wPoKS8EocDirHtTBKKS2/0kGSsAhfn1tq5c6fZtrRy5UqL8231ELFrgyXgqmtqwafuMfjTqVj84lQy/nG9B3Tvb4Tug40Y/8YivLLeEfW378D+eDGOnk+wCFwDaZfnL102+r+wBFx+yZl4x+Myfn2cbTQZj32yGbrXl0D30WZM+GQLHHwjUFJei4UuufANie8RsXGsAJf2+V/OLkfNbeOJ17X71WelgFLA9hRo7uhEeF0LNpXU4/2sKryaUYnn0yvxm2sV+FlqBf4ntVzkn6dWiG3c92rGLXHs1LxqLC6sxfbSBpyoaERQbQuuN7WhXrkG2sSDVsBlE49BVeJBFbAF4OLboZMnTxo6yAwHP336dBHOWwY3SEpKGvAtaoGL1wgMi8e8dUcxY8UBvDl7M344dx9+tOYEfuoQiKc/24yJb6/ExE934PFX5+PP9nsw93Q1HIJqeozhYlmHT3jDfu0RzFjhgD98vho/nO+AH68/jZ8dCsEX3l+Lia/Mw8S3V+GJd1bhwzVnYe92B17RJUb3YApchKx9x7wwp6vcX3y6Cj9cdBD/vcUN/7M/AI+8s0qUOfG1BXjmnZWYtTca81ybUV7TbYnQXmCsAhcDqsh2M3nyZNGW2KbktuPHjxtZArWa9fbZFLiy8oqxaKMTZq48hClL9+DHM7fjhyuc8NM9fvin5S6Y+OEmTPxwMx59cTp+8elqzHfJx4oLraipazQCrsG0S9O6aoGL5Xr6hmPuuiOYvuIAXp25ET+ctx8/WnsSPzsQhCfeW4WJby4VdfzCG4vxxiJH2J9tgHNYpWmxYn0sApdZIdRGpYBSQCmgFHgoCijgeiiyq4taSwFbAC4GlVi7dq3oEM+dOxdFRUXC9SstLU10ltlRpmvhQJMWuOimteF0MuZ5QuS5HoC9ewdmnW7GdOcaTDlyE5MOl4rlzJO3MdejEzxm3dm8HsBVW1uLj3deMS7LrR2zTjVi2rFqTHa8IcqaerQSs083Y67HfVHWjpPGYdpNgauy8hY+3ZeqKfc+7F3bwPpMc7qFyY5lmHy4FNOOVcHetVWUOetkA9Kyi8xKM1aBi8Ew2GY4X1tWVpZoS/n5+Zg9e7bYvmLFCkOgCbPCmdloClzuIWmY696hb0uewFz3e5h9tgXTXWox9WiFeP5sBzOO14l9bEuLPZpRWHLTCLgG0y5Nq6kFLo5bW3Q0UdOWAHs3tvcmTHOuxhRH2d7LRbuVbXTTmWumxYp1BVxmZVEblQJKAaWAUmCYFFDANUxCq8sMjQK2AFzNzc1gJ5idZF9fX6MbPXDggNhOq8RAkxa4CHXz94UISGHnV5sXuLVgrkMcPtmXY7Sdxyw4dKUHcOXm5uLdLTE9juXxyzwbMW1nJKYfrzfab+/eiUXb9EE05H2YAtfVq6n4cGey0Xksk+euOVeHjzaGYvZZPWjJ+k91uoW4xDRZpNFyrALX0aNHRZvhmC1tYoRLtjGO66Lb4UCSKXDtOHYRc1w7ejyrOa7tWOKShXc2XRbPTT4nsTxVhYysXCPgGky7NK2/Frg4Vm3arvAe9WM9Frnfwew9kfj8UHGP/Qv3BZkWK9YVcJmVRW1UCigFRqkCHJbFiIb0FrDllFzSgITCelQ0tNpyNa1SNwVcVpFRFfKwFLAV4Fq+fLnoDEdFGVuBXFxcxHZnZ+cBS6QFLloSluzxxlxaIzTANe8csPnMVXz00Uf4yYtTjPbxuHVOUT2Ai/M6vTTbucex87wAn+h8/O53v8Mri9yN9s86fQdH3Yw7s6bAxUAdry4+Z3Qe67DAswXRSdn453/9ASYdLDDaP/lADopKy81qM1aB68iRI6LNnDhxwkiX2NhYsX3RokVgCP2BJFPgOu0TgzmubUbPgm1r8u54HHU6iu/9639h5slGo/1T9yagvKLCCLgG0y5N668FLoaLn7LO3Wx7P+R9HS+++CJ+/c5Ko/qxre040R2ZUFu+Ai6tGuqzUkApYGsKdHR2orPTenCUfqMRHx27itXe2bBl5vqP1RH420XBOGYyZMHWno816qOAyxoqqjIemgK2Dly0bNEqMVjg4luqYyc9sOxYMuYeyYS9YwaWH8/ELvcUzD1eju1nkjD9cK5RB3Ty4WJ4+4f1AC6WNW/pBix1Thfl2B/JwKoT17HfMwULnLKx6WQCZp9qMCpryp5E5OQbu/6ZApcod+UOLHHOwBzHDMw7moE1J9Ow3SMLy45dwwqnRJNOficW7/Hr1Voz1oGL4wK1ifNwsS1ZA7jik1Kx7Egs5jtlYc7hDCxxycSWs1dhf7oe612uYMruK7B317uSEmSmu9Rg8x4nETBF+yJgMO1Se2/8rAUulrtj31EsO3ZV30YdM7DiRAb2eKRgnnMxdrkmY6ZTqVEb/fxAPiJjE02LFesKuMzKojYqBZQCD0kBwlVUTg0We2biV1tj8X9XhuM/10TgVYdE7AouQGZ54wNbp9o6OvHCnnh8Z2GwgJn4grqHdJd9X/YHq8JFPZ0UcPUtljpCKfAwFbA14KJVgkEPZGaEQnaSt27datgm99240TMyn1ZLbceW22nV2LT7MNLL7yGj4j5Sy+4jtfQ+Vvnch717t+WLHeVpTjex69ApUVxTS1uPKIWMqugREIfrFZ24Xq4v61rZfSw5393JZkeb7oCf7k6B1wVjV0kWbApc3FZSUoqA2CxkdJV7rfQ+InPuY17XODCWyUzryjtLTsGSBmMduHbs2GHUZmRgljlz5iA6OtpoX3p6unjWvf0xtXBxrrjFK9bhWlmraEvXbujb0pbAnm2JoeCX7nA1FG2tdmkosOuDFri4ia66+5xcRRvVtvcV3j3b6ORD+Th41NgiqC1fAZdWDfVZKaAUeJgK3OvsxOHIYvzdomADFP3DkhD8/eIQfLdr2/eXh+H81QrhFjjQunbc68T7R68K2PqnpaHIKtdPvTHQcobjeAVcw6GyuoZSwAoK2BpwEa76mznPkqVk2rHlscXFJTjk4obIa5VIv3kfhCTv1PuY73kfcz3vY+rRckzf7I2gyERDaGxzwMWyEpNScPjkeSTkNyGtq6xjsV2dWc9OfLY/Cwu2eyI+5brZapoDLrqYRUbH4Zh7IK6WtCHtxn0kl9zHzmDWj8EZOvDR1jjsdL6I0hvmXQnlxcY6cPW3HfG4NWvWSNnMLk2BiwdxnNQJtwvwj81F2o1OJmKKNAAAIABJREFU0ZYIx8u872Oe530RMOPTDf5w94tCfX2DoVxrtUtDgV0fTIGLm3Ny87Df6Syi06sM7d0tqbuN0oo7a8t5RMRdNUxXYFou1xVwmVNFbVMKKAUehgJhWdX43pIQfHdhsHD787tWKcYxxeXX4kz8DWHlopvd/1sbidLagY3XlfdT3diK8ynliMqtkZtscqmAyyYfi6qUUqCnAmMNuKgAoSYgMAhHT7jhuPtFnPS6hD0uvth86ByCgkPB8S/a1Btw8ZjGxkZ4ennD6ZQnTngG4JTXJWw/6o1dRzyRmJisLabHZ3PAJQ+qvHULZ1w94XTKC6fOXcIJz0BsPOiFA86eIoqjPM7SUgFX/+H9QYCL2jOUf0xMLI6ddIOzq69oS4fP+GOtwzl4efuL9mH6jMwBF48ZaLs0LdcccMlyL/oH4uhJdxz38BdtdNcxX2w97InIyOh+RWxUwGWqtlpXCigFHoYC7fc68ef9CcKyNe10mlm3wXv3OuEQXgSHsCJ02vIALCsIqIDLCiKqIpQCw6GALQBXR0eHCN+dmpqKgeSKigqLEvXWsZUnsbPMaHV0DyRkcdyLuWQJuOTx7CzThYsAxshzvZUlj+fSEnDJ46hNU1OTyPzcn3LluWMVuIqLiwfUjtjmsrOzpWxml+YsXNoD+VzYhtiW2KbYtnpL1mqXpuX3BlzyOLZRutUOpI3KcxVwSSXUUimgFHiYCtQ2twtXP46v8ki62WtVGGGQroF9JbonDiax20AIHCjY9adusl7tHb2XPxjg4ji4gdSDv3Osy0D6IfIerLFUQTOsoaIq46EpYAvANVQ331fHtr/X7Q9w9bcs7XH9AS7t8QP9PFaBa6A69ef4voCrP2XIY6zVLmV5ctkXcMnjHmSpgOtBVFPnKAWUAtZWoLapTbgSErhcYkr7VbxPaiXePZoCLptbO+CZfBNvHkrC95aECkvZD9dFYpFnJrIrmgzlMdQ6z5nvkSG2XSmoE+s7gwpENMTrNxsx3z0D/7UuSpTxL8tC8bZjMpKK6w1l+KZW4r2jKTh5uUyMJYvOrRUukN9fESbOYYTBeW4ZKKhqNkAMYSa/qhn7Qwvx533x+NeuY/9xSSie330FLrGlaGm7Z7iGJeCqamzF5JPXRL33hBQKMLzV2Iq9oYV4YW88/mFxiKjHf2+IwuJzmcit7L7/DRdzxXlpN27jTmsHNvnn4b/WRYrj57qZHyZhqNQQfVDANUTCqmKHRwEFXH3rrICrb42G44jDHql4YZqneMM2HNfTXkMB11VcLazSStLvz+XVTfj1x2dx5257v8/p68DP9wXhtU0+qG2829ehar9SQCkwihRo77iH3++8LDr+v9txGa0dfVuo6FpIQJt2Kg2vOOjdEblumv93YzSaWjuEWv5pt8T+X26NFeuEJx7/F4cE+KZWgEE6TM/nOuFF1onX5TizOa7pOHOlzAA4pue9eiBRQBRh63hcqRifZnpM93oQdgcXGJ5ob8BFy9vy89mijj/bHCNA83ZLO36/I85QbwYE4Ti37yzQa0F4rGlqE2UTSHlNv7RKTDqeajiH27YF5huuP5wfFHANp9rqWlZXQAFX35Iq4Opbo+E4QgGXZZWVhcuyPmqvUkApMPIVIJQQhqR15kfrIwUAFNe0GKxEpncpgYuwQIvR1sB85FQ04W57J27dboVbwk38ny5L0huHkgT89AZc/7wsFIyA+OGxq4jJqwWDa1Q03IUjoyZ2WYx2BRWIukjg4vEENFrE0spuo665XVi1FnlmCPdIlhmRXS3OoYXsfzZGY9ulfNCK1nS3Q1imciqbBDDyHn68IUps432aAy66Ux4IKxJRGxlcJLX0NghbtJjxfFrKonNrwPD3PLastgUzzqSJfX89nIQ7rfeEBVAey7oTsjJuNoI603L2MJICroehurqm1RRQwNW3lAq4+tZoOI5QwGVZZQVclvVRe5UCSoHRoQDHHa3yzsa/LNe75gmQWh6GNb454ITFdLnTDsmWwPWDleEIyazuMd6KELfON9dgxYnNqxVQx3JNLVzcNtctw2DFkorebb+H/94QLcp4YfcVcCJmCVyEw7W+OQJw5PFcVje1CosYy1zjox9HzHFVhCNzKf9WswBGWs2ic/TRE02Bi/fC+ckIkNQnOFPvmRCYfkvAHetISDRNBK+fb4kR5aeWNhiAi9da4pX1QOH1Ta8x2HUFXINVUJ3/UBUYzcD13Mpz+HTvJdD9aDCZZby09vygyjB3/Y93B+Ll9ResXq681otrzj9w25qxMRgEHFtKDxO4/rzuAt7fGWCVZ/VHK7VL+Zzl8vnVXlapnyxPu3xlg7dyKbSlfwZVF6XAGFeAgMAxUX/Zn2CYj4vgQsjgWKqrJd1TcUjg+tOeeLS1d49/0kpIVzpamlgGx0/1ZuHiflq0CDbaxHWObeJ+WqAIYBK4fr0tFh2dxsfz3Dtt9/Dn/Xqr04fHUrTFmf3ceLfDMI6KkzszmQIXx2HRrZH12HkpX9STdXu5K7LjOt8cs2Vz4xxXff3dE/Vj3FgGgbOlTe9m2euJw7RDAdcwCa0uMzQKjGbgSiuuRnxOxZjNVwtuPXCjUcBlLF3Ojbox2474P5SYV/nAY7DUGC7jtqTWlAJKAespwKh5dI+bfTYd/74qXIAGQYEWHqfoEhGFzwBce+PR1mEeuFijZ7vGhi30yLAIXHKck/YuCDVbA/LE9RmEg8E5JHD9bkec9lDD59b2e6ALH+v7+sFEw3Z+YHmt7Z0oqr6DoOtVoqyFnhkGKFx2PkscrwUuBrfgeLDvLAzCh05XcbcruAbdJjkpNK9DkLzT1mE2r/PLEcdsCcgzWLiWnMs0qtfDXFHA9TDVV9cetAKjGbgGLc4YLkAB1xh++Fa+dQVcVhZUFacUUAqYVYBjiwgldIMjXNBilX7jtoAVrv+pD+B621EPP4zsZ8nC1Rtw7QgqENftP3B14h3HZHGOFrgYZj44oxq/36EPDsK6M//domDDvS3x0oOQBK6D4UX4/IR+HBaP/d32OLR2wSVdBGUZ/74qQkRWZIAM0yxdNFdeyDYA18rzlqdMMfsghmijAq4hElYVOzwKDAdwrXKI7mF+H567U1d5EAU6OjoxbX2QTboU/mmqB1ptxL3hQbQda+fwLW3xzQb86qMzD2whM6cZ3R1VlEJzyqhtSoGxrYB0NRTR9xYG4xPnVOwPKxTA0Tdw6eFnykMELrorvnYwUYAVg23QTZFh7BOL6kXYehma3RS4GImQoMnl/9/eeTjHdWTr/S+xy65nl12ueg71tuqVXWXvs1YraXeV81OWSEmkSFHMFBOYEwRGkCIpMSeQCEQiAgEQOecciEjknHPwcX0N9uxgiIwJd2a+WzV1iXv7dvh1z7C/e06f/p/HpteSnX9SqwZDdm2PSXAh+iAE5XyfoNxmCi73/hqx9bYgYGvBtckzVt7bHCiRyTXS2z/35sK2aBvzXBoBbADZ1jUo98JL5e0ND+X2I8fstTFXrW+HFsu/fH1P7j4qUfXE4mIexiQAoTUyOim5Za2yxztRXl/nL0Ojsy8EX04LKLiWQ43PkIB7EMAmxHo91X/aHSvYgwoWnvkEF36zXvKaDpmOPakcYeFCdEDt1vjq6TRp6pm57QVcDP/wfH2WpeBC+/7j7ljBfmHYbwzRCf/pUKJ0DY5JZeugyTIWXbK47T10WHhauNzjO8NW2oGALQUXfsBqG3vF60am/GWtn2z2ipW0gqY5F63aobksYg4Cg8PjEpZULd/uj5QPtwbLtcBC6ewZmiO1Yy63dw/JlYACeX9zkHy1J0yJ+L7B6T1DHFMjljobAQjhqvoe8bqZKW/9GCAbTzyR1PwmmZpaeL+c2fKb7RoF12xUeI0ESAAEMPc4/nw9FUKaL0ZwYfNhiBQIlyuJzxwiuBAaXrn+bYuesRmy7tX5BNd/8YiTrJoeFYERATu0qyIEHNaT/eP+6fVtR8Oe6uzmPVNwzYuHN0lg6QRsKbh0bYZHJiQlr1FNvD7cGiSnb2dJeU2n2q1dp+HZMQRGRicks6hZ9p5Pko+3BYvH+STJL28zrCienJxS9TtwMUUJr93nEiWvtFWGrWg9cUxPOH+pmOS0dAzIg8gy+XJ3mHy+85H6d0f33PvjLLfVFFzLJcfnSMB5CeA3BsJo3d1Cwb5Ucx1YA/XF1VwlXt65kCXeT6YtXK+dSVfRAy2fQ5j56Qh9UWp/L+w35QgLl392k6rzP+x8Muv8qGdofHqjYhWqfeYarmNhlTOaVdk2KP+4P17lF5DTLJ6R0wE9EPq94/nmxjMesPiDgssCCP8kgZUSsIfg0nXE2pvQ+Cr5aFuwvL4+QO6GlUhP30yTuU7Ls+0JNLT2y9k72cr6+N2BSEnJa1ARnWxf8spLwH+QKXlN8sORKPnj1z5y8mamNLUNcK3gytEuKwdYtRKy6+XrveHy2lpf8b6XK919CJ28rOwWfIiCa0FETEACLkcAQkqHN/93P0fL9eT6F37zsf/VycdVyoXu3+6IlvjyTlPQjH+zI1rt34XogOZHeFGb2pgY1qV9wRVK7DhCcEWVtE9buLZHS1pV14zfT4ikjy9PrzFDPS1dChGR0fI4Ez0dxAPrvuBW+F+VAIuSf/klVW12bJm+sWdEypr71WUKLks6/JsEVkjAnoILVYWFAovoL/rmyUdbg1VwhscptdI3iPVdK2wMH1+QAN4QtnUOyv2IUvnGI1xNkH3CS6W1c9AQGxsu2ACzBGgL6u0TUSqrPCKUVcX3cbm6xrFkBspG/wRjhGTOKW2VAxeT1fcZltLskhYZHp14YSJkzWpQcFmTJvMiAecggN/8pMouwfomiA4IKOw5BWvWBp8iWXUjT+0bpe5tj5bt/qVqE2QdFv7f73yi3Ab/17EkFUYee1LB9U6HTP/gUrZyvwMNRwguRD/856PTAS/+24F4QbRAiKYtvsXyPw4lKMH0R88U1fbFCC4E4JgOHhIla+8UiF9W03PRFS1/OJSg1rmdjakWr8hKWX0jX+3p9faFTBkYnWDQDOf4SrCWzkTA3oJLs4GForiyQw5eTJbXvvcV5RpW1iqjaod4Ki/NyVpn/Ec1NDIucZnPBCHfERTD+26OWmPn7MEnUP9nzX1ywSdHXlvjp9oXn1UvWJeGdvOwPgG8OGluH5BLvnnyzk8PZZVHuMSk1cnIGISW9cuzzJGCy5II/yYB9yHQNzwuR8Mq5Q+HE+Ufdj0RWLK0AMPfuH45vk5g7cKhBddbFzLlUUGrQLTo9Vp4FtEA194pnOFqh72v/vPeWIEbIo6Iojb1N64hEIXlgf9rvGNrVJr/7Zki2BPr94Rnaj+wN7wzLJOrv0cnpuSb63nqmc+vTG98XNU+KH/8JUW5NqJNqB/KXH0zX2raB8Uzskr9vT9kOlz7Px9JVH/fSm14oQzUKbu2V7C+678fTJCChj7Jq++Vv55NV88gzLwu4z/sfqICdgTntypPly+uTtfrcOji1ny9ULgNLjAsvA2gMkv7EXCU4EILlQgYHpeU/CbZ6hUnf1vnLydvZkl1fY9dJm32o+zYkjA5zi1tlZ1nE+StDQFy6HKKFFS0uZS4xVgaG5tUIh7te+V7X9l1LlFySlucxk3SsaNkcaWDc//gqFqbheijWKfl+7hMOnuGZ11zsLhcl56KgmvpzPgECbgSAYR/b+8fk5y6XgnJb5H7GU0SlNcimTU90tE/NsNjQwuuN89nqv8PugfHJa2qW+5nNkpofqtUtAyIpZshBFNd55ApUiACT+BvfFC25YHfRqyxwv2G7mEVvKJ3ePpvy2iD+lk809o3qp5p6RtVl3Gto39UEio6Vf0gECtbB0xrz3SeWvTVdw2r5yFCZzuQn07TPzLteYC2oM1hha2qDPAraugT5IH0OHS9dDmz5W3vaxRc9ibO8qxKwJGCSzdE/cD0DItvZJl8siNUvtoTLgExFYKodPrLr9PyvHgCEFr1LX3ym3++fLwtRFl+IpOrZWDoxbdzi8/V+Cn7h8bkcUqNclf9YEuQXLifO23Js4fpxfh4llVDfA8xbhJz6uWn4zHy7qZAOXs3W8pru9TEYlmZruAhCq4VwOOjJOBmBLTg+tu5DOUG7WbNd5nmUnC5TFe6Z0OMILg0eUzqEETD+16O/N9vfNSEGdENIRx4LI0A3AfDEqrkX7eHyNs/PRSs03J1oWVOCGNpcGhM7Sn25oYAFdHQP7rcrRiY81jJv3WY9/0Xk+X/fHVPWQ5hIXXkyxAKrpX0KJ8lAfcioAXXfPtwuRcR52wtBZdz9htr/ZyAkQSX7hQsuE8vbJZdZxPUnlAHL6VI4dN2uoZpQHOclciAi2Zeo2z1ipWPt4fI8atpUlrd6bZv9SYmpqTyWbecupklH2wNlo2eT9Q6tun1XXOA5GVFQFtIsU7rwy3TAW4eJVRJ74DjNzCn4OIgJQESWCwBCq7FkjJ2OgouY/cPa7cAASMKLlQZ4gF7K4UnVSsXww+2BMtlvzxp7hhQwsuRb9cXQOqQ22Pjk2qzWc/rGcqitckzVgkvBCfhMR1NL6+sVbafilOBNY78nipFVR1qvzGOpZkjBDz6BkYlMPapfOMRoayDN4KKpKsX+2nNTOuovyi4HEWe5ZKA8xGg4HK+PputxhRcs1HhNachYFTBpQHiLTtCf2PCB/e4Vfsi1PqugcExw0z+dF0dcZ56Hhr9WmCh4vPt/kg1UcYeSM4efdDaPCEkevtHJSqlVrDvGNZ3XfbLl6a2foe6x1m7nSvJD3vlpRU0yRavWHlnY6CcuJYuFbVdMj4xaShGFFwr6WU+SwLuRYCCyzX6m4LLNfrRbVthdMGlOwbCq7SmU00A39sUKFtPxklybqMMmUXV0Wnd4QzxgPVuYYnVsu5wlAo28rt/gQqP7g7tX0kbwa6xbUDuPCqRdzcGyvcHH0+L1F5s1GsQE85KGriMZ6ctpN1y4mq6EqL4fqUXNCmhtYzsbP4IBZfNEbMAEnAZAogqiE2T4fHhrr/xrtCZFFyu0Itu3AZnEVzoIvxQjo5PSEZhs2w4HqNcw365niHVjQgj7z4TZaxLyi9vk51nEuS1tX5q09mSqg4VXMSdOKzka4vhAhFf3dArcC/883cPZJtXnGQWNbvVWMJ46ekfkVshxfL6On/5bGeohMRVSr+yIP8/w1qRKbhWMvr5LAmQAAk4HwEKLufrM9bYjIAzCS5dbUwSO3uGJDS+UrmGwdXwamCBNLUPuPRkGW/nniIAxK0seX9LkLLyxWc9k77B6f07NB+el0YA0RtT8xtl+6l4tV7p6O9pAgHr6i6ZsJCGJ1bL6n2R8tnPoXIloEDqmnodEuZ9aT0mQsG1VGJMTwIkQALOTYCCy7n7z+1r74yCS3cahFdrx6BcfJAnb/4YIGsORUpMep0Mj/x98z6d1pnPWKeFNVn+UeXy6c+P1J5a9yPKVBADZ26XkeqOsYR1gQHR5cql7qOtwXI3rMS0oS/uu8KBdsB9sLS6S/Z4J6oNoveeT5KiynaZmnKeACsUXK4wGtkGEiABElg8AQquxbNiSgMScGbBBZx6AllW0ykHL6aoNTlbT8aqsPJY6O/sx8DwmESl1sqaQ4/lo23Bcv5errJCMPqgbXp2OkjLgLL2wHL65Z4wZQXCvmbOrrmwjuFpXZecupmp3HE3ez6RlPxGGRxGABrnEpQUXLYZ/8yVBEiABIxKgILLqD3Dei2KgLMLLt1ITBhHxiYkKbdBNnk+UVaKX65nKhc8ZxRewyMTklfWJvt/TRYECfE4n6TWbTljW3QfOdMZ6+TgVnjsapq8iyAtXnEqeh/6xdnECerb0jmoNoH+9OdQ+WJXmATHPTVUmPeljg0KrqUSY3oSIAEScG4CFFzO3X9uX3tXEVy6IzG57B+Ca1iF2vj37Z8eyr2wUsE6HWd4iY/6N7T2yQWfXHltja9aoxaX+czl3CR1fxn5jL4YH5+UlPwmWX80WvXH6dtZ0tDS5zSiC2Hen2TUqXH06hpfuXA/V1o6BlX90T5nPSi4nLXnWG8SIAESWB4BCq7lceNTBiHgaoJLY0XAg5rGHvnNP1+FTMf+XRFJ1dLTP2rYyXJz+4DcjyxVFohvPMLFL6pcbfSs28SzYwhAmHR0D0vgk6eyyiNc7Xd2J7TY0EFasE4rvbBJWUbf3vhQDl1KkcKn7UpAOoaidUtd7R0l7x0Lka7+EetmzNxIgARIgAQMSYCCy5DdwkotlsDNJyXy0m4/SSxuXOwjTpUOwqvwaZvs9U6SV7/3lX2/JktxVYeaeBrhBT8m84PD45Ka1ygbTzyRV9c8UGtsahp7DSsMnWoAWLGy6KuW9gHxvpsjf/3BT9YcfiwJ2fWGsT6ifhjv9S396kXDX9b6ySqPCIlJqxNYulzpoOBypd5kW0iABEhgYQIUXAszYgoDE/i74GowcC1XVrVpUTMmsRnPZItXrLy+PkC87+WoPZgcGfob67HyyqfXab2xPkDtp5Vd0iIjo641OV5Z7xnraYyl0bFJZS06fDlV3trwUHadTZDs4hYV/c9RIh7ltnUNim9kmbLAfbk7TB5ElklHz7BLCncIrvePhdLCZayvB2tDAiRAAjYjQMFlM7TM2B4EbsVOW7jii1xXcGmOmCx39AypNV3Yd+jrPeHKTazTzpPSaStEn1wPLJRPd4SqCISPEqukb4D7aem+MvoZAgdWo8iUWll7+LEK1X/eJ1caWvrFnhEkMaaxPjElr1EFi3njxwA5cztbKuq6XHofsdXnHk8LrgG6FBr9u8L6kQAJkIA1CFBwWYMi83AYAS244orqHVYHexaMCSoET11zr5y9ky1//cFfCZ6MwmZBSHBbH9gjLDK5Rj7b+Uje2Rgot0KLlQhEvXg4HwH0W//QqPhElCrL0nubA8UnvEyGR20fRh7juKS6UzzOJ8vL3z6Q3ecSJb+iXQk+Vx9Pq54Lrm4KLuf70rDGJEACJLAMAhRcy4DGR4xD4E5cqVrDFVvwzDiVskNNMCGF6156QZOaqH64JVh+uZ4hlfXdNrFQwBqSU9oie70TVZh3lFVc2aHc0OzQXBZhQwLQyggjX1HbJYhi+OHWYNl4/Ikk5tTL0LD1N+HG2MU6rV8f5CkL6fcHH6uAMF29cB+0YUMNlPU3Zx/LB8dDhYLLQJ3CqpAACZCADQlQcNkQLrO2PYG78WVKcMXk19m+MIOWAJcsRKD7fNcjeW9TkNwKKVZ7FK10fRcmxpNTU1Lf0idn7mQL1mmtPRQlCPM+Os51WgYdDiuqFsZMblmr7DgdLwjDfvi3VKlt6BGs11uJGMKzGE9wOw2Jq5Sv94bL6+v85WZIkdjbJXZFgKz08NdnIpXg6qGFy0pEmQ0JkAAJGJsABZex+4e1W4CAT2K5ElyPc2oXSOnatyGMGlv75XpQkXyyI0RNaIPjKqV3Beuq2joH5XZoscrvm72OWS/m2r1mzNZNC6MxiUmvk3VHo5Qwwvquuqbl798FwRafVS8bjsfIOxsfKgFf29Qr4xO2d4M1IuUvT0fIhydCpXeQ6x6N2D+sEwmQAAlYmwAFl7WJMj+7EvBNqlCCKyyrxq7lGrUwBDzAfkUHLqbI2xseyt7zSZJf3qbW5Cymzphs9w8iImKdCvP+5o/Tk2PsCbZSi9liymca4xDAWGjtGJQbwcXKzRAh2kPiqpT1FPcWOpAGQqu8pks8r6XLuxsDZaPnExUgw9XCvC/EwvL+56ci5KMTj6R3iILLkg3/JgESIAFXJEDB5Yq96kZtepj6VAmuoPRKN2r1/E3FRBehv1Pzm2TjiRh5aZWPWt/1rHl+CwUEVXFVu+w8myAvf3tf9v2aJKXVnXYJxjF/i3jXUQQwljAu6pp6xetGprzyva+sPxolqfmN867fgx5DRE1s3P36en/52iNcwhKrVWTExYg1R7XXXuV+4hUmH3s+kv7hMXsVyXJIgARIgAQcSICCy4HwWfTKCYRmVCnB9SCpfOWZuVgOmNjCLdAvqlyFkP9qT5j4hJdKa+fgjJYiuiHcu369nyuf7AiVtYcey5P0OuntZ8jqGaDc+A8IqOHRCckoaFJ7wb2/OUiOX02X8tpOtQm3RoMx19M/Ktgm4Nv9kfLR1mD53T9fGlr6ZHJqYauYzsfVz7BuQXQNjoy7elPZPhIgARIgARGh4OIwcGoCWLv10m4/wQbIPGYngEkwJrze96YDX6w7Mh34AsE2evpGJCC6QrDR7Ns/PVRrtrp6KbRmJ8mrIDA4PC7hiVXyxa4weXfTQ7keVKiEPaJmZhU3y9aTcfLXH/zk4KUUqXzW7ZIbF690JLx7NEQ+OxmuROxK8+LzJEACJEACxidAwWX8PmIN5yEQV1ivBNel8Px5UvEWCAyPTEhBRZt4XEiSdzc+lJ9PJ8hmz1i1PgfuYrByjY1PEhYJLEhgCiK+tV+uBBQoq+g3eyOUwHp/S5Ba+weXQ6wFpPvg7CjfOBgoX56OlFF+32YHxKskQAIk4GIEKLhcrEPdrTnp5c1KcHk9zHK3pi+7vf1DiEBXKz8ei5Ftp+Ils6hZra1ZdoZ80G0JTE1NSUlVhxy9kibfeIRLQEyFioxJoTX/kHjFI0CwF5c9Niufvya8SwIkQAIkYA8CFFz2oMwybEagoLZdCS6Puyk2K8MVM4aFYmhkXLk0cXLsij1svzZh/CBIC1wNKSAW5o497OAGvfZCDC2AC+NiChIgARJwCQIUXC7Rje7biOqWHjV52XA51n0hsOUkQAJOQ6CuvU/9Zu2+new0dWZFSYAESIAEVkaAgmtl/Pi0gwl09A2rycunXmEOrgmLJwESIIGFCaSUNqrfrLMhuQsnZgoSIAESIAGXIEDB5RLd6L6NwMaqf9rtJ694+HNjXvcdBmw5CTgNgTtxpUpw+SVXOE2dWVESIAESIIGVEaDgWhk/Pm0AAp+fDFcTmJbukOliAAARQUlEQVTumftLGaBqrAIJkAAJzCCA9aZYw5VR3jzjOv8gARIgARJwXQIUXK7bt27TskM+aWoCk/m0xW3azIaSAAk4J4H3joWo36v23iHnbABrTQIkQAIksGQCFFxLRsYHjEYgOL1STWB8EsqMVjXWhwTsTgCh2uvr69WntbV11vIbGxvV/a6urlnvL/fiyMiIIG98+vv7l5vNjOeQj26P5bmlpUVGR0dnpDfyH72Do+q36p0jwYxQaOSOYt1IgARIwMoEKLisDJTZ2Z/As+dRvw74pLnEJGZyclJycnIkLi5OfWabFFdWVpruY4JtzSM7O1uSkpKkoKDAmtmqvBBCPDk52VT32dpm9ULdLMPBwUFZvXq1+nz33XcyG+OffvpJ3b9586ZV6RQVFZnKDguzTiCbyMhIU566XebnNWvWyKNHj2RiYsKqbbFFZmUNXUpwbb4Sb4vsmScJkAAJkIBBCVBwGbRjWK3FExgaHZe3DwfLDxdjZGTM+JOuhVqGN/ZHjhwxTTKvXr36wiM+Pj6m++Pj4y/cX8mF3bt3q7yPHz++kmxmfba4uNhUb0ya79y54xIiedbGOuiiueACY4wfS1HuSoILbfz222/l+vXrhh9L0Xl1SnBdjrD+ywwHDTcWSwIkQAIksAgCFFyLgMQkxiaASIWrvaPk/WOh0j0wYuzKLqJ2loLr+++/l2fPns140hkFFyb9J0+enCG49u/fL3BD42E9ApaCa/369dLcPDNAw3yCS21kPDoqyAdjcb6NsXEPliV88O+FLFwYA+jvpVijtIULlqyUlBQpLS1Vn8LCQmXZ2rBhg2lMzWbNsx7Zled0KaJACa7Ygpnf55XnzBxIgARIgASMTICCy8i9w7otigAmevvupqqJTFFd+6KeMXIiS8GFN/jbtm2bsVZlIcE1NDQkVVVVUltbu+DkFhYyTFT1xHo+CxcmzB0dHdLe3v6C1WQhpm1tbaInxxABaBfEpKUYWCgf3p+fgKXgAuedO3fOGAdzCS48e/nyZdm6dats3rxZnX/99Vfp7Ox8oVCkvXXrluzYsUN9Hjx4IPn5+SbxY+5SiLGVmpoqe/fulS1btqj0t2/flr6+vhfytbygBdfatWsFa7bMD+SL+qKN+GCNl5GPdRdj1O9UZXOPkavJupEACZAACViZAAWXlYEyO8cQiMipVROZo74ZjqmAFUs1F1wQKD/++KNymcLbfX3MJbggsjw9PQVrd/QkFJaBixcvKqGkn8cZQuf8+fNK9CAtRFBISIjMJrhglXj48KGaLOt8kR5uXIu1KqSlpal24PmsrCyT+EIePKxHwFxw+fv7C4QKmJuPn9kEV3V1tRprun/NzxBguK+PgYEBOXDggGmM6bS7du0yXdOCC2Pn0qVLpr7XaXH++eefFxRJcwkuiC0If1hJkde6desE9TLq0dE3JH/e6y+vHwx0Cddno3JmvUiABEjAiAQouIzYK6zTkgn0D43Jy3v81CbIfUPOE7VstoaaCy5YJu7evasmlJj0jo2NqUdmE1x4+68ns1jT8sMPP5gm27iOienw8LB6HpNV83VisDRBmCEdnsVZr+FC2nv37pnyRr746LJOnz4tCPQx34E8zpw5o57BJNu8jcgHFjke1iFgLrgQfAXr5MDYw8PDZJW0FFywXGoBBbGO8QXXPYw9PR62b9+u+gl9CQGl+x/5BgUFyS+//GJKi3tacCEAi06LlwFlZWVKvOt8jx49KvOtQ9SCC3lg3EFY4aPHK65j/CLYi1EPMLsWVaReCp0LzTVqNVkvEiABEiABGxGg4LIRWGZrfwLH/TPVhOZR5t/fxNu/Fisv0VyMQHDhLb62UsANC5O32QQX3Lv0xDYxMVF6enqUVUuLJUxwESEQByIQ6gnvhQsXlOthQ0OD/Pbbb6Y8tOCC1UznC0sZ3Mu6u7slPDxcXccEHZPz+Q60AZNi5IPIeGiDn5+fKd+MDOe3TM7XfnvesxRcEOJ6/MBKCfaWggvjQfcxXAP1ASF97do1dQ/9h35G32/cuFFdg/VVuwUiX/MxqAXXuXPnVFpYTjG2cZiPYeQBd9O5DnPBpetoed60aZOkp6fPlYXDryMc/Gcnw+VvBwKlb2j6pYnDK8UKkAAJkAAJ2I0ABZfdULMgWxPIqWqTVz0CZNPvcWpCZ+vybJW/peBCOQkJCUogYaILwWMpuDCBxTovTERhRTA/kB+sY7gHqxaOU6dOqb/hFggxpA+INO2OqAUXQm7rCS5cAVE+PgjkoSfev//+u87ihTPqBldFnYcWV1hfpq/RrfAFbMu+YCm4kJHuQwgTiBtLwXX//n1TX2AdlvmBftb9FB0drcS5tnBeuXLFPKnk5eWZ0mrBBYsmnsf5xo0bpo8eg7hn7q44I0MR0YILgg8uklFRUeoTERGhxLtuC/LBmDLikVrWpNwJd9+efuFhxDqyTiRAAiRAArYjQMFlO7bM2c4ERscn5cvTkfKnPX6SXNJo59KtV9xsggsuV9rlC+uuLAUX1snoSbGvr++MyiAi3LFjx9R9iCkIILhkIT0CHmCCrg/c02titODSLmlID4GGdWXma8twfc+ePTqLF85wg4TbmK4fLC4oE+ttYMHDdQRoQNk8Vk5gNsEFl8GDBw8q1rBCaZGi9+HSViz0RUVFxYxKwIKl+w7C+enTpyZ3PrgSmh94VqfVggsiT1+b61xSUmKezYx/a8E1V9CMmJgYU/5Ia7RjcmpKvjwVoazvSU78u2Q0rqwPCZAACTgTAQouZ+ot1nVBAjlVrepN8kcnHomzruWaTXCh4bAM6QmrFkX4G2LMXHCZu4ThOXPBBSsBhI1274Pgslw/tW/fPlWOFlxwY9Tlent7qwAccC00/0CUzXXAggahpvOY66wtX3Plw+uLIzCb4MKTCJoB9nAl1VZMLbggnHS/WLrmmYd6h6sqrEjawgXxby6UzceoFlw6CAvW8MG6NttHr02crYXzCS7zdqH+wcHBs2Xh0GshGVVKbK27FCMTk9bdpNyhDWPhJEACJEACiyZAwbVoVEzoLAT23k5RE5ygtMoZk0Fnqf9cggv1h8jRE2N91gEHtEshgheYT4IRKEPf0y6F2loGSxXCvOsDk3U9GdeCy3wyXlNTY8obZWCijPrOt6+S+fMQepYf3Q5Yu2CJ4bEyAnMJLvSXeaAUcNeCq66uzrSmD2MM/an7VwtwWJjg+ge3U221gvDC+EFaPGM+PrXg0gE2YFXr7+9XadHP8fHxKj02Zkaecx3mggvujRhv+OAlA1xbEWpejyFEwjTSMTk5JZ+fCpe/7H8olc3dRqoa60ICJEACJGBHAhRcdoTNouxDoORZp4pW+NbhIKlodL5JznyCC/sMaXdAPcnUgktbomDBQEAL5NPb2ztjnyLshYTD3BKBQBkI7Y60WEul89WCq7y83HQNATYw0cWEGQE4EAYca3MsrSK6p1EH7b4G0QdrSWVlpemDIAx68o6oc9yTS5Nb/nkuwYUcYZ1CkArdx1pwQTBhHR6uY/xgHSDcDDEGdFpEo4TARloE39DXIXggqk6cOGESbbinBVdubq4pLVxPEcQFe2dpYY/nMKbmOrTgQp4YK1iPiA/289LBQHAP9TBSWHi4Eh7zzVAvf474pss4rVtzdTGvkwAJkIDLE6Dgcvkuds8G+iVXyMt7/OVb7ygZHBl3KgjzCS5MdmER0JNdnLXgampqMgWxwHUdhVCnxcTW3H3Q0tqBdBA9WiBpwaUn43qCjLO5i+ChQ4dM4eotQRcWFprqCvez2cLHY9Kv66ijKFrmw78XT2A+wQX+WliBuRZcyB1WpsOHD5vcTXWfYBzBamouijAmLPfWwtgxXwumBRfS4gWAFtY6X5wxdhbax81ccJk/i39DcCFwC8Qg2m2kI/L53oCfeoXJwAgjExqpb1gXEiABErA3AQouexNneXYhgLUSW67Eq7fLh+6nqbfydinYCoXMJ7iQPawM2BNJTz614MLEFi5WOkCGvo8zoslBbCGNPjDB9vLyMuWDdAhAoPfL0oIL6VEG7um1OzpvrOmCZcw8X50/znoPMaSfywpmvn8YRCGPlRGA9RFufvhgLFkeuKbvW1qEMLbgtofgGFiXh+iG2C4A1y0PjAlYXJEWEQNbW1tVOp23ubjH+EDwDVhWEdQlNDRUWdtmq59lOXCJ1XlanhGiHm6K2gXS8llH/V3X1idvHAxUvz+ZT1scVQ2WSwIkQAIkYBACFFwG6QhWw/oEGjsH5Ivn0cGuxxRbvwCD5ogJN6xdcN9D9DeIsLkEEdJi0gy3wfnW0eimwoqASHTIF0Jprnx1ep5JwN0INHT2qz23/rzXX648LpSpqb+/5HA3FmwvCZAACZDANAEKLo4ElyZQ29Irrz9/0xycXsXJj0v3NhtHAo4jgJcP2OD4X38JU5Ytz4BMx1WGJZMACZAACRiKAAWXobqDlbE2AUyCMipaBAE0sKbrdlwprTLWhsz8SIAEpK13SNZciFFia/+9VOkfftENk5hIgARIgATckwAFl3v2u9u1Or28Wd44GKQmQ6eDc2Ro1LkCabhdh7HBJOBEBAprO0xrtjzupvD3xYn6jlUlARIgAXsQoOCyB2WW4XACsHQ9beqWjzwfyct7/GTdxRhp6TZWVDOHQ2IFSIAElkQA67PuJ5bLm4emX+acDcmR4bGJJeXBxCRAAiRAAq5PgILL9fuYLXxOAKKrtq3PFL3wg+OhEp5dw7fRHCEkQAJLIoDfksrmHjnokyZ/2uOnXJYfJJbL2MTkkvJhYhIgARIgAfcgQMHlHv3MVpoRwAakWND+0m4/9fnufJS09dDaZYaI/yQBEpiDAKxa2OfvFQ9/9fuB8O/OuMH6HM3jZRIgARIgARsQoOCyAVRm6RwEcqvbZP2lJ2rS9Jf9D2XXrWRJr2h2jsqzliRAAnYl0NU/Ileji+Sr05HqN+NvBwLl5pMSBseway+wMBIgARJwTgIUXM7Zb6y1lQjgbXVoRpV8eTpSRTGE1evzkxGCEPJVzT3SOzTKqIZWYs1sSMCZCMA9sLl7UPKq2+SEf6a86hGghBbWa+25nSzNXQPO1BzWlQRIgARIwIEEKLgcCJ9FG4dA39CYJJc2yupzj9WkCsILb7A/8QqXrVcTBOsznjZ2ycTUlHEqzZqQAAlYlQCsWAnFDXIqKFtWnYuS946FmF7EvLYvQLxDc+VZW59McjNjq3JnZiRAAiTg6gQouFy9h9m+JRGYnJySwtp2ufK4ULZdS5B3jwabBBhEGNZtfHEqQomwY34ZcjE8X+7Gl0pQWqVE5tRKbEG9JJc0CsLQZ1W2Sm5Vm+TXtElBbbsgdHRRXYcU4/OsU0r0p75TSvghA46BpY+B598hfJ/wvcL3C9/fgpp2ZZnKqWpV+/ClljVJQlGDROfVyaPMarUG61p0sZwJzpG9d1Jk7cUYeefIzO/6n/f6y6pzj+Wob4aEZVVLZ//wkn5LmJgESIAESIAENAEKLk2CZxKYg0Bta6/ciCkWBNfQgTZ4ng44Qg7k4EpjAO6CiDwYW/BMRsYZ3n2On0ReJgESIAESWCIBCq4lAmNy9yYwPjEpbb1DKiQ01nYklzapt+bB6ZVyL75MrkQVyYWwPDkdlC2eAVnq7fjh+2lqErf/Xqrsu5sqHndS1Ft1vFnfww8ZcAysaAzge4QPNhzG9+vAvVQ5dD9NjjxIl+P+mXIyMFvOhebK5cgCFeQCEQYjsmskvrBeWb9gXa5v7xe4FSPcOw8SIAESIAESsDYBCi5rE2V+JEACJEACJEACJEACJEACJPCcAAUXhwIJkAAJkAAJkAAJkAAJkAAJ2IgABZeNwDJbEiABEiABEiABEiABEiABEqDg4hggARIgARIgARIgARIgARIgARsR+P9VLSbliLAqbAAAAABJRU5ErkJggg==;" vertex="1" parent="1">
          <mxGeometry x="30" y="30" width="860" height="370" as="geometry" />
        </mxCell>
      </root>
    </mxGraphModel>
  </diagram>
</mxfile>
